<svg width="177" height="177" viewBox="0 0 177 177" fill="none" xmlns="http://www.w3.org/2000/svg">
<g clip-path="url(#clip0_3906_40999)">
<rect width="177" height="177" fill="white"/>
<mask id="mask0_3906_40999" style="mask-type:luminance" maskUnits="userSpaceOnUse" x="0" y="0" width="177" height="177">
<path d="M177 0H0V177H177V0Z" fill="white"/>
</mask>
<g mask="url(#mask0_3906_40999)">
<g opacity="0.642694">
<path d="M41.7509 46.5339C41.7509 49.7709 39.1269 52.3959 35.8889 52.3959C32.6519 52.3959 30.0269 49.7709 30.0269 46.5339C30.0269 43.2969 32.6519 40.6719 35.8889 40.6719C39.1269 40.6719 41.7509 43.2969 41.7509 46.5339Z" fill="#14BB51"/>
</g>
<g opacity="0.421654">
<path d="M92.0101 161.428C92.0101 163.054 90.6921 164.372 89.0661 164.372C87.4391 164.372 86.1201 163.054 86.1201 161.428C86.1201 159.802 87.4391 158.484 89.0661 158.484C90.6921 158.484 92.0101 159.802 92.0101 161.428Z" fill="#14BB51"/>
</g>
<path d="M88.83 62.7917C88.83 66.0287 86.206 68.6537 82.968 68.6537C79.731 68.6537 77.106 66.0287 77.106 62.7917C77.106 59.5547 79.731 56.9297 82.968 56.9297C86.206 56.9297 88.83 59.5547 88.83 62.7917Z" fill="#DEA4FF"/>
<path d="M62.2006 139.753C62.2006 142.99 59.5766 145.615 56.3386 145.615C53.1016 145.615 50.4766 142.99 50.4766 139.753C50.4766 136.516 53.1016 133.891 56.3386 133.891C59.5766 133.891 62.2006 136.516 62.2006 139.753Z" fill="#DEA4FF"/>
<g opacity="0.172717">
<path d="M114.103 21.569C114.103 23.195 112.785 24.513 111.159 24.513C109.532 24.513 108.213 23.195 108.213 21.569C108.213 19.943 109.532 18.625 111.159 18.625C112.785 18.625 114.103 19.943 114.103 21.569Z" fill="#FBC86C"/>
</g>
<path d="M141.503 83.8081C141.503 86.9041 138.994 89.4131 135.899 89.4131C132.803 89.4131 130.293 86.9041 130.293 83.8081C130.293 80.7121 132.803 78.2031 135.899 78.2031C138.994 78.2031 141.503 80.7121 141.503 83.8081Z" fill="#24C1D1"/>
<g opacity="0.01">
<path d="M120.036 161.108C120.036 164.345 117.413 166.97 114.174 166.97C110.938 166.97 108.312 164.345 108.312 161.108C108.312 157.871 110.938 155.246 114.174 155.246C117.413 155.246 120.036 157.871 120.036 161.108Z" fill="#24C1D1"/>
</g>
<path d="M20.4878 123.264C24.4488 121.647 28.8688 120.787 32.8248 122.216C40.3288 124.926 38.6748 135.832 30.7158 134.857C25.4498 134.211 22.2088 121.478 32.1858 115.895" stroke="#7FD7FF" stroke-width="3.006" stroke-linecap="round" stroke-linejoin="round"/>
<path d="M142.859 54.5859C142.775 56.3549 142.875 57.5859 142.875 57.5859C142.875 57.5859 144.747 71.0619 131.52 68.0679" stroke="#FF6A5F" stroke-width="3.006" stroke-miterlimit="10" stroke-linecap="round"/>
<path d="M133.249 130.911C134.978 133.936 136.348 137.886 136.962 143.044" stroke="#FBC86C" stroke-width="3.006" stroke-miterlimit="10" stroke-linecap="round"/>
<mask id="mask1_3906_40999" style="mask-type:luminance" maskUnits="userSpaceOnUse" x="0" y="0" width="177" height="177">
<path d="M0 0H177V177H0V0Z" fill="white"/>
</mask>
<g mask="url(#mask1_3906_40999)">
<path d="M123.5 88.5C123.5 107.83 107.83 123.5 88.5 123.5C69.17 123.5 53.5 107.83 53.5 88.5C53.5 69.17 69.17 53.5 88.5 53.5C107.83 53.5 123.5 69.17 123.5 88.5Z" fill="#14BC51"/>
<path d="M76.25 88.3269L84.576 96.4999L100.75 80.5039" stroke="white" stroke-width="6" stroke-linecap="round" stroke-linejoin="round"/>
</g>
</g>
</g>
<defs>
<clipPath id="clip0_3906_40999">
<rect width="177" height="177" fill="white"/>
</clipPath>
</defs>
</svg>
