<svg width="25" height="25" viewBox="0 0 25 25" fill="none" xmlns="http://www.w3.org/2000/svg">
<path d="M25 2.5C25 1.11929 23.878 -0.0129466 22.5041 0.124896C20.0773 0.368397 17.6946 0.966204 15.4329 1.90301C12.3998 3.15938 9.64379 5.00087 7.32233 7.32233C5.00086 9.6438 3.15938 12.3998 1.90301 15.4329C0.966203 17.6946 0.368396 20.0773 0.124896 22.5041C-0.0129467 23.878 1.11929 25 2.5 25C3.88071 25 4.98391 23.8764 5.15605 22.5065C5.37842 20.7368 5.837 19.0011 6.52241 17.3463C7.5275 14.9198 9.00069 12.715 10.8579 10.8579C12.715 9.00069 14.9198 7.5275 17.3463 6.52241C19.0011 5.837 20.7368 5.37842 22.5065 5.15605C23.8764 4.98391 25 3.88071 25 2.5Z" fill="#9D71C6"/>
</svg>
