<svg width="25" height="50" viewBox="0 0 25 50" fill="none" xmlns="http://www.w3.org/2000/svg">
<path d="M25 2.5C25 1.11929 23.8779 -0.0129747 22.5041 0.124826C16.7903 0.697946 11.4187 3.22594 7.32233 7.32233C2.63392 12.0107 5.79649e-07 18.3696 0 25C-5.79649e-07 31.6304 2.63392 37.9893 7.32233 42.6777C11.4187 46.7741 16.7903 49.3021 22.5041 49.8752C23.8779 50.013 25 48.8807 25 47.5C25 46.1193 23.8764 45.0161 22.5064 44.844C18.1215 44.2931 14.016 42.3002 10.8579 39.1421C7.10714 35.3914 5 30.3043 5 25C5 19.6957 7.10714 14.6086 10.8579 10.8579C14.016 7.69976 18.1215 5.70689 22.5064 5.15598C23.8764 4.98387 25 3.88071 25 2.5Z" fill="#9D71C6"/>
</svg>
