<svg width="50" height="50" viewBox="0 0 50 50" fill="none" xmlns="http://www.w3.org/2000/svg">
<path d="M25 2.5C25 1.11929 23.8779 -0.0129536 22.5041 0.124887C18.4414 0.532511 14.5268 1.93076 11.1107 4.21326C6.99952 6.96029 3.7952 10.8648 1.90301 15.4329C0.0108209 20.0011 -0.484263 25.0277 0.480368 29.8773C1.445 34.7268 3.82602 39.1814 7.32233 42.6777C10.8186 46.174 15.2732 48.555 20.1227 49.5196C24.9723 50.4843 29.9989 49.9892 34.5671 48.097C39.1352 46.2048 43.0397 43.0005 45.7867 38.8893C48.0692 35.4732 49.4675 31.5586 49.8751 27.4959C50.013 26.1221 48.8807 25 47.5 25C46.1193 25 45.0161 26.1236 44.844 27.4936C44.4579 30.5656 43.3622 33.5181 41.6294 36.1114C39.4318 39.4004 36.3082 41.9638 32.6537 43.4776C28.9991 44.9913 24.9778 45.3874 21.0982 44.6157C17.2186 43.844 13.6549 41.9392 10.8579 39.1421C8.06081 36.3451 6.156 32.7814 5.38429 28.9018C4.61259 25.0222 5.00866 21.0009 6.52241 17.3463C8.03616 13.6918 10.5996 10.5682 13.8886 8.37061C16.4819 6.63783 19.4344 5.54207 22.5064 5.15604C23.8764 4.9839 25 3.88071 25 2.5Z" fill="#9D71C6"/>
</svg>
