<svg width="18" height="18" viewBox="0 0 18 18" fill="none" xmlns="http://www.w3.org/2000/svg">
<path d="M10.125 16.3125H7.87502C7.72583 16.3125 7.58276 16.3718 7.47727 16.4773C7.37178 16.5828 7.31252 16.7258 7.31252 16.875C7.31252 17.0242 7.37178 17.1673 7.47727 17.2728C7.58276 17.3783 7.72583 17.4375 7.87502 17.4375H10.125C10.2742 17.4375 10.4173 17.3783 10.5228 17.2728C10.6283 17.1673 10.6875 17.0242 10.6875 16.875C10.6875 16.7258 10.6283 16.5828 10.5228 16.4773C10.4173 16.3718 10.2742 16.3125 10.125 16.3125ZM10.6875 14.625H7.31252C7.16333 14.625 7.02026 14.6843 6.91477 14.7898C6.80928 14.8953 6.75002 15.0383 6.75002 15.1875C6.75002 15.3367 6.80928 15.4798 6.91477 15.5853C7.02026 15.6908 7.16333 15.75 7.31252 15.75H10.6875C10.8367 15.75 10.9798 15.6908 11.0853 15.5853C11.1908 15.4798 11.25 15.3367 11.25 15.1875C11.25 15.0383 11.1908 14.8953 11.0853 14.7898C10.9798 14.6843 10.8367 14.625 10.6875 14.625ZM12.9874 2.20396C11.9303 1.14541 10.5142 0.562516 9.00002 0.562516C8.26084 0.560754 7.52859 0.705046 6.84534 0.987105C6.16209 1.26916 5.54129 1.68343 5.01861 2.20611C4.49593 2.72879 4.08166 3.34959 3.79961 4.03284C3.51755 4.71609 3.37325 5.44834 3.37502 6.18752C3.37502 7.8265 4.00326 9.35966 5.09767 10.3936L5.25095 10.5374C5.88412 11.1294 6.75002 11.9405 6.75002 12.6563V13.5C6.75002 13.6492 6.80928 13.7923 6.91477 13.8978C7.02026 14.0033 7.16333 14.0625 7.31252 14.0625H8.15627C8.23086 14.0625 8.3024 14.0329 8.35514 13.9801C8.40789 13.9274 8.43752 13.8559 8.43752 13.7813V9.66166C8.43753 9.60478 8.42031 9.54923 8.38811 9.50235C8.35591 9.45547 8.31026 9.41944 8.25716 9.39904C7.93235 9.26653 7.62378 9.09727 7.33748 8.89455C7.27314 8.85346 7.21784 8.79971 7.17494 8.73657C7.13204 8.67342 7.10244 8.60221 7.08795 8.52726C7.07345 8.45231 7.07437 8.37519 7.09064 8.30061C7.1069 8.22602 7.13818 8.15553 7.18256 8.09342C7.22695 8.03131 7.28351 7.97888 7.3488 7.93934C7.4141 7.89979 7.48676 7.87394 7.56237 7.86338C7.63797 7.85281 7.71493 7.85775 7.78857 7.87788C7.8622 7.89801 7.93097 7.93292 7.99068 7.98048C8.25084 8.1647 8.75181 8.43752 9.00002 8.43752C9.24822 8.43752 9.7492 8.164 10.0101 7.98048C10.1315 7.90412 10.2776 7.87706 10.4183 7.90483C10.5591 7.9326 10.6839 8.01311 10.7673 8.12988C10.8506 8.24665 10.8862 8.39086 10.8667 8.533C10.8473 8.67515 10.7742 8.80448 10.6626 8.89455C10.3762 9.0969 10.0676 9.26581 9.74287 9.39799C9.68978 9.41839 9.64412 9.45441 9.61192 9.5013C9.57972 9.54818 9.5625 9.60373 9.56252 9.6606V13.7813C9.56252 13.8559 9.59215 13.9274 9.64489 13.9801C9.69764 14.0329 9.76917 14.0625 9.84377 14.0625H10.6875C10.8367 14.0625 10.9798 14.0033 11.0853 13.8978C11.1908 13.7923 11.25 13.6492 11.25 13.5V12.6563C11.25 11.9574 12.1064 11.147 12.7319 10.555L12.9045 10.3911C14.0302 9.31642 14.625 7.86131 14.625 6.18752C14.6287 5.44827 14.4859 4.71561 14.2049 4.03186C13.9238 3.34812 13.51 2.72686 12.9874 2.20396Z" fill="white"/>
</svg>
