<svg width="83" height="30" viewBox="0 0 83 30" fill="none" xmlns="http://www.w3.org/2000/svg">
<path d="M17.0183 25.9102L19.1183 15.4102H23.3633C24.6733 15.4102 25.6833 15.7002 26.3933 16.2802C27.1133 16.8502 27.4733 17.6502 27.4733 18.6802C27.4733 19.5602 27.2683 20.3302 26.8583 20.9902C26.4483 21.6402 25.8583 22.1402 25.0883 22.4902C24.3283 22.8402 23.4233 23.0152 22.3733 23.0152H18.9683L20.2583 21.9052L19.4633 25.9102H17.0183ZM20.1983 22.1902L19.3433 21.0352H22.4783C23.2783 21.0352 23.8983 20.8552 24.3383 20.4952C24.7883 20.1252 25.0133 19.5902 25.0133 18.8902C25.0133 18.3802 24.8433 18.0052 24.5033 17.7652C24.1633 17.5152 23.6833 17.3902 23.0633 17.3902H20.1083L21.3983 16.2052L20.1983 22.1902ZM27.6934 25.9102L29.2984 17.8402H31.5184L31.0534 20.1352L30.8434 19.4752C31.2034 18.8252 31.6734 18.3702 32.2534 18.1102C32.8334 17.8502 33.5284 17.7202 34.3384 17.7202L33.9184 19.8802C33.8184 19.8702 33.7234 19.8652 33.6334 19.8652C33.5534 19.8552 33.4684 19.8502 33.3784 19.8502C32.6884 19.8502 32.1234 20.0202 31.6834 20.3602C31.2534 20.7002 30.9634 21.2502 30.8134 22.0102L30.0334 25.9102H27.6934ZM38.2512 26.0302C37.4312 26.0302 36.7162 25.8802 36.1062 25.5802C35.4962 25.2802 35.0212 24.8602 34.6812 24.3202C34.3512 23.7802 34.1862 23.1452 34.1862 22.4152C34.1862 21.5152 34.3962 20.7152 34.8162 20.0152C35.2362 19.3052 35.8112 18.7452 36.5412 18.3352C37.2812 17.9252 38.1212 17.7202 39.0612 17.7202C39.8912 17.7202 40.6062 17.8702 41.2062 18.1702C41.8162 18.4702 42.2862 18.8902 42.6162 19.4302C42.9562 19.9602 43.1262 20.5952 43.1262 21.3352C43.1262 22.2252 42.9162 23.0252 42.4962 23.7352C42.0762 24.4452 41.5012 25.0052 40.7712 25.4152C40.0412 25.8252 39.2012 26.0302 38.2512 26.0302ZM38.4012 24.1102C38.8612 24.1102 39.2662 24.0002 39.6162 23.7802C39.9762 23.5502 40.2562 23.2352 40.4562 22.8352C40.6562 22.4352 40.7562 21.9702 40.7562 21.4402C40.7562 20.9002 40.5962 20.4652 40.2762 20.1352C39.9562 19.8052 39.5062 19.6402 38.9262 19.6402C38.4662 19.6402 38.0562 19.7552 37.6962 19.9852C37.3462 20.2052 37.0662 20.5152 36.8562 20.9152C36.6562 21.3152 36.5562 21.7802 36.5562 22.3102C36.5562 22.8602 36.7162 23.3002 37.0362 23.6302C37.3562 23.9502 37.8112 24.1102 38.4012 24.1102ZM49.0107 26.0302C48.3607 26.0302 47.7907 25.9052 47.3007 25.6552C46.8207 25.4052 46.4607 25.0202 46.2207 24.5002C45.9807 23.9702 45.8957 23.2902 45.9657 22.4602C46.0257 21.5002 46.2207 20.6652 46.5507 19.9552C46.8907 19.2452 47.3507 18.6952 47.9307 18.3052C48.5107 17.9152 49.1957 17.7202 49.9857 17.7202C50.6157 17.7202 51.1957 17.8652 51.7257 18.1552C52.2557 18.4352 52.6807 18.8452 53.0007 19.3852C53.3207 19.9152 53.4807 20.5652 53.4807 21.3352C53.4807 22.0052 53.3657 22.6302 53.1357 23.2102C52.9057 23.7802 52.5857 24.2752 52.1757 24.6952C51.7757 25.1152 51.3057 25.4452 50.7657 25.6852C50.2257 25.9152 49.6407 26.0302 49.0107 26.0302ZM43.2657 28.8202L45.4557 17.8402H47.6757L47.3457 19.4452L46.8357 21.8452L46.5207 24.2452L45.6057 28.8202H43.2657ZM48.7407 24.0952C49.2107 24.0952 49.6207 23.9852 49.9707 23.7652C50.3207 23.5352 50.5957 23.2252 50.7957 22.8352C51.0057 22.4352 51.1107 21.9702 51.1107 21.4402C51.1107 20.8902 50.9507 20.4552 50.6307 20.1352C50.3107 19.8152 49.8557 19.6552 49.2657 19.6552C48.8157 19.6552 48.4107 19.7702 48.0507 20.0002C47.6907 20.2202 47.4107 20.5302 47.2107 20.9302C47.0107 21.3202 46.9107 21.7802 46.9107 22.3102C46.9107 22.8602 47.0707 23.2952 47.3907 23.6152C47.7107 23.9352 48.1607 24.0952 48.7407 24.0952ZM54.2071 25.9102L55.8121 17.8402H58.1371L56.5321 25.9102H54.2071ZM57.3721 16.7152C56.9621 16.7152 56.6321 16.6002 56.3821 16.3702C56.1321 16.1302 56.0071 15.8402 56.0071 15.5002C56.0071 15.1002 56.1471 14.7702 56.4271 14.5102C56.7171 14.2402 57.0921 14.1052 57.5521 14.1052C57.9621 14.1052 58.2921 14.2202 58.5421 14.4502C58.8021 14.6702 58.9321 14.9452 58.9321 15.2752C58.9321 15.7052 58.7871 16.0552 58.4971 16.3252C58.2171 16.5852 57.8421 16.7152 57.3721 16.7152Z" fill="#5D14AD"/>
<path d="M62.2592 20.1352H67.3142L66.9092 22.0852H61.8692L62.2592 20.1352ZM61.2992 25.9102H58.8542L60.9542 15.4102H68.8892L68.4842 17.3602H62.9942L61.2992 25.9102ZM68.2843 25.9102L69.8893 17.8402H72.2143L70.6093 25.9102H68.2843ZM71.4493 16.7152C71.0393 16.7152 70.7093 16.6002 70.4593 16.3702C70.2093 16.1302 70.0843 15.8402 70.0843 15.5002C70.0843 15.1002 70.2243 14.7702 70.5043 14.5102C70.7943 14.2402 71.1693 14.1052 71.6293 14.1052C72.0393 14.1052 72.3693 14.2202 72.6193 14.4502C72.8793 14.6702 73.0093 14.9452 73.0093 15.2752C73.0093 15.7052 72.8643 16.0552 72.5743 16.3252C72.2943 16.5852 71.9193 16.7152 71.4493 16.7152ZM71.7013 25.9102L76.3513 21.1402L76.0513 22.3252L73.5913 17.8402H76.0213L77.7013 20.9452L76.6213 20.9302L79.5463 17.8402H82.1263L77.6863 22.4602L77.8813 21.2152L80.4913 25.9102H78.0163L76.2913 22.7002H77.3863L74.3713 25.9102H71.7013Z" fill="#9D71C6"/>
<path d="M21.1196 0H25.2374L13.799 12.6186H9.68111L21.1196 0Z" fill="#9D71C6"/>
<path d="M25.7054 0.104114L23.2513 2.81107L31.8821 12.6186H36L25.7054 0.104114Z" fill="#9D71C6"/>
<path d="M11.4385 0H15.5563L4.11785 12.6186H0L11.4385 0Z" fill="#9D71C6"/>
<path d="M16.3778 0H20.4957L4.4818 17.1996H0.363951L16.3778 0Z" fill="#5D14AD"/>
</svg>
