<svg width="40" height="40" viewBox="0 0 40 40" fill="none" xmlns="http://www.w3.org/2000/svg">
<path d="M38.2198 23.2078C39.0356 23.3515 39.5862 24.1314 39.3818 24.9342C38.2714 29.2964 35.7164 33.1727 32.111 35.9161C28.1064 38.9634 23.1002 40.389 18.0909 39.9087C13.0817 39.4283 8.43763 37.0773 5.08503 33.3246C1.73243 29.5718 -0.0822754 24.6931 0.00286102 19.6616C0.0880013 14.6301 2.06673 9.81565 5.54438 6.17846C9.02203 2.54127 13.743 0.34872 18.7656 0.0381303C23.7882 -0.272459 28.7433 1.32174 32.6426 4.50275C36.1531 7.36661 38.5755 11.3271 39.5377 15.7244C39.7147 16.5337 39.1381 17.2945 38.3179 17.4104C37.4976 17.5264 36.7452 16.9531 36.5575 16.1462C35.7081 12.4964 33.6716 9.21388 30.7462 6.82734C27.4318 4.12348 23.22 2.76841 18.9508 3.03241C14.6815 3.29641 10.6687 5.16008 7.71272 8.25169C4.75672 11.3433 3.0748 15.4356 3.00243 19.7124C2.93007 23.9891 4.47257 28.136 7.32228 31.3259C10.172 34.5157 14.1194 36.5141 18.3773 36.9224C22.6351 37.3307 26.8904 36.1189 30.2944 33.5287C33.2989 31.2425 35.4452 28.0308 36.4176 24.4117C36.6326 23.6117 37.4039 23.0642 38.2198 23.2078Z" fill="white"/>
<path d="M38.2198 23.2078C39.0356 23.3515 39.5862 24.1314 39.3818 24.9342C38.2714 29.2964 35.7164 33.1727 32.111 35.9161C28.1064 38.9634 23.1002 40.389 18.0909 39.9087C13.0817 39.4283 8.43763 37.0773 5.08503 33.3246C1.73243 29.5718 -0.0822754 24.6931 0.00286102 19.6616C0.0880013 14.6301 2.06673 9.81565 5.54438 6.17846C9.02203 2.54127 13.743 0.34872 18.7656 0.0381303C23.7882 -0.272459 28.7433 1.32174 32.6426 4.50275C36.1531 7.36661 38.5755 11.3271 39.5377 15.7244C39.7147 16.5337 39.1381 17.2945 38.3179 17.4104C37.4976 17.5264 36.7452 16.9531 36.5575 16.1462C35.7081 12.4964 33.6716 9.21388 30.7462 6.82734C27.4318 4.12348 23.22 2.76841 18.9508 3.03241C14.6815 3.29641 10.6687 5.16008 7.71272 8.25169C4.75672 11.3433 3.0748 15.4356 3.00243 19.7124C2.93007 23.9891 4.47257 28.136 7.32228 31.3259C10.172 34.5157 14.1194 36.5141 18.3773 36.9224C22.6351 37.3307 26.8904 36.1189 30.2944 33.5287C33.2989 31.2425 35.4452 28.0308 36.4176 24.4117C36.6326 23.6117 37.4039 23.0642 38.2198 23.2078Z" fill="white" fill-opacity="0.2"/>
</svg>
