<svg width="40" height="40" viewBox="0 0 40 40" fill="none" xmlns="http://www.w3.org/2000/svg">
<path d="M1.78024 23.2078C0.96436 23.3515 0.413817 24.1314 0.618174 24.9342C1.72855 29.2964 4.28356 33.1727 7.88895 35.9161C11.8936 38.9634 16.8998 40.389 21.9091 39.9087C26.9183 39.4283 31.5624 37.0773 34.915 33.3246C38.2676 29.5718 40.0823 24.6931 39.9971 19.6616C39.912 14.6301 37.9333 9.81565 34.4556 6.17846C30.978 2.54127 26.257 0.34872 21.2344 0.0381303C16.2118 -0.272459 11.2567 1.32174 7.3574 4.50275C3.84689 7.36661 1.42449 11.3271 0.462332 15.7244C0.285255 16.5337 0.861867 17.2945 1.68214 17.4104C2.50241 17.5264 3.25476 16.9531 3.44253 16.1462C4.29194 12.4964 6.32838 9.21388 9.25379 6.82734C12.5682 4.12348 16.78 2.76841 21.0492 3.03241C25.3185 3.29641 29.3313 5.16008 32.2873 8.25169C35.2433 11.3433 36.9252 15.4356 36.9976 19.7124C37.0699 23.9891 35.5274 28.136 32.6777 31.3259C29.828 34.5157 25.8806 36.5141 21.6227 36.9224C17.3649 37.3307 13.1096 36.1189 9.70561 33.5287C6.70113 31.2425 4.5548 28.0308 3.5824 24.4117C3.36743 23.6117 2.59612 23.0642 1.78024 23.2078Z" fill="white"/>
<path d="M1.78024 23.2078C0.96436 23.3515 0.413817 24.1314 0.618174 24.9342C1.72855 29.2964 4.28356 33.1727 7.88895 35.9161C11.8936 38.9634 16.8998 40.389 21.9091 39.9087C26.9183 39.4283 31.5624 37.0773 34.915 33.3246C38.2676 29.5718 40.0823 24.6931 39.9971 19.6616C39.912 14.6301 37.9333 9.81565 34.4556 6.17846C30.978 2.54127 26.257 0.34872 21.2344 0.0381303C16.2118 -0.272459 11.2567 1.32174 7.3574 4.50275C3.84689 7.36661 1.42449 11.3271 0.462332 15.7244C0.285255 16.5337 0.861867 17.2945 1.68214 17.4104C2.50241 17.5264 3.25476 16.9531 3.44253 16.1462C4.29194 12.4964 6.32838 9.21388 9.25379 6.82734C12.5682 4.12348 16.78 2.76841 21.0492 3.03241C25.3185 3.29641 29.3313 5.16008 32.2873 8.25169C35.2433 11.3433 36.9252 15.4356 36.9976 19.7124C37.0699 23.9891 35.5274 28.136 32.6777 31.3259C29.828 34.5157 25.8806 36.5141 21.6227 36.9224C17.3649 37.3307 13.1096 36.1189 9.70561 33.5287C6.70113 31.2425 4.5548 28.0308 3.5824 24.4117C3.36743 23.6117 2.59612 23.0642 1.78024 23.2078Z" fill="white" fill-opacity="0.2"/>
</svg>
