<svg width="40" height="40" viewBox="0 0 40 40" fill="none" xmlns="http://www.w3.org/2000/svg">
<g id="ic:round-verified">
<path id="Vector" d="M38.3333 20L34.2666 15.35L34.8333 9.2L28.8166 7.83333L25.6666 2.5L20 4.93333L14.3333 2.5L11.1833 7.81667L5.16663 9.16667L5.73329 15.3333L1.66663 20L5.73329 24.65L5.16663 30.8167L11.1833 32.1833L14.3333 37.5L20 35.05L25.6666 37.4833L28.8166 32.1667L34.8333 30.8L34.2666 24.65L38.3333 20ZM15.6333 26.6833L11.6666 22.6833C11.5121 22.5291 11.3895 22.346 11.3059 22.1444C11.2223 21.9428 11.1792 21.7266 11.1792 21.5083C11.1792 21.2901 11.2223 21.0739 11.3059 20.8723C11.3895 20.6707 11.5121 20.4875 11.6666 20.3333L11.7833 20.2167C12.4333 19.5667 13.5 19.5667 14.15 20.2167L16.8333 22.9167L25.4166 14.3167C26.0666 13.6667 27.1333 13.6667 27.7833 14.3167L27.9 14.4333C28.55 15.0833 28.55 16.1333 27.9 16.7833L18.0333 26.6833C17.35 27.3333 16.3 27.3333 15.6333 26.6833Z" fill="black"/>
</g>
</svg>
