<svg xmlns="http://www.w3.org/2000/svg" width="16" height="16" viewBox="0 0 16 16" fill="none">
  <path d="M8.66572 1.51855C9.39489 1.5205 9.76498 1.52439 10.0845 1.53346L10.2103 1.538C10.3554 1.54318 10.4987 1.54967 10.6717 1.55744C11.3614 1.58985 11.8319 1.69874 12.2448 1.85883C12.6726 2.02346 13.0329 2.24643 13.3933 2.60615C13.723 2.93005 13.9781 3.32201 14.1406 3.75467C14.3007 4.16754 14.4096 4.63809 14.442 5.32837C14.4498 5.50078 14.4563 5.64402 14.4615 5.78985L14.4654 5.91559C14.4751 6.23448 14.479 6.60457 14.4803 7.33374L14.4809 7.81726V8.66633C14.4825 9.13909 14.4775 9.61186 14.466 10.0845L14.4621 10.2102C14.4569 10.3561 14.4504 10.4993 14.4427 10.6717C14.4103 11.362 14.3001 11.8319 14.1406 12.2454C13.9781 12.6781 13.723 13.07 13.3933 13.3939C13.0694 13.7236 12.6775 13.9787 12.2448 14.1412C11.8319 14.3013 11.3614 14.4102 10.6717 14.4426L10.2103 14.4621L10.0845 14.466C9.76498 14.475 9.39489 14.4796 8.66572 14.4809L8.18221 14.4815H7.33378C6.8608 14.4832 6.38782 14.4782 5.91498 14.4666L5.78924 14.4627C5.63538 14.4569 5.48155 14.4502 5.32776 14.4426C4.63813 14.4102 4.16758 14.3013 3.75406 14.1412C3.32163 13.9786 2.9299 13.7236 2.60619 13.3939C2.27624 13.0701 2.02098 12.6781 1.85822 12.2454C1.69813 11.8325 1.58924 11.362 1.55684 10.6717L1.53739 10.2102L1.53415 10.0845C1.5222 9.61186 1.5168 9.1391 1.51795 8.66633V7.33374C1.51615 6.86098 1.52091 6.38822 1.53221 5.91559L1.53674 5.78985C1.54193 5.64402 1.54841 5.50078 1.55619 5.32837C1.58859 4.63809 1.69748 4.16818 1.85758 3.75467C2.02071 3.32183 2.27642 2.92986 2.60684 2.60615C2.93036 2.2766 3.32186 2.02157 3.75406 1.85883C4.16758 1.69874 4.63748 1.58985 5.32776 1.55744C5.50017 1.54967 5.64406 1.54318 5.78924 1.538L5.91498 1.53411C6.38761 1.52259 6.86037 1.51762 7.33313 1.5192L8.66572 1.51855ZM7.99943 4.7593C7.13993 4.7593 6.31564 5.10073 5.70788 5.70849C5.10012 6.31624 4.75869 7.14054 4.75869 8.00004C4.75869 8.85953 5.10012 9.68383 5.70788 10.2916C6.31564 10.8993 7.13993 11.2408 7.99943 11.2408C8.85893 11.2408 9.68322 10.8993 10.291 10.2916C10.8987 9.68383 11.2402 8.85953 11.2402 8.00004C11.2402 7.14054 10.8987 6.31624 10.291 5.70849C9.68322 5.10073 8.85893 4.7593 7.99943 4.7593ZM7.99943 6.05559C8.25478 6.05555 8.50763 6.1058 8.74356 6.20348C8.97949 6.30116 9.19386 6.44435 9.37445 6.62488C9.55504 6.80541 9.6983 7.01974 9.79606 7.25563C9.89382 7.49152 9.94415 7.74436 9.9442 7.99971C9.94424 8.25506 9.89399 8.50792 9.79631 8.74384C9.69863 8.97977 9.55544 9.19415 9.37491 9.37474C9.19438 9.55533 8.98005 9.69859 8.74416 9.79634C8.50826 9.8941 8.25542 9.94444 8.00008 9.94448C7.48438 9.94448 6.9898 9.73962 6.62515 9.37497C6.26049 9.01031 6.05563 8.51573 6.05563 8.00004C6.05563 7.48434 6.26049 6.98976 6.62515 6.62511C6.9898 6.26045 7.48438 6.05559 8.00008 6.05559M11.4029 3.78707C11.188 3.78707 10.9819 3.87243 10.83 4.02437C10.678 4.17631 10.5927 4.38238 10.5927 4.59726C10.5927 4.81213 10.678 5.01821 10.83 5.17015C10.9819 5.32208 11.188 5.40744 11.4029 5.40744C11.6177 5.40744 11.8238 5.32208 11.9757 5.17015C12.1277 5.01821 12.213 4.81213 12.213 4.59726C12.213 4.38238 12.1277 4.17631 11.9757 4.02437C11.8238 3.87243 11.6177 3.78707 11.4029 3.78707Z" fill="url(#paint0_linear_94_20759)"/>
  <defs>
    <linearGradient id="paint0_linear_94_20759" x1="7.99939" y1="1.51855" x2="7.99939" y2="14.4818" gradientUnits="userSpaceOnUse">
      <stop stop-color="#9747FF"/>
      <stop offset="1" stop-color="#5D14AD"/>
    </linearGradient>
  </defs>
</svg>