<svg width="40" height="40" viewBox="0 0 40 40" fill="none" xmlns="http://www.w3.org/2000/svg">
<path d="M3.0003 22.993C1.5106 23.2553 0.49757 24.6846 0.960757 26.1245C2.20723 29.9995 4.61504 33.4249 7.88895 35.9161C11.8936 38.9634 16.8998 40.389 21.9091 39.9087C26.9183 39.4283 31.5624 37.0773 34.915 33.3246C38.2676 29.5718 40.0823 24.6931 39.9971 19.6616C39.912 14.6301 37.9333 9.81565 34.4556 6.17846C30.978 2.54127 26.257 0.34872 21.2344 0.0381303C16.2118 -0.272459 11.2567 1.32174 7.3574 4.50275C4.16964 7.10332 1.87911 10.6082 0.764448 14.5231C0.350243 15.9779 1.41105 17.3721 2.90877 17.5838C5.99611 18.0203 6.0711 22.4524 3.0003 22.993Z" fill="url(#paint0_linear_3903_6703)"/>
<path d="M22.25 14L16.25 20L22.25 26" stroke="white" stroke-width="2.84211" stroke-linecap="round" stroke-linejoin="round"/>
<defs>
<linearGradient id="paint0_linear_3903_6703" x1="0" y1="0" x2="40" y2="40" gradientUnits="userSpaceOnUse">
<stop stop-color="#9747FF"/>
<stop offset="1" stop-color="#5D14AD"/>
</linearGradient>
</defs>
</svg>
