<svg width="56" height="56" viewBox="0 0 56 56" fill="none" xmlns="http://www.w3.org/2000/svg">
<rect width="56.0004" height="55.9999" rx="27.9999" fill="url(#paint0_radial_3824_18646)" fill-opacity="0.5"/>
<rect width="56.0004" height="55.9999" rx="27.9999" fill="url(#paint1_radial_3824_18646)" fill-opacity="0.8"/>
<rect x="0.5" y="0.5" width="55.0004" height="54.9999" rx="27.4999" stroke="white" stroke-opacity="0.24"/>
<g filter="url(#filter0_d_3824_18646)">
<path fill-rule="evenodd" clip-rule="evenodd" d="M23.6044 18.8451C24.4109 23.1325 28.001 27.9999 28.001 27.9999C28.001 27.9999 31.9831 22.6012 32.5017 18.167C32.5753 17.8098 32.6142 17.4383 32.6142 17.057C32.6142 14.2641 30.5303 12 27.9596 12C25.389 12 23.3051 14.2641 23.3051 17.057C23.3051 17.6865 23.411 18.2892 23.6044 18.8451ZM27.9952 28.0076C27.4872 27.642 22.9163 24.4144 18.8628 23.656C18.3054 23.4631 17.7012 23.3575 17.0701 23.3575C14.27 23.3575 12 25.436 12 28C12 30.564 14.27 32.6425 17.0701 32.6425C17.4521 32.6425 17.8242 32.6038 18.182 32.5305C22.1976 32.0639 27.0028 28.778 27.8954 28.1463C27.2613 29.0377 23.9661 33.832 23.4997 37.8373C23.4266 38.1931 23.3881 38.5631 23.3881 38.9429C23.3881 41.7358 25.472 43.9999 28.0427 43.9999C30.6133 43.9999 32.6972 41.7358 32.6972 38.9429C32.6972 38.3124 32.591 37.7089 32.397 37.1523C31.6726 33.306 28.709 28.9937 28.1076 28.1481C29.007 28.7844 33.8067 32.0643 37.8184 32.5305C38.1762 32.6038 38.5483 32.6425 38.9303 32.6425C41.7305 32.6425 44.0004 30.564 44.0004 28C44.0004 25.436 41.7305 23.3575 38.9303 23.3575C38.2992 23.3575 37.695 23.4631 37.1377 23.656C33.0864 24.414 28.5183 27.6384 28.0061 28.007C28.0026 28.0023 28.0009 27.9999 28.0009 27.9999C28.0009 27.9999 27.999 28.0025 27.9952 28.0076Z" fill="url(#paint2_radial_3824_18646)"/>
</g>
<defs>
<filter id="filter0_d_3824_18646" x="6" y="10" width="44.0005" height="44" filterUnits="userSpaceOnUse" color-interpolation-filters="sRGB">
<feFlood flood-opacity="0" result="BackgroundImageFix"/>
<feColorMatrix in="SourceAlpha" type="matrix" values="0 0 0 0 0 0 0 0 0 0 0 0 0 0 0 0 0 0 127 0" result="hardAlpha"/>
<feOffset dy="4"/>
<feGaussianBlur stdDeviation="3"/>
<feComposite in2="hardAlpha" operator="out"/>
<feColorMatrix type="matrix" values="0 0 0 0 0 0 0 0 0 0 0 0 0 0 0 0 0 0 0.1 0"/>
<feBlend mode="normal" in2="BackgroundImageFix" result="effect1_dropShadow_3824_18646"/>
<feBlend mode="normal" in="SourceGraphic" in2="effect1_dropShadow_3824_18646" result="shape"/>
</filter>
<radialGradient id="paint0_radial_3824_18646" cx="0" cy="0" r="1" gradientUnits="userSpaceOnUse" gradientTransform="translate(28.0002 17.0625) rotate(-90) scale(28.4374 37.4665)">
<stop stop-color="#F3F3F7" stop-opacity="0"/>
<stop offset="1" stop-color="white" stop-opacity="0.3"/>
</radialGradient>
<radialGradient id="paint1_radial_3824_18646" cx="0" cy="0" r="1" gradientUnits="userSpaceOnUse" gradientTransform="translate(28.0002 17.5) rotate(-90) scale(28.8749 38.0429)">
<stop stop-color="#F3F3F7" stop-opacity="0"/>
<stop offset="1" stop-color="white" stop-opacity="0.3"/>
</radialGradient>
<radialGradient id="paint2_radial_3824_18646" cx="0" cy="0" r="1" gradientUnits="userSpaceOnUse" gradientTransform="translate(28.0002 27.9999) rotate(90) scale(53.6613 53.6623)">
<stop stop-color="white"/>
<stop offset="1" stop-color="white"/>
</radialGradient>
</defs>
</svg>
