<svg width="40" height="40" viewBox="0 0 40 40" fill="none" xmlns="http://www.w3.org/2000/svg">
<path d="M36.9997 22.993C38.4894 23.2553 39.5024 24.6846 39.0392 26.1245C37.7928 29.9995 35.385 33.4249 32.111 35.9161C28.1064 38.9634 23.1002 40.389 18.0909 39.9087C13.0817 39.4283 8.43763 37.0773 5.08503 33.3246C1.73243 29.5718 -0.0822754 24.6931 0.00286102 19.6616C0.0880013 14.6301 2.06673 9.81565 5.54438 6.17846C9.02203 2.54127 13.743 0.34872 18.7656 0.0381303C23.7882 -0.272459 28.7433 1.32174 32.6426 4.50275C35.8304 7.10332 38.1209 10.6082 39.2356 14.5231C39.6498 15.9779 38.5889 17.3721 37.0912 17.5838C34.0039 18.0203 33.9289 22.4524 36.9997 22.993Z" fill="url(#paint0_linear_3903_6706)"/>
<path d="M17.75 14L23.75 20L17.75 26" stroke="white" stroke-width="2.84211" stroke-linecap="round" stroke-linejoin="round"/>
<defs>
<linearGradient id="paint0_linear_3903_6706" x1="40" y1="0" x2="0" y2="40" gradientUnits="userSpaceOnUse">
<stop stop-color="#9747FF"/>
<stop offset="1" stop-color="#5D14AD"/>
</linearGradient>
</defs>
</svg>
