<svg width="56" height="56" viewBox="0 0 56 56" fill="none" xmlns="http://www.w3.org/2000/svg">
<rect width="55.9999" height="56" rx="27.9999" fill="url(#paint0_radial_4002_20129)"/>
<g filter="url(#filter0_d_4002_20129)">
<path fill-rule="evenodd" clip-rule="evenodd" d="M28.2519 27.8069C28.2519 27.8069 29.0215 22.2557 31.2609 18.8859C31.4924 18.3913 31.8122 17.9223 32.2198 17.5037C34.0269 15.6476 36.8732 15.4878 38.5772 17.1469C40.2811 18.8059 40.1975 21.6554 38.3903 23.5115C38.144 23.7645 37.8784 23.986 37.599 24.1757C34.3865 26.7887 28.2519 27.8069 28.2519 27.8069ZM27.7628 28.2467C27.7628 28.2467 22.234 29.1644 18.9253 31.493C18.4371 31.7376 17.9768 32.0699 17.5693 32.4884C15.7622 34.3445 15.6785 37.1941 17.3825 38.8531C19.0864 40.5122 21.9327 40.3524 23.7399 38.4963C23.9863 38.2432 24.2006 37.9717 24.3828 37.6873C26.9088 34.406 27.7628 28.2467 27.7628 28.2467ZM18.8853 24.7751C22.255 27.0147 27.8068 27.7844 27.8068 27.7844C27.8068 27.7844 26.7888 21.6515 24.1766 18.4386C23.9867 18.1587 23.765 17.8926 23.5115 17.6459C21.6554 15.8388 18.8059 15.7551 17.1469 17.4591C15.4878 19.163 15.6476 22.0094 17.5037 23.8165C17.9221 24.2239 18.3909 24.5436 18.8853 24.7751ZM28.1927 28.2518C28.1927 28.2518 33.7435 29.0214 37.1134 31.2605C37.6081 31.4921 38.0774 31.812 38.4962 32.2197C40.3523 34.0269 40.512 36.8732 38.853 38.5771C37.194 40.2811 34.3444 40.1975 32.4883 38.3903C32.2357 38.1444 32.0146 37.8792 31.8251 37.6003C29.2113 34.3882 28.1927 28.2518 28.1927 28.2518Z" fill="url(#paint1_radial_4002_20129)"/>
</g>
<ellipse cx="27.9843" cy="28.0239" rx="0.269132" ry="6.80519" fill="url(#paint2_radial_4002_20129)"/>
<ellipse cx="27.9458" cy="28.0238" rx="0.269132" ry="6.80519" transform="rotate(-90 27.9458 28.0238)" fill="url(#paint3_radial_4002_20129)"/>
<defs>
<filter id="filter0_d_4002_20129" x="10" y="14" width="35.9999" height="36" filterUnits="userSpaceOnUse" color-interpolation-filters="sRGB">
<feFlood flood-opacity="0" result="BackgroundImageFix"/>
<feColorMatrix in="SourceAlpha" type="matrix" values="0 0 0 0 0 0 0 0 0 0 0 0 0 0 0 0 0 0 127 0" result="hardAlpha"/>
<feOffset dy="4"/>
<feGaussianBlur stdDeviation="3"/>
<feComposite in2="hardAlpha" operator="out"/>
<feColorMatrix type="matrix" values="0 0 0 0 0 0 0 0 0 0 0 0 0 0 0 0 0 0 0.1 0"/>
<feBlend mode="normal" in2="BackgroundImageFix" result="effect1_dropShadow_4002_20129"/>
<feBlend mode="normal" in="SourceGraphic" in2="effect1_dropShadow_4002_20129" result="shape"/>
</filter>
<radialGradient id="paint0_radial_4002_20129" cx="0" cy="0" r="1" gradientUnits="userSpaceOnUse" gradientTransform="translate(27.9999 43.5) rotate(90) scale(33 32.9999)">
<stop stop-color="#9747FF" stop-opacity="0.6"/>
<stop offset="1" stop-color="#9747FF" stop-opacity="0.6"/>
</radialGradient>
<radialGradient id="paint1_radial_4002_20129" cx="0" cy="0" r="1" gradientUnits="userSpaceOnUse" gradientTransform="translate(27.9999 28) rotate(90) scale(40.2461 40.2459)">
<stop stop-color="white"/>
<stop offset="1" stop-color="#D1A5FD"/>
</radialGradient>
<radialGradient id="paint2_radial_4002_20129" cx="0" cy="0" r="1" gradientUnits="userSpaceOnUse" gradientTransform="translate(27.9843 28.0239) rotate(90) scale(6.80519 0.269132)">
<stop stop-color="white"/>
<stop offset="1" stop-color="white" stop-opacity="0"/>
</radialGradient>
<radialGradient id="paint3_radial_4002_20129" cx="0" cy="0" r="1" gradientUnits="userSpaceOnUse" gradientTransform="translate(27.9458 28.0238) rotate(90) scale(6.80519 0.269132)">
<stop stop-color="white"/>
<stop offset="1" stop-color="white" stop-opacity="0"/>
</radialGradient>
</defs>
</svg>
