<svg width="40" height="40" viewBox="0 0 40 40" fill="none" xmlns="http://www.w3.org/2000/svg">
<g id="teenyicons:search-property-solid" clip-path="url(#clip0_1_14320)">
<path id="Vector" d="M13.3334 21.3331V16.5518L17.3334 12.5518L21.3334 16.5518V21.3331H13.3334Z" fill="black"/>
<path id="Vector_2" fill-rule="evenodd" clip-rule="evenodd" d="M0 17.3336C0.000355519 14.5396 0.67611 11.7871 1.96969 9.31064C3.26327 6.83416 5.13633 4.70709 7.42929 3.11065C9.72225 1.51421 12.3671 0.495717 15.1386 0.141951C17.9101 -0.211816 20.726 0.109628 23.3465 1.0789C25.967 2.04816 28.3143 3.63653 30.1885 5.70865C32.0627 7.78078 33.4082 10.2753 34.1103 12.9796C34.8125 15.6839 34.8506 18.5178 34.2212 21.24C33.5919 23.9622 32.3139 26.4919 30.496 28.6136L39.6107 37.7229L37.7253 39.6082L28.6107 30.4962C26.0935 32.6528 23.0109 34.0423 19.7281 34.5003C16.4453 34.9582 13.1 34.4653 10.0888 33.08C7.07764 31.6946 4.52679 29.475 2.73865 26.6841C0.950514 23.8932 7.5569e-05 20.6482 0 17.3336ZM23.6107 15.0562L18.2773 9.72291C18.1535 9.59874 18.0063 9.50022 17.8444 9.43301C17.6824 9.36579 17.5087 9.33119 17.3333 9.33119C17.158 9.33119 16.9843 9.36579 16.8223 9.43301C16.6603 9.50022 16.5132 9.59874 16.3893 9.72291L11.056 15.0562C10.9323 15.1803 10.8342 15.3275 10.7674 15.4895C10.7006 15.6515 10.6664 15.825 10.6667 16.0002V22.6669C10.6667 23.0205 10.8071 23.3597 11.0572 23.6097C11.3072 23.8598 11.6464 24.0002 12 24.0002H22.6667C23.0203 24.0002 23.3594 23.8598 23.6095 23.6097C23.8595 23.3597 24 23.0205 24 22.6669V16.0002C24.0003 15.825 23.9661 15.6515 23.8993 15.4895C23.8325 15.3275 23.7344 15.1803 23.6107 15.0562Z" fill="black"/>
</g>
<defs>
<clipPath id="clip0_1_14320">
<rect width="40" height="40" fill="white"/>
</clipPath>
</defs>
</svg>
