<svg xmlns="http://www.w3.org/2000/svg" width="16" height="16" viewBox="0 0 16 16" fill="none">
  <path d="M12.5705 3.40329C11.976 2.803 11.268 2.32703 10.4877 2.00312C9.70745 1.67921 8.87051 1.51384 8.02568 1.51664C4.48578 1.51664 1.60069 4.40172 1.60069 7.94162C1.60069 9.0762 1.89893 10.1784 2.45649 11.1509L1.54883 14.4833L4.95258 13.5886C5.89266 14.1008 6.94944 14.3731 8.02568 14.3731C11.5656 14.3731 14.4507 11.488 14.4507 7.9481C14.4507 6.23002 13.7829 4.61567 12.5705 3.40329ZM8.02568 13.2839C7.06614 13.2839 6.12606 13.0246 5.30268 12.5383L5.10818 12.4216L3.08538 12.9532L3.62349 10.9823L3.49383 10.7813C2.9606 9.9301 2.67753 8.94607 2.67693 7.94162C2.67693 4.99819 5.07576 2.59935 8.0192 2.59935C9.44553 2.59935 10.7876 3.15692 11.7925 4.16832C12.2902 4.66356 12.6846 5.25269 12.9528 5.90153C13.221 6.55037 13.3577 7.24601 13.355 7.9481C13.3679 10.8915 10.9691 13.2839 8.02568 13.2839ZM10.9561 9.29015C10.7941 9.21235 10.0031 8.82335 9.86046 8.765C9.71134 8.71314 9.60761 8.6872 9.4974 8.8428C9.38718 9.00489 9.08246 9.36795 8.99169 9.47169C8.90093 9.5819 8.80368 9.59487 8.64159 9.51059C8.47951 9.43279 7.96084 9.25774 7.35141 8.71314C6.87164 8.28524 6.55396 7.76009 6.45671 7.598C6.36594 7.43592 6.44374 7.35164 6.52803 7.26735C6.59934 7.19604 6.69011 7.07934 6.76791 6.98857C6.84571 6.8978 6.87813 6.82649 6.93 6.72275C6.98186 6.61254 6.95593 6.52177 6.91703 6.44397C6.87813 6.36617 6.55396 5.5752 6.42429 5.25104C6.29463 4.93984 6.15848 4.97874 6.06123 4.97225H5.75003C5.63981 4.97225 5.47124 5.01115 5.32213 5.17324C5.17949 5.33532 4.76456 5.72432 4.76456 6.51529C4.76456 7.30625 5.34158 8.07129 5.41938 8.17502C5.49718 8.28524 6.55396 9.90607 8.16183 10.5998C8.54434 10.7684 8.84258 10.8656 9.07598 10.9369C9.4585 11.0601 9.8086 11.0407 10.0874 11.0018C10.3986 10.9564 11.0404 10.6128 11.1701 10.2367C11.3062 9.86069 11.3062 9.543 11.2609 9.47169C11.2155 9.40037 11.1182 9.36795 10.9561 9.29015Z" fill="url(#paint0_linear_94_20750)"/>
  <defs>
    <linearGradient id="paint0_linear_94_20750" x1="7.99975" y1="1.5166" x2="7.99975" y2="14.4833" gradientUnits="userSpaceOnUse">
      <stop stop-color="#9747FF"/>
      <stop offset="1" stop-color="#5D14AD"/>
    </linearGradient>
  </defs>
</svg>