<svg width="40" height="40" viewBox="0 0 40 40" fill="none" xmlns="http://www.w3.org/2000/svg">
<g id="heroicons:wrench-screwdriver-16-solid">
<path id="Vector" fill-rule="evenodd" clip-rule="evenodd" d="M37.5 11.2499C37.5002 12.4128 37.2686 13.564 36.8188 14.6363C36.3689 15.7087 35.7098 16.6806 34.88 17.4952C34.0502 18.3099 33.0664 18.951 31.9859 19.3811C30.9055 19.8111 29.7502 20.0215 28.5875 19.9999C26.1125 19.9524 23.355 20.3299 21.8375 22.2824L11.5125 35.5574C11.074 36.1214 10.5206 36.5857 9.88886 36.9195C9.25716 37.2533 8.5617 37.4488 7.84863 37.4932C7.13557 37.5376 6.42121 37.4299 5.75299 37.177C5.08477 36.9242 4.47797 36.5322 3.97287 36.0269C3.46777 35.5216 3.07592 34.9147 2.82335 34.2464C2.57077 33.5781 2.46324 32.8637 2.5079 32.1506C2.55255 31.4376 2.74837 30.7422 3.08236 30.1106C3.41634 29.479 3.88085 28.9257 4.44504 28.4874L17.7175 18.1624C19.6675 16.6449 20.0475 13.8874 20.0025 11.4124L20 11.2499C19.9996 9.89192 20.3152 8.55248 20.922 7.33759C21.5287 6.1227 22.4099 5.0657 23.4958 4.25026C24.5817 3.43482 25.8425 2.88331 27.1783 2.63939C28.5142 2.39546 29.8885 2.46582 31.1925 2.84489C32.005 3.07989 32.1675 4.08739 31.5675 4.68489L26.5 9.75489C26.2826 9.96622 26.1532 10.2521 26.1379 10.5549C26.1226 10.8578 26.2225 11.1552 26.4175 11.3874C27.0959 12.1741 27.8284 12.9066 28.615 13.5849C28.8472 13.78 29.1447 13.8799 29.4475 13.8646C29.7504 13.8493 30.0362 13.7199 30.2475 13.5024L35.315 8.43489C35.9125 7.83489 36.92 7.99739 37.155 8.80989C37.3817 9.58655 37.4967 10.3999 37.5 11.2499ZM9.37504 32.4999C9.37504 32.9972 9.1775 33.4741 8.82587 33.8257C8.47424 34.1773 7.99732 34.3749 7.50004 34.3749C7.00276 34.3749 6.52585 34.1773 6.17422 33.8257C5.82259 33.4741 5.62504 32.9972 5.62504 32.4999C5.62504 32.0026 5.82259 31.5257 6.17422 31.1741C6.52585 30.8224 7.00276 30.6249 7.50004 30.6249C7.99732 30.6249 8.47424 30.8224 8.82587 31.1741C9.1775 31.5257 9.37504 32.0026 9.37504 32.4999Z" fill="black"/>
<path id="Vector_2" d="M28.75 23.75C29.5333 23.75 30.2975 23.68 31.0425 23.54L35.9475 28.445C36.942 29.4395 37.5008 30.7885 37.5008 32.195C37.5008 33.6015 36.942 34.9504 35.9475 35.945C34.9529 36.9395 33.604 37.4983 32.1975 37.4983C30.791 37.4983 29.442 36.9395 28.4475 35.945L21.4225 28.92L24.7975 24.585C24.9225 24.425 25.1925 24.19 25.8625 24.0025C26.5575 23.8075 27.46 23.7275 28.5175 23.7475L28.75 23.75ZM12.5 9.99998L16.115 13.6125C16.0853 13.7895 16.046 13.9647 15.9975 14.1375C15.81 14.8075 15.575 15.08 15.415 15.205L13.89 16.39L9.99999 12.5H6.63999C6.52354 12.5 6.40941 12.4674 6.31046 12.406C6.21151 12.3446 6.13169 12.2568 6.07999 12.1525L2.70499 5.40248C2.64613 5.28499 2.62581 5.15194 2.6469 5.02223C2.66799 4.89253 2.72943 4.77277 2.82249 4.67998L4.68499 2.81748C4.77777 2.72443 4.89753 2.66299 5.02724 2.64189C5.15694 2.6208 5.28999 2.64113 5.40749 2.69998L12.1575 6.07498C12.2609 6.12738 12.3477 6.2075 12.4082 6.3064C12.4687 6.40529 12.5004 6.51906 12.5 6.63498V9.99998Z" fill="black"/>
</g>
</svg>
