<svg xmlns="http://www.w3.org/2000/svg" width="16" height="16" viewBox="0 0 16 16" fill="none">
  <g clip-path="url(#clip0_94_20767)">
    <path fill-rule="evenodd" clip-rule="evenodd" d="M7.77996 2.59326C8.33429 2.59326 8.90288 2.60753 9.45396 2.63087L10.1049 2.66199L10.7279 2.69894L11.3114 2.73849L11.8444 2.77998C12.4228 2.824 12.9671 3.07072 13.3815 3.47668C13.7959 3.88265 14.0538 4.42182 14.1096 4.99923L14.1356 5.27477L14.1842 5.86475C14.2296 6.47613 14.2633 7.14262 14.2633 7.77993C14.2633 8.41724 14.2296 9.08373 14.1842 9.69511L14.1356 10.2851L14.1096 10.5606C14.0537 11.1381 13.7958 11.6774 13.3813 12.0834C12.9668 12.4893 12.4223 12.736 11.8437 12.7799L11.3121 12.8207L10.7286 12.8609L10.1049 12.8979L9.45396 12.929C8.89628 12.9531 8.33816 12.9657 7.77996 12.9666C7.22176 12.9657 6.66364 12.9531 6.10597 12.929L5.45504 12.8979L4.83199 12.8609L4.24849 12.8207L3.71556 12.7799C3.13713 12.7359 2.59278 12.4891 2.17839 12.0832C1.76401 11.6772 1.50617 11.138 1.45029 10.5606L1.42435 10.2851L1.37573 9.69511C1.32635 9.05787 1.29996 8.41906 1.29663 7.77993C1.29663 7.14262 1.33034 6.47613 1.37573 5.86475L1.42435 5.27477L1.45029 4.99923C1.50614 4.42192 1.76389 3.88283 2.17815 3.47688C2.5924 3.07093 3.1366 2.82414 3.71491 2.77998L4.2472 2.73849L4.8307 2.69894L5.45439 2.66199L6.10532 2.63087C6.66321 2.6067 7.22155 2.59416 7.77996 2.59326ZM6.4833 6.20772V9.35214C6.4833 9.65167 6.80746 9.83839 7.0668 9.68927L9.7898 8.11706C9.84905 8.08295 9.89827 8.03383 9.93249 7.97464C9.96671 7.91546 9.98473 7.8483 9.98473 7.77993C9.98473 7.71156 9.96671 7.6444 9.93249 7.58521C9.89827 7.52602 9.84905 7.4769 9.7898 7.44279L7.0668 5.87123C7.00764 5.83708 6.94054 5.81911 6.87224 5.81912C6.80393 5.81913 6.73683 5.83713 6.67769 5.8713C6.61855 5.90547 6.56944 5.95461 6.53532 6.01378C6.5012 6.07295 6.48325 6.14006 6.4833 6.20837V6.20772Z" fill="url(#paint0_linear_94_20767)"/>
  </g>
  <defs>
    <linearGradient id="paint0_linear_94_20767" x1="1.29663" y1="7.77993" x2="14.2633" y2="7.77993" gradientUnits="userSpaceOnUse">
      <stop stop-color="#5D14AD"/>
      <stop offset="1" stop-color="#9747FF"/>
    </linearGradient>
    <clipPath id="clip0_94_20767">
      <rect width="15.56" height="15.56" fill="white"/>
    </clipPath>
  </defs>
</svg>