<svg width="39" height="37" viewBox="0 0 39 37" fill="none" xmlns="http://www.w3.org/2000/svg">
<g clip-path="url(#clip0_3583_1050)">
<path d="M32.0933 12.8132L32.0804 12.267V1.93761L29.2578 4.79337C26.948 1.93268 23.4337 0.105469 19.4975 0.105469C15.4011 0.105469 11.7619 2.08359 9.46021 5.14574L14.0866 9.87551C14.5415 9.02839 15.1854 8.30151 15.9621 7.74813C16.7699 7.11039 17.9143 6.58902 19.4974 6.58902C19.6887 6.58902 19.8362 6.61145 19.9447 6.65423C21.9062 6.81082 23.6065 7.90607 24.6074 9.49562L21.3311 12.8102L32.0915 12.8123" fill="#6A1CA9"/>
<path d="M19.4241 0.105957L18.8841 0.120465H8.67452L11.4971 2.97607C8.66934 5.3103 6.86328 8.86691 6.86328 12.8493C6.86328 16.9922 8.81851 20.6753 11.8452 23.0028L16.5203 18.3223C15.6834 17.864 14.9635 17.2148 14.4176 16.4263C13.7874 15.6091 13.2719 14.4513 13.2719 12.8496C13.2719 12.6561 13.2941 12.5068 13.3364 12.397C13.4912 10.4126 14.5737 8.69237 16.1449 7.67982L19.4197 10.9929L19.4217 0.106555" fill="#9B42F4"/>
<path d="M6.86377 12.8491L6.87663 13.3953V23.7244L9.69918 20.8688C12.0092 23.7295 15.5235 25.5567 19.4596 25.5567C23.5546 25.5567 27.1951 23.5786 29.4956 20.5165L24.8692 15.7867C24.4162 16.6333 23.7746 17.3616 22.9952 17.9139C22.1874 18.5517 21.0431 19.073 19.4599 19.073C19.2686 19.073 19.1211 19.0506 19.0126 19.0078C17.0512 18.8512 15.3508 17.756 14.35 16.1664L17.6247 12.8533C13.4766 12.8683 8.7909 12.8795 6.86436 12.8512" fill="black"/>
<path d="M8.98912 30.4918C8.68237 30.4918 8.40725 30.5508 8.16392 30.6683C7.92242 30.7819 7.71047 30.951 7.54495 31.162C7.37834 31.3759 7.25002 31.6357 7.16014 31.9407C7.07144 32.2431 7.02916 32.5815 7.02916 32.9577V34.0375C7.02916 34.4149 7.07277 34.7547 7.16014 35.0571C7.25002 35.3595 7.37701 35.6177 7.54096 35.8318C7.7049 36.046 7.90314 36.2105 8.13613 36.3254C8.36911 36.4403 8.63077 36.498 8.92171 36.498C9.22062 36.498 9.48243 36.4539 9.70728 36.3655C9.93494 36.2757 10.1252 36.1501 10.2787 35.9841C10.4321 35.8155 10.5498 35.6121 10.6335 35.3739C10.7182 35.1358 10.7683 34.8654 10.7842 34.5632H10.0486C10.0301 34.7961 9.99836 34.997 9.95342 35.1615C9.90848 35.326 9.84255 35.4599 9.75503 35.5653C9.67033 35.6697 9.5593 35.7473 9.42182 35.7982C9.287 35.8463 9.12024 35.8704 8.92215 35.8704C8.71075 35.8704 8.53069 35.8236 8.38256 35.7298C8.23444 35.6335 8.1141 35.5025 8.02156 35.3365C7.93168 35.172 7.86545 34.9766 7.82317 34.7532C7.78355 34.5311 7.76359 34.2916 7.76359 34.0347V32.9469C7.76359 32.6713 7.78724 32.4211 7.83499 32.1961C7.88526 31.9713 7.96065 31.78 8.06118 31.6221C8.1617 31.4641 8.28884 31.3424 8.44199 31.2569C8.59544 31.1671 8.77786 31.1243 8.98956 31.1243C9.16696 31.1243 9.31878 31.1513 9.44577 31.2047C9.5729 31.2555 9.67846 31.3358 9.76316 31.444C9.84787 31.551 9.911 31.6874 9.95756 31.8533C10.0041 32.0192 10.0315 32.2172 10.0488 32.4474H10.7828C10.768 32.1333 10.7207 31.8521 10.636 31.6098C10.5513 31.3675 10.4334 31.1616 10.2812 30.9957C10.1289 30.8299 9.94662 30.7041 9.72975 30.6184C9.5154 30.5327 9.26822 30.4897 8.98764 30.4897L8.98912 30.4918ZM26.9063 30.4918C26.5996 30.4918 26.3245 30.5508 26.0811 30.6683C25.8396 30.7819 25.6277 30.951 25.4622 31.162C25.2956 31.3759 25.1672 31.6357 25.0774 31.9407C24.9887 32.2431 24.9464 32.5815 24.9464 32.9577V34.0375C24.9464 34.4149 24.99 34.7547 25.0774 35.0571C25.1672 35.3595 25.2942 35.6177 25.4582 35.8318C25.6221 36.046 25.8204 36.2105 26.0533 36.3254C26.2863 36.4403 26.548 36.498 26.8389 36.498C27.1378 36.498 27.3996 36.4539 27.6245 36.3655C27.8522 36.2757 28.0424 36.1501 28.1959 35.9841C28.3493 35.8155 28.467 35.6121 28.5507 35.3739C28.6354 35.1358 28.6855 34.8654 28.7015 34.5632H27.9675C27.949 34.7961 27.9172 34.997 27.8723 35.1615C27.8273 35.326 27.7614 35.4599 27.6739 35.5653C27.5892 35.6697 27.4781 35.7473 27.3407 35.7982C27.2058 35.8463 27.0391 35.8704 26.841 35.8704C26.6296 35.8704 26.4495 35.8236 26.3014 35.7298C26.1533 35.6335 26.0329 35.5025 25.9404 35.3365C25.8505 35.172 25.7843 34.9766 25.742 34.7532C25.7024 34.5311 25.6824 34.2916 25.6824 34.0347V32.9469C25.6824 32.6713 25.7061 32.4211 25.7538 32.1961C25.8041 31.9713 25.8795 31.78 25.98 31.6221C26.0805 31.4641 26.2077 31.3424 26.3608 31.2569C26.5143 31.1671 26.6967 31.1243 26.9084 31.1243C27.0858 31.1243 27.2376 31.1513 27.3646 31.2047C27.4917 31.2555 27.5973 31.3358 27.682 31.444C27.7667 31.551 27.8298 31.6874 27.8764 31.8533C27.923 32.0192 27.9503 32.2172 27.9676 32.4474H28.7016C28.6868 32.1333 28.6395 31.8521 28.5548 31.6098C28.4701 31.3675 28.3523 31.1616 28.2 30.9957C28.0477 30.8299 27.8655 30.7041 27.6486 30.6184C27.4342 30.5327 27.1871 30.4897 26.9065 30.4897L26.9063 30.4918ZM13.1728 30.5722L11.3104 36.4163H12.0562L12.5046 34.8911H14.4565L14.9127 36.4163H15.6585L13.7938 30.5722H13.1728ZM16.4458 30.5722V36.4163H17.1701V34.1285H18.2848C18.5627 34.1285 18.8085 34.0896 19.0228 34.0121C19.2371 33.9318 19.4169 33.8168 19.5623 33.6669C19.7105 33.517 19.8215 33.3325 19.8956 33.1129C19.9724 32.8908 20.0106 32.6393 20.0106 32.3584C20.0106 32.0987 19.9721 31.8606 19.8956 31.6439C19.8216 31.4245 19.7118 31.2359 19.5663 31.078C19.4209 30.9175 19.2411 30.7931 19.0228 30.7047C18.8084 30.6149 18.5626 30.5722 18.2848 30.5722H16.4458ZM20.5679 30.5722V31.2063H22.0835V36.4163H22.8078V31.2063H24.3276V30.5722H20.5679ZM29.6811 30.5722V36.4163H30.4055V33.7149H32.729V36.4163H33.459V30.5722H32.729V33.0848H30.404V30.5722H29.6811ZM36.2153 30.5722L34.3545 36.4163H35.1004L35.5487 34.8911H37.5007L37.9569 36.4163H38.7014L36.8366 30.5722H36.2153ZM17.1716 31.2063H18.2863C18.4637 31.2063 18.6142 31.2385 18.7386 31.3026C18.8603 31.3625 18.9663 31.4505 19.048 31.5596C19.1301 31.6667 19.1895 31.7911 19.2266 31.9329C19.2662 32.072 19.2862 32.2166 19.2862 32.3666C19.2862 32.5311 19.2664 32.6852 19.2266 32.8243C19.1897 32.9607 19.1301 33.0785 19.048 33.1832C18.9687 33.2822 18.8655 33.3597 18.7386 33.4161C18.6144 33.4723 18.4637 33.5004 18.2863 33.5004H17.1716V31.2063ZM13.482 31.5997L14.2714 34.2568H12.6948L13.482 31.5997ZM36.5246 31.5997L37.314 34.2568H35.7374L36.5246 31.5997ZM2.34955 31.993C2.16697 31.993 2.00953 32.0398 1.87737 32.1336C1.74772 32.2272 1.64084 32.3543 1.55214 32.515L1.54032 32.0735H0.856445V36.4165H1.55865V33.3096C1.62473 33.1249 1.7186 32.9806 1.84027 32.8721C1.96444 32.765 2.12189 32.7116 2.31244 32.7116L2.47506 32.7197C2.52702 32.723 2.57873 32.7297 2.62984 32.7398L2.62584 32.0494C2.6152 32.044 2.59805 32.0386 2.5741 32.0334C2.55088 32.0248 2.527 32.0181 2.5027 32.0133C2.47609 32.008 2.44845 32.0039 2.41932 32.0014C2.39271 31.996 2.36906 31.9933 2.34792 31.9933L2.34955 31.993ZM4.71013 31.993C4.50816 31.9927 4.30782 32.0295 4.1188 32.1014C3.92662 32.1737 3.75912 32.2929 3.611 32.4604C3.46553 32.6249 3.34785 32.8377 3.2562 33.1026C3.16632 33.3648 3.12138 33.6859 3.12138 34.07V34.5596C3.12138 34.8914 3.15981 35.1791 3.23639 35.4226C3.31297 35.6661 3.42266 35.8683 3.56561 36.0288C3.71108 36.1867 3.887 36.3044 4.09337 36.3821C4.29974 36.4597 4.53095 36.4984 4.78774 36.4984C4.97282 36.4984 5.1381 36.4797 5.28371 36.4422C5.43184 36.4048 5.56282 36.3565 5.6765 36.2977C5.79033 36.2361 5.8879 36.1666 5.9701 36.0889C6.05229 36.0113 6.12236 35.931 6.18031 35.8496L5.81517 35.4C5.75692 35.4723 5.69483 35.5391 5.6289 35.6008C5.56282 35.6597 5.48994 35.7119 5.4107 35.7573C5.32759 35.8009 5.23979 35.8345 5.14904 35.8576C5.05398 35.883 4.94651 35.8937 4.82765 35.8937C4.50242 35.8937 4.25111 35.788 4.07785 35.5767C3.90592 35.3653 3.82003 35.0267 3.82003 34.5596V34.4594H6.21491V34.0461C6.21491 33.7143 6.18711 33.4212 6.13153 33.1669C6.07594 32.9127 5.98739 32.6988 5.86573 32.5247C5.74735 32.3535 5.58564 32.2176 5.39754 32.1313C5.20714 32.0404 4.97696 31.9949 4.70717 31.9949L4.71013 31.993ZM4.71013 32.6032C4.86357 32.6032 4.99056 32.6313 5.09094 32.6876C5.19038 32.7427 5.27277 32.8247 5.32895 32.9243C5.38986 33.026 5.43347 33.1478 5.45993 33.2896C5.48905 33.4287 5.50753 33.5827 5.51551 33.7511V33.8474H3.82402C3.83466 33.6039 3.86364 33.4017 3.91272 33.2413C3.9618 33.0808 4.02256 32.9536 4.09899 32.8599C4.17837 32.7635 4.26959 32.6953 4.37277 32.6592C4.47596 32.623 4.58831 32.6029 4.70983 32.6029L4.71013 32.6032Z" fill="black"/>
</g>
<defs>
<clipPath id="clip0_3583_1050">
<rect width="37.8449" height="36.4933" fill="white" transform="translate(0.856445 0.105469)"/>
</clipPath>
</defs>
</svg>
