<svg width="92" height="100" viewBox="0 0 92 100" fill="none" xmlns="http://www.w3.org/2000/svg">
<path d="M92 96.0437L84.0154 91.2617V74.9617L92 70.1797V69.5333L83.7378 74.4814L70.403 66.493L83.8803 58.4178C83.9215 58.3936 83.9557 58.3591 83.9794 58.3176C84.0031 58.2761 84.0155 58.2292 84.0154 58.1814V42.0476L92 46.8296V46.1831L84.2781 41.5655L92 36.948V36.3015L84.0154 41.0835V25.0919L92 20.3099V19.6635L83.7378 24.6117L70.403 16.6233L83.8803 8.54805C83.9215 8.52385 83.9557 8.48929 83.9794 8.44781C84.0031 8.40633 84.0155 8.35938 84.0154 8.31163V0H83.4604V8.14539L69.8628 16.2908L56.5279 8.30239L70.0052 0.227181L70.3882 0H69.3096L56.2652 7.81293V0H55.7102V7.81293L42.6676 0H41.837C41.8384 0.0459634 41.8514 0.0908371 41.8746 0.130523C41.8979 0.170209 41.9308 0.203439 41.9702 0.227181L55.4494 8.30239L41.9702 16.3758L28.0951 24.6874C28.054 24.7122 28.02 24.7471 27.9963 24.7888C27.9727 24.8306 27.9602 24.8777 27.9601 24.9257V41.0595L14.5049 32.999C14.4427 32.9646 14.3696 32.9554 14.3007 32.9733C14.2319 32.9912 14.1725 33.0347 14.1349 33.0951C14.1161 33.1261 14.1037 33.1605 14.0982 33.1964C14.0928 33.2322 14.0945 33.2688 14.1033 33.304C14.1121 33.3391 14.1277 33.3723 14.1493 33.4014C14.171 33.4305 14.1981 33.4551 14.2293 33.4737L27.7085 41.5489L14.2293 49.6223L0.354224 57.9339C0.313095 57.9587 0.279069 57.9936 0.255412 58.0354C0.231755 58.0771 0.219271 58.1242 0.219177 58.1722V74.7954C0.219177 74.8689 0.248412 74.9394 0.300454 74.9913C0.352496 75.0433 0.423081 75.0725 0.496679 75.0725C0.570277 75.0725 0.640862 75.0433 0.692903 74.9913C0.744945 74.9394 0.77418 74.8689 0.77418 74.7954V58.3384L14.3718 50.193L27.9693 58.3384V74.3152L14.5142 66.2548C14.452 66.2204 14.3788 66.2112 14.31 66.229C14.2411 66.2469 14.1818 66.2905 14.1442 66.3508C14.1091 66.4127 14.0994 66.4856 14.1169 66.5545C14.1345 66.6233 14.1781 66.6827 14.2386 66.7202L27.7177 74.7954L14.2201 82.8688C14.1888 82.8876 14.1616 82.9123 14.14 82.9416C14.1183 82.9709 14.1027 83.0042 14.0939 83.0395C14.0851 83.0749 14.0834 83.1116 14.0889 83.1476C14.0944 83.1836 14.1069 83.2181 14.1257 83.2493C14.1502 83.2902 14.1849 83.3241 14.2264 83.3477C14.2679 83.3714 14.3147 83.3839 14.3625 83.3841C14.4126 83.3842 14.4618 83.3708 14.5049 83.3453L28.38 75.0337L42.1108 66.8089L55.4475 74.7973L41.9702 82.8688C41.939 82.8876 41.9117 82.9123 41.8901 82.9416C41.8685 82.9709 41.8528 83.0042 41.8441 83.0395C41.8353 83.0749 41.8336 83.1116 41.839 83.1476C41.8445 83.1836 41.857 83.2181 41.8759 83.2493C41.9004 83.2902 41.935 83.3241 41.9765 83.3477C42.018 83.3714 42.0649 83.3839 42.1126 83.3841C42.163 83.3844 42.2125 83.3703 42.2551 83.3435L55.7102 75.2849V91.4187C55.7103 91.4664 55.7228 91.5133 55.7464 91.5547C55.7701 91.5962 55.8042 91.6308 55.8453 91.6551L69.7203 99.9668C69.7382 99.9762 69.7567 99.9842 69.7758 99.9908H69.7888C69.8105 99.9967 69.8329 99.9998 69.8554 100C69.8779 99.9999 69.9003 99.9968 69.922 99.9908H69.9331C69.9503 99.9856 69.9671 99.9788 69.983 99.9705H69.996C70.0132 99.9598 70.0293 99.9474 70.0441 99.9335C70.0597 99.9179 70.0733 99.9006 70.0848 99.8818V99.8689C70.0905 99.8588 70.0954 99.8483 70.0996 99.8375C70.1006 99.8295 70.1006 99.8214 70.0996 99.8135C70.0996 99.8042 70.0996 99.795 70.0996 99.7858C70.1005 99.7759 70.1005 99.766 70.0996 99.7562C70.1005 99.7507 70.1005 99.7451 70.0996 99.7396V83.1163C70.0999 83.0683 70.0875 83.021 70.0638 82.9792C70.0401 82.9374 70.0059 82.9025 69.9645 82.878L56.4872 74.8047L69.8221 66.8163L83.4197 74.9617V91.4187C83.4197 91.4187 83.4197 91.4409 83.4197 91.4501C83.4197 91.4593 83.4197 91.4667 83.4197 91.4741C83.4219 91.4836 83.425 91.4929 83.4289 91.5018C83.4289 91.5018 83.4289 91.5166 83.4289 91.5258L83.4437 91.5498C83.4473 91.5576 83.4517 91.565 83.4567 91.572C83.4617 91.5792 83.4672 91.586 83.4733 91.5923L83.4918 91.6126L83.5103 91.6274L83.5344 91.6459L91.939 96.6809L92 96.0437ZM28.5151 25.0919L41.8351 17.1127V33.0895L28.5151 41.0687V25.0919ZM28.2376 57.8582L14.9027 49.8698L28.2376 41.8814L41.5743 49.8698L28.2376 57.8582ZM41.8351 66.336L28.5151 74.3152V58.3384L41.8351 50.3592V66.336ZM28.7778 41.5489L42.1126 33.5605L55.4494 41.5489L42.1126 49.5373L28.7778 41.5489ZM55.7102 74.306L42.3901 66.3268V50.35L55.7102 58.3292V74.306ZM55.7102 57.6827L42.6528 49.8605L55.7102 42.0384V57.6827ZM55.7102 41.0595L42.3901 33.0803V17.1035L55.7102 25.0827V41.0595ZM42.6528 16.614L55.9877 8.62562L69.3244 16.614L55.9877 24.6024L42.6528 16.614ZM69.5853 17.1035V33.0803L56.2652 41.0595V25.0919L69.5853 17.1035ZM69.5853 83.2641V99.2409L56.2652 91.2617V75.2849L69.5853 83.2641ZM56.2652 74.306V58.6616L69.3244 66.4838L56.2652 74.306ZM69.5853 65.9943L56.2652 58.0152V42.0384L69.5853 50.0175V65.9943ZM56.5279 41.5489L70.0052 33.4737C70.0465 33.4495 70.0806 33.4149 70.1043 33.3735C70.128 33.332 70.1404 33.285 70.1403 33.2373V17.1035L83.4604 25.0827V41.3919L69.8628 49.5373L56.5279 41.5489ZM70.1403 50.0268L83.4604 42.0476V58.0244L70.1403 66.0036V50.0268Z" fill="#5D14AD"/>
</svg>
