<svg width="150" height="54" viewBox="0 0 150 54" fill="none" xmlns="http://www.w3.org/2000/svg">
<path d="M30.7558 47.4399L34.5509 28.4641H42.2226C44.5901 28.4641 46.4153 28.9882 47.6985 30.0364C48.9997 31.0665 49.6503 32.5123 49.6503 34.3737C49.6503 35.9641 49.2798 37.3556 48.5388 38.5484C47.7979 39.7231 46.7316 40.6267 45.3401 41.2592C43.9666 41.8918 42.331 42.208 40.4334 42.208H34.2798L36.6112 40.202L35.1744 47.4399H30.7558ZM36.5027 40.7171L34.9575 38.6297H40.6232C42.069 38.6297 43.1895 38.3044 43.9846 37.6538C44.7979 36.9852 45.2045 36.0183 45.2045 34.7532C45.2045 33.8315 44.8973 33.1538 44.2828 32.7201C43.6684 32.2683 42.8009 32.0424 41.6804 32.0424H36.3401L38.6714 29.9008L36.5027 40.7171ZM50.0482 47.4399L52.9488 32.8556H56.9609L56.1205 37.0032L55.741 35.8105C56.3916 34.6358 57.241 33.8135 58.2892 33.3436C59.3373 32.8737 60.5934 32.6388 62.0572 32.6388L61.2982 36.5424C61.1175 36.5243 60.9458 36.5153 60.7831 36.5153C60.6386 36.4972 60.4849 36.4882 60.3223 36.4882C59.0753 36.4882 58.0542 36.7954 57.259 37.4099C56.4819 38.0243 55.9578 39.0183 55.6868 40.3918L54.2771 47.4399H50.0482ZM69.1285 47.6568C67.6466 47.6568 66.3544 47.3857 65.252 46.8436C64.1496 46.3014 63.2911 45.5424 62.6767 44.5665C62.0803 43.5906 61.7821 42.443 61.7821 41.1237C61.7821 39.4972 62.1616 38.0514 62.9207 36.7864C63.6797 35.5032 64.7189 34.4912 66.0381 33.7502C67.3755 33.0093 68.8935 32.6388 70.5923 32.6388C72.0923 32.6388 73.3845 32.9099 74.4688 33.452C75.5712 33.9942 76.4206 34.7532 77.017 35.7291C77.6315 36.687 77.9387 37.8345 77.9387 39.1719C77.9387 40.7803 77.5592 42.2261 76.8001 43.5092C76.0411 44.7924 75.002 45.8044 73.6827 46.5454C72.3634 47.2863 70.8453 47.6568 69.1285 47.6568ZM69.3996 44.1869C70.2309 44.1869 70.9628 43.9881 71.5953 43.5906C72.2459 43.1749 72.752 42.6056 73.1134 41.8827C73.4749 41.1598 73.6556 40.3195 73.6556 39.3617C73.6556 38.3858 73.3664 37.5996 72.7881 37.0032C72.2098 36.4068 71.3965 36.1086 70.3484 36.1086C69.517 36.1086 68.7761 36.3165 68.1255 36.7321C67.4929 37.1297 66.9869 37.69 66.6074 38.4129C66.246 39.1357 66.0652 39.9761 66.0652 40.9339C66.0652 41.9279 66.3544 42.7231 66.9327 43.3195C67.511 43.8978 68.3333 44.1869 69.3996 44.1869ZM88.5732 47.6568C87.3985 47.6568 86.3684 47.4309 85.4829 46.9791C84.6154 46.5273 83.9648 45.8315 83.5311 44.8918C83.0973 43.9339 82.9437 42.705 83.0702 41.205C83.1787 39.4701 83.5311 37.9611 84.1274 36.6779C84.7419 35.3948 85.5732 34.4008 86.6214 33.696C87.6696 32.9912 88.9076 32.6388 90.3353 32.6388C91.4738 32.6388 92.522 32.9008 93.4798 33.4249C94.4377 33.9309 95.2057 34.6719 95.784 35.6478C96.3624 36.6056 96.6515 37.7803 96.6515 39.1719C96.6515 40.3827 96.4437 41.5122 96.028 42.5604C95.6124 43.5906 95.034 44.4851 94.2931 45.2442C93.5702 46.0032 92.7208 46.5996 91.7449 47.0333C90.769 47.449 89.7118 47.6568 88.5732 47.6568ZM78.1907 52.699L82.1485 32.8556H86.1606L85.5642 35.7562L84.6425 40.0936L84.0732 44.4309L82.4196 52.699H78.1907ZM88.0853 44.1598C88.9347 44.1598 89.6756 43.961 90.3082 43.5634C90.9407 43.1478 91.4377 42.5875 91.7991 41.8827C92.1786 41.1598 92.3684 40.3195 92.3684 39.3617C92.3684 38.3677 92.0792 37.5815 91.5009 37.0032C90.9226 36.4249 90.1003 36.1358 89.0341 36.1358C88.2208 36.1358 87.4889 36.3436 86.8383 36.7592C86.1877 37.1568 85.6817 37.7171 85.3202 38.44C84.9588 39.1448 84.778 39.9761 84.778 40.9339C84.778 41.9279 85.0672 42.7141 85.6455 43.2924C86.2238 43.8707 87.0371 44.1598 88.0853 44.1598ZM97.9644 47.4399L100.865 32.8556H105.067L102.166 47.4399H97.9644ZM103.684 30.8225C102.943 30.8225 102.347 30.6147 101.895 30.199C101.443 29.7653 101.217 29.2412 101.217 28.6267C101.217 27.9039 101.47 27.3075 101.976 26.8376C102.5 26.3496 103.178 26.1057 104.01 26.1057C104.75 26.1057 105.347 26.3135 105.799 26.7292C106.269 27.1267 106.503 27.6237 106.503 28.2201C106.503 28.9972 106.241 29.6298 105.717 30.1177C105.211 30.5876 104.534 30.8225 103.684 30.8225Z" fill="#5D14AD"/>
<path d="M112.516 37.0032H121.652L120.92 40.5273H111.811L112.516 37.0032ZM110.781 47.4399H106.363L110.158 28.4641H124.498L123.766 31.9882H113.845L110.781 47.4399ZM123.405 47.4399L126.306 32.8556H130.507L127.607 47.4399H123.405ZM129.125 30.8225C128.384 30.8225 127.787 30.6147 127.336 30.199C126.884 29.7653 126.658 29.2412 126.658 28.6267C126.658 27.9039 126.911 27.3075 127.417 26.8376C127.941 26.3496 128.619 26.1057 129.45 26.1057C130.191 26.1057 130.787 26.3135 131.239 26.7292C131.709 27.1267 131.944 27.6237 131.944 28.2201C131.944 28.9972 131.682 29.6298 131.158 30.1177C130.652 30.5876 129.974 30.8225 129.125 30.8225ZM129.58 47.4399L137.984 38.8195L137.442 40.961L132.996 32.8556H137.388L140.424 38.4671L138.472 38.44L143.758 32.8556H148.421L140.397 41.205L140.749 38.955L145.466 47.4399H140.993L137.875 41.6388H139.854L134.406 47.4399H129.58Z" fill="#9D71C6"/>
<path d="M38.1678 0H45.6097L24.9378 22.7135H17.4959L38.1678 0Z" fill="#9D71C6"/>
<path d="M46.4554 0.187405L42.0203 5.05993L57.6182 22.7135H65.0601L46.4554 0.187405Z" fill="#9D71C6"/>
<path d="M20.6719 0H28.1138L7.44188 22.7135H0L20.6719 0Z" fill="#9D71C6"/>
<path d="M29.5984 0H37.0403L8.09962 30.9593H0.657742L29.5984 0Z" fill="#5D14AD"/>
</svg>
