<svg width="88" height="92" viewBox="0 0 88 92" fill="none" xmlns="http://www.w3.org/2000/svg">
<path d="M60.5843 0L57.0407 2.12213L53.4972 0H52.8984L56.7408 2.30051L41.634 11.3488L26.5262 2.30051L30.3687 0H29.7709L26.3814 2.02986V0H26.0733V2.02986L22.6838 0H22.085L25.9274 2.30051L10.7405 11.3959C10.7179 11.4096 10.6992 11.4288 10.6862 11.4518C10.6733 11.4748 10.6665 11.5008 10.6666 11.5272V29.7098L0 23.3219V23.6807L10.5207 29.9805L0 36.2813V36.6401L10.8206 30.1599L25.9274 39.2071L10.7405 48.3026L0 54.7346V55.0934L10.6666 48.7055V66.6154L0 60.2285V60.5873L10.6666 66.9742V85.0687L0 78.6818V79.0396L10.5207 85.3404L0 91.6412V92L10.9038 85.4727L26.3105 76.246L26.3229 76.2357C26.3286 76.232 26.3341 76.2279 26.3393 76.2234C26.3447 76.2178 26.3495 76.2116 26.3537 76.205C26.3571 76.2015 26.3602 76.1977 26.3629 76.1937V76.1855C26.367 76.1772 26.3704 76.1687 26.3732 76.1599C26.3737 76.1565 26.3737 76.153 26.3732 76.1496C26.3732 76.1404 26.3732 76.1312 26.3732 76.123C26.3732 76.1148 26.3732 76.123 26.3732 76.1158V57.9321L41.5457 67.0193H41.5519C41.5603 67.0245 41.5692 67.0286 41.5786 67.0316H41.5889C41.6012 67.0328 41.6135 67.0328 41.6258 67.0316C41.6381 67.0327 41.6505 67.0327 41.6628 67.0316H41.6721C41.6814 67.0286 41.6904 67.0245 41.6988 67.0193H41.7049L57.1116 57.7927C57.1345 57.7789 57.1534 57.7595 57.1665 57.7364C57.1796 57.7132 57.1865 57.6871 57.1866 57.6604V39.2953L72.4392 30.1609L87.6919 39.2953V57.6615C87.6919 57.7022 87.7081 57.7414 87.737 57.7702C87.7659 57.799 87.8051 57.8152 87.8459 57.8152C87.8868 57.8152 87.926 57.799 87.9549 57.7702C87.9838 57.7414 88 57.7022 88 57.6615V39.2082C87.9999 39.1815 87.993 39.1554 87.9799 39.1322C87.9668 39.1091 87.9479 39.0897 87.925 39.0759L72.5183 29.8493C72.4942 29.8352 72.4667 29.8278 72.4387 29.8278C72.4108 29.8278 72.3833 29.8352 72.3591 29.8493L56.9524 39.0759C56.9452 39.0804 56.9383 39.0856 56.9319 39.0913C56.9319 39.0974 56.9216 39.1026 56.9165 39.1097L56.9052 39.1292C56.905 39.1316 56.905 39.134 56.9052 39.1364C56.9052 39.1364 56.9052 39.1487 56.899 39.1548V39.1651V39.1805C56.899 39.1805 56.899 39.1907 56.899 39.1959V57.5733L41.8004 66.6154V48.4338C41.8003 48.4073 41.7933 48.3813 41.7802 48.3583C41.7671 48.3354 41.7482 48.3161 41.7255 48.3026L26.5262 39.2071L41.7172 30.1127L57.1239 20.8861C57.1468 20.8723 57.1657 20.8529 57.1788 20.8298C57.1919 20.8066 57.1989 20.7804 57.1989 20.7538V2.57219L72.3714 11.6594C72.3888 11.6699 72.408 11.6768 72.428 11.6798C72.448 11.6828 72.4684 11.6819 72.4881 11.677C72.5077 11.6722 72.5262 11.6635 72.5425 11.6515C72.5588 11.6395 72.5726 11.6244 72.583 11.6071C72.5935 11.5898 72.6004 11.5706 72.6035 11.5507C72.6065 11.5307 72.6055 11.5103 72.6007 11.4907C72.5958 11.4711 72.5871 11.4526 72.5751 11.4364C72.5631 11.4201 72.548 11.4064 72.5306 11.3959L57.3396 2.30051L61.1831 0H60.5843ZM10.9747 11.6143L26.0733 2.57219V20.6677L10.9747 29.7098V11.6143ZM10.9747 48.7055L25.9274 57.6604L10.9747 66.6154V48.7055ZM10.9747 85.0687V67.1588L25.9274 76.1137L10.9747 85.0687ZM26.0733 75.8421L11.1195 66.8871L26.0733 57.9321V75.8421ZM26.0733 57.3888L11.1195 48.4338L26.0733 39.4788V57.3888ZM41.48 48.5209V66.6154L26.3814 57.5733V39.4788L41.48 48.5209ZM26.2273 39.0288L11.1195 29.9805L26.2273 20.9332L41.3341 29.9805L26.2273 39.0288ZM41.48 29.7098L26.3814 20.6677V2.57219L41.48 11.6143V29.7098ZM56.8867 20.6677L41.7881 29.7098V11.6143L56.8867 2.57219V20.6677Z" fill="#5D14AD"/>
</svg>
