<svg width="92" height="100" viewBox="0 0 92 100" fill="none" xmlns="http://www.w3.org/2000/svg">
<path d="M0 0V8.30978C0.000232441 8.35745 0.0127901 8.40425 0.0364693 8.44565C0.0601485 8.48706 0.0941442 8.52168 0.135164 8.54614L14.0222 16.8559C14.0654 16.8817 14.1145 16.8957 14.1648 16.8966C14.2151 16.8961 14.2644 16.8821 14.3074 16.8559L28.1944 8.54614C28.2057 8.53919 28.2162 8.53115 28.2259 8.52214L28.2388 8.51106C28.2478 8.50336 28.2559 8.49469 28.2629 8.48521L28.2759 8.47043L28.2925 8.44273C28.2922 8.43658 28.2922 8.43042 28.2925 8.42427C28.2933 8.41505 28.2933 8.40579 28.2925 8.39657C28.2936 8.3886 28.2936 8.38053 28.2925 8.37256C28.2934 8.36458 28.2934 8.35653 28.2925 8.34855C28.2934 8.33811 28.2934 8.32761 28.2925 8.31717V0.00738242H27.7371V8.15097L14.1278 16.2946L0.518448 8.15097V0.00738242L0 0Z" fill="#5D14AD"/>
<path d="M91.7808 96.0437L83.7962 91.2617V74.9617L91.7808 70.1797V69.5333L83.5187 74.4814L70.1838 66.493L83.6611 58.4178C83.7024 58.3936 83.7365 58.3591 83.7602 58.3176C83.7839 58.2761 83.7963 58.2292 83.7962 58.1814V42.0476L91.7808 46.8296V46.1831L84.0589 41.5655L91.7808 36.948V36.3015L83.7962 41.0835V25.0919L91.7808 20.3099V19.6635L83.5187 24.6117L70.1838 16.6233L83.6611 8.54805C83.7024 8.52385 83.7365 8.48929 83.7602 8.44781C83.7839 8.40633 83.7963 8.35938 83.7962 8.31163V0H83.2412V8.14539L69.6436 16.2908L56.3087 8.30239L69.7861 0.227181L70.169 0H69.0904L56.046 7.81293V0H55.491V7.81293L42.4485 0H41.6178C41.6192 0.0459634 41.6322 0.0908371 41.6555 0.130523C41.6787 0.170209 41.7116 0.203439 41.751 0.227181L55.2302 8.30239L41.751 16.3758L27.876 24.6874C27.8348 24.7122 27.8008 24.7471 27.7771 24.7888C27.7535 24.8306 27.741 24.8777 27.7409 24.9257V41.0595L14.2858 32.999C14.2235 32.9646 14.1504 32.9554 14.0816 32.9733C14.0127 32.9912 13.9534 33.0347 13.9158 33.0951C13.897 33.1261 13.8845 33.1605 13.8791 33.1964C13.8736 33.2322 13.8754 33.2688 13.8841 33.304C13.8929 33.3391 13.9085 33.3723 13.9302 33.4014C13.9518 33.4305 13.979 33.4551 14.0101 33.4737L27.4893 41.5489L14.0101 49.6223L0.135047 57.9339C0.0939178 57.9587 0.0598914 57.9936 0.0362346 58.0354C0.0125778 58.0771 9.36538e-05 58.1242 0 58.1722V74.7954C0 74.8689 0.0292351 74.9394 0.0812767 74.9913C0.133318 75.0433 0.203903 75.0725 0.277501 75.0725C0.351099 75.0725 0.421685 75.0433 0.473726 74.9913C0.525768 74.9394 0.555003 74.8689 0.555003 74.7954V58.3384L14.1526 50.193L27.7501 58.3384V74.3152L14.295 66.2548C14.2328 66.2204 14.1597 66.2112 14.0908 66.229C14.022 66.2469 13.9626 66.2905 13.925 66.3508C13.8899 66.4127 13.8802 66.4856 13.8978 66.5545C13.9154 66.6233 13.9589 66.6827 14.0194 66.7202L27.4985 74.7954L14.0009 82.8688C13.9697 82.8876 13.9424 82.9123 13.9208 82.9416C13.8991 82.9709 13.8835 83.0042 13.8747 83.0395C13.866 83.0749 13.8643 83.1116 13.8697 83.1476C13.8752 83.1836 13.8877 83.2181 13.9065 83.2493C13.931 83.2902 13.9657 83.3241 14.0072 83.3477C14.0487 83.3714 14.0956 83.3839 14.1433 83.3841C14.1934 83.3842 14.2426 83.3708 14.2858 83.3453L28.1608 75.0337L41.8916 66.8089L55.2283 74.7973L41.751 82.8688C41.7198 82.8876 41.6926 82.9123 41.6709 82.9416C41.6493 82.9709 41.6336 83.0042 41.6249 83.0395C41.6161 83.0749 41.6144 83.1116 41.6199 83.1476C41.6253 83.1836 41.6378 83.2181 41.6567 83.2493C41.6812 83.2902 41.7159 83.3241 41.7573 83.3477C41.7988 83.3714 41.8457 83.3839 41.8935 83.3841C41.9438 83.3844 41.9933 83.3703 42.0359 83.3435L55.491 75.2849V91.4187C55.4911 91.4664 55.5036 91.5133 55.5273 91.5547C55.5509 91.5962 55.585 91.6308 55.6261 91.6551L69.5012 99.9668C69.519 99.9762 69.5376 99.9842 69.5567 99.9908H69.5696C69.5913 99.9967 69.6137 99.9998 69.6362 100C69.6587 99.9999 69.6811 99.9968 69.7028 99.9908H69.7139C69.7312 99.9856 69.7479 99.9788 69.7639 99.9705H69.7768C69.7941 99.9598 69.8102 99.9474 69.8249 99.9335C69.8405 99.9179 69.8541 99.9006 69.8656 99.8818V99.8689C69.8713 99.8588 69.8762 99.8483 69.8804 99.8375C69.8815 99.8295 69.8815 99.8214 69.8804 99.8135C69.8804 99.8042 69.8804 99.795 69.8804 99.7858C69.8813 99.7759 69.8813 99.766 69.8804 99.7562C69.8813 99.7507 69.8813 99.7451 69.8804 99.7396V83.1163C69.8807 83.0683 69.8683 83.021 69.8447 82.9792C69.821 82.9374 69.7867 82.9025 69.7454 82.878L56.268 74.8047L69.6029 66.8163L83.2005 74.9617V91.4187C83.2005 91.4187 83.2005 91.4409 83.2005 91.4501C83.2005 91.4593 83.2005 91.4667 83.2005 91.4741C83.2027 91.4836 83.2058 91.4929 83.2097 91.5018C83.2097 91.5018 83.2097 91.5166 83.2097 91.5258L83.2245 91.5498C83.2281 91.5576 83.2325 91.565 83.2375 91.572C83.2425 91.5792 83.248 91.586 83.2541 91.5923L83.2726 91.6126L83.2911 91.6274L83.3152 91.6459L91.7198 96.6809L91.7808 96.0437ZM28.2959 25.0919L41.616 17.1127V33.0895L28.2959 41.0687V25.0919ZM28.0184 57.8582L14.6835 49.8698L28.0184 41.8814L41.3551 49.8698L28.0184 57.8582ZM41.616 66.336L28.2959 74.3152V58.3384L41.616 50.3592V66.336ZM28.5586 41.5489L41.8935 33.5605L55.2302 41.5489L41.8935 49.5373L28.5586 41.5489ZM55.491 74.306L42.171 66.3268V50.35L55.491 58.3292V74.306ZM55.491 57.6827L42.4337 49.8605L55.491 42.0384V57.6827ZM55.491 41.0595L42.171 33.0803V17.1035L55.491 25.0827V41.0595ZM42.4337 16.614L55.7685 8.62562L69.1053 16.614L55.7685 24.6024L42.4337 16.614ZM69.3661 17.1035V33.0803L56.046 41.0595V25.0919L69.3661 17.1035ZM69.3661 83.2641V99.2409L56.046 91.2617V75.2849L69.3661 83.2641ZM56.046 74.306V58.6616L69.1053 66.4838L56.046 74.306ZM69.3661 65.9943L56.046 58.0152V42.0384L69.3661 50.0175V65.9943ZM56.3087 41.5489L69.7861 33.4737C69.8273 33.4495 69.8615 33.4149 69.8851 33.3735C69.9088 33.332 69.9212 33.285 69.9211 33.2373V17.1035L83.2412 25.0827V41.3919L69.6436 49.5373L56.3087 41.5489ZM69.9211 50.0268L83.2412 42.0476V58.0244L69.9211 66.0036V50.0268Z" fill="#5D14AD"/>
</svg>
