<svg width="251" height="263" viewBox="0 0 251 263" fill="none" xmlns="http://www.w3.org/2000/svg">
<path d="M172.803 0L162.696 6.06652L152.589 0H150.881L161.84 6.57646L118.752 32.4427L75.66 6.57646L86.6197 0H84.9147L75.247 5.80276V0H74.3681V5.80276L64.7004 0H62.9924L73.9521 6.57646L30.6349 32.5775C30.5704 32.6165 30.517 32.6716 30.48 32.7373C30.4431 32.803 30.4237 32.8772 30.424 32.9527V84.9314L0 66.6702V67.696L30.008 85.7051L0 103.717V104.743L30.8634 86.2179L73.9521 112.081L30.6349 138.082L0 156.469V157.495L30.424 139.234V190.433L0 172.175V173.201L30.424 191.459V243.186L0 224.927V225.95L30.008 243.962L0 261.974V263L31.1007 244.34L75.0448 217.964L75.08 217.935C75.0963 217.924 75.112 217.912 75.1269 217.9C75.1423 217.884 75.1561 217.866 75.1679 217.847C75.1775 217.837 75.1864 217.826 75.1943 217.815V217.791C75.2058 217.768 75.2156 217.743 75.2235 217.718C75.2249 217.708 75.2249 217.698 75.2235 217.689C75.2235 217.662 75.2235 217.636 75.2235 217.612C75.2235 217.589 75.2235 217.612 75.2235 217.592V165.61L118.5 191.588H118.517C118.541 191.603 118.567 191.614 118.593 191.623H118.623C118.658 191.626 118.693 191.626 118.728 191.623C118.763 191.626 118.799 191.626 118.834 191.623H118.86C118.887 191.614 118.912 191.603 118.936 191.588H118.954L162.898 165.212C162.963 165.172 163.017 165.117 163.054 165.051C163.092 164.985 163.112 164.91 163.112 164.834V112.333L206.616 86.2209L250.121 112.333V164.837C250.121 164.953 250.167 165.065 250.25 165.147C250.332 165.23 250.444 165.276 250.561 165.276C250.677 165.276 250.789 165.23 250.871 165.147C250.954 165.065 251 164.953 251 164.837V112.084C251 112.008 250.98 111.933 250.943 111.867C250.905 111.801 250.851 111.745 250.786 111.706L206.842 85.3299C206.773 85.2898 206.695 85.2686 206.615 85.2686C206.535 85.2686 206.457 85.2898 206.388 85.3299L162.444 111.706C162.423 111.719 162.404 111.734 162.385 111.75C162.385 111.768 162.356 111.782 162.341 111.803L162.309 111.859C162.309 111.865 162.309 111.872 162.309 111.879C162.309 111.879 162.309 111.914 162.291 111.932V111.961V112.005C162.291 112.005 162.291 112.034 162.291 112.049V164.585L119.226 190.433V138.457C119.226 138.382 119.206 138.308 119.169 138.242C119.131 138.176 119.077 138.121 119.012 138.082L75.66 112.081L118.989 86.0831L162.933 59.7069C162.998 59.6676 163.052 59.6122 163.09 59.5459C163.127 59.4797 163.147 59.405 163.147 59.3289V7.3531L206.423 33.3307C206.473 33.3606 206.527 33.3804 206.584 33.389C206.642 33.3977 206.7 33.395 206.756 33.3811C206.812 33.3672 206.865 33.3424 206.911 33.3081C206.958 33.2738 206.997 33.2307 207.027 33.1813C207.056 33.1318 207.076 33.077 207.085 33.0198C207.094 32.9627 207.091 32.9045 207.077 32.8484C207.063 32.7924 207.038 32.7396 207.004 32.6931C206.97 32.6466 206.927 32.6073 206.877 32.5775L163.548 6.57646L174.511 0H172.803ZM31.3029 33.2018L74.3681 7.3531V59.0827L31.3029 84.9314V33.2018ZM31.3029 139.234L73.9521 164.834L31.3029 190.433V139.234ZM31.3029 243.186V191.986L73.9521 217.586L31.3029 243.186ZM74.3681 216.809L31.7159 191.21L74.3681 165.61V216.809ZM74.3681 164.057L31.7159 138.457L74.3681 112.858V164.057ZM118.312 138.707V190.433L75.247 164.585V112.858L118.312 138.707ZM74.8075 111.571L31.7159 85.7051L74.8075 59.8417L117.896 85.7051L74.8075 111.571ZM118.312 84.9314L75.247 59.0827V7.3531L118.312 33.2018V84.9314ZM162.256 59.0827L119.191 84.9314V33.2018L162.256 7.3531V59.0827Z" fill="white" fill-opacity="0.6"/>
</svg>
