<svg width="251" height="274" viewBox="0 0 251 274" fill="none" xmlns="http://www.w3.org/2000/svg">
<path d="M251 263.16L229.164 250.057V205.395L251 192.292V190.521L228.405 204.079L191.937 182.191L228.794 160.065C228.907 159.999 229.001 159.904 229.065 159.79C229.13 159.677 229.164 159.548 229.164 159.417V115.21L251 128.313V126.542L229.882 113.89L251 101.237V99.4661L229.164 112.569V68.7518L251 55.6492V53.8779L228.405 67.4359L191.937 45.5477L228.794 23.4216C228.907 23.3553 229.001 23.2606 229.065 23.147C229.13 23.0333 229.164 22.9047 229.164 22.7739V0H227.646V22.3184L190.46 44.6368L153.992 22.7486L190.849 0.622476L191.897 0H188.947L153.273 21.4074V0H151.756V21.4074L116.087 0H113.815C113.819 0.12594 113.855 0.248894 113.918 0.357633C113.982 0.466373 114.072 0.557422 114.18 0.622476L151.042 22.7486L114.18 44.8696L76.2345 67.6434C76.122 67.7113 76.0289 67.8071 75.9642 67.9214C75.8995 68.0358 75.8654 68.1649 75.8651 68.2963V112.503L39.0684 90.4173C38.8981 90.3231 38.6983 90.2978 38.51 90.3468C38.3216 90.3958 38.1593 90.5152 38.0565 90.6805C38.0051 90.7655 37.971 90.8598 37.9562 90.958C37.9413 91.0563 37.946 91.1564 37.97 91.2529C37.994 91.3493 38.0367 91.44 38.0959 91.5198C38.155 91.5996 38.2293 91.667 38.3145 91.718L75.1771 113.844L38.3145 135.965L0.369324 158.739C0.256844 158.807 0.16379 158.903 0.0990936 159.017C0.0343976 159.131 0.000256122 159.26 0 159.392V204.94C0 205.141 0.0799513 205.334 0.222274 205.476C0.364596 205.619 0.55763 205.699 0.758904 205.699C0.960178 205.699 1.15321 205.619 1.29554 205.476C1.43786 205.334 1.51781 205.141 1.51781 204.94V159.847L38.7041 137.529L75.8904 159.847V203.624L39.0937 181.538C38.9235 181.444 38.7235 181.419 38.5352 181.468C38.3469 181.517 38.1846 181.636 38.0818 181.801C37.9859 181.971 37.9592 182.171 38.0073 182.359C38.0554 182.548 38.1745 182.711 38.3399 182.813L75.2024 204.94L38.2893 227.061C38.2039 227.112 38.1294 227.18 38.0702 227.26C38.011 227.34 37.9683 227.431 37.9443 227.528C37.9203 227.625 37.9157 227.726 37.9306 227.824C37.9455 227.923 37.9797 228.018 38.0312 228.103C38.0983 228.215 38.1931 228.308 38.3066 228.373C38.42 228.438 38.5482 228.472 38.6788 228.473C38.8158 228.473 38.9504 228.436 39.0684 228.366L77.0136 205.592L114.564 183.056L151.037 204.945L114.18 227.061C114.094 227.112 114.02 227.18 113.961 227.26C113.901 227.34 113.859 227.431 113.835 227.528C113.811 227.625 113.806 227.726 113.821 227.824C113.836 227.923 113.87 228.018 113.922 228.103C113.989 228.215 114.084 228.308 114.197 228.373C114.31 228.438 114.439 228.472 114.569 228.473C114.707 228.473 114.842 228.435 114.959 228.361L151.756 206.281V250.487C151.756 250.618 151.79 250.746 151.855 250.86C151.919 250.974 152.013 251.068 152.125 251.135L190.07 273.909C190.119 273.935 190.17 273.957 190.222 273.975H190.257C190.317 273.991 190.378 273.999 190.439 274C190.501 274 190.562 273.991 190.622 273.975H190.652C190.699 273.961 190.745 273.942 190.789 273.919H190.824C190.871 273.89 190.915 273.856 190.956 273.818C190.998 273.775 191.035 273.728 191.067 273.676V273.641C191.082 273.613 191.096 273.584 191.107 273.555C191.11 273.533 191.11 273.511 191.107 273.489C191.107 273.464 191.107 273.438 191.107 273.413C191.11 273.386 191.11 273.359 191.107 273.332C191.11 273.317 191.11 273.302 191.107 273.286V227.739C191.108 227.607 191.074 227.478 191.01 227.363C190.945 227.249 190.851 227.153 190.738 227.086L153.881 204.965L190.348 183.077L227.535 205.395V250.487C227.535 250.487 227.535 250.548 227.535 250.573C227.535 250.599 227.535 250.619 227.535 250.639C227.541 250.665 227.549 250.69 227.56 250.715C227.56 250.715 227.56 250.755 227.56 250.781L227.6 250.847C227.61 250.868 227.622 250.888 227.636 250.907C227.65 250.927 227.665 250.946 227.681 250.963L227.732 251.019L227.783 251.059L227.848 251.11L250.833 264.906L251 263.16ZM77.3829 68.7518L113.81 46.8888V90.6653L77.3829 112.528V68.7518ZM76.624 158.531L40.1562 136.643L76.624 114.755L113.097 136.643L76.624 158.531ZM113.81 181.761L77.3829 203.624V159.847L113.81 137.984V181.761ZM78.1014 113.844L114.569 91.9558L151.042 113.844L114.569 135.732L78.1014 113.844ZM151.756 203.598L115.328 181.735V137.959L151.756 159.822V203.598ZM151.756 158.051L116.047 136.618L151.756 115.185V158.051ZM151.756 112.503L115.328 90.64V46.8636L151.756 68.7265V112.503ZM116.047 45.5224L152.514 23.6342L188.987 45.5224L152.514 67.4106L116.047 45.5224ZM189.701 46.8636V90.64L153.273 112.503V68.7518L189.701 46.8636ZM189.701 228.144V271.92L153.273 250.057V206.281L189.701 228.144ZM153.273 203.598V160.733L188.987 182.166L153.273 203.598ZM189.701 180.825L153.273 158.962V115.185L189.701 137.048V180.825ZM153.992 113.844L190.849 91.718C190.962 91.6516 191.055 91.557 191.12 91.4433C191.185 91.3297 191.219 91.201 191.219 91.0702V46.8636L227.646 68.7265V113.414L190.46 135.732L153.992 113.844ZM191.219 137.073L227.646 115.21V158.987L191.219 180.85V137.073Z" fill="white" fill-opacity="0.6"/>
</svg>
