<svg width="843" height="779" viewBox="0 0 843 779" fill="none" xmlns="http://www.w3.org/2000/svg">
<path d="M130.816 59.9644C96.7872 81.7077 64.2644 108.929 28.4504 145.708L6.54815e-05 181.928L42.564 162.868C80.8326 137.659 115.364 119.325 148.221 106.805C185.095 92.6071 222.081 85.285 257.895 84.8937L271.729 85.1173C274.575 85.2291 277.42 85.5085 280.265 85.788C282.05 85.9557 299.12 87.4089 299.12 87.4089C301.854 87.7442 304.587 88.2474 307.265 88.7505C308.994 89.0858 310.723 89.4212 312.341 89.6448L325.618 91.9923C328.24 92.5513 330.862 93.2779 333.484 94.0604C335.213 94.5635 336.887 95.0106 338.504 95.4578L351.502 98.9792C354.013 99.8177 356.523 100.768 358.977 101.662C360.595 102.277 362.213 102.892 363.831 103.451C392.56 113.959 419.002 128.548 442.599 146.993C445.947 149.62 449.294 152.359 452.529 155.098C474.453 173.823 493.364 196.125 507.701 220.104C509.765 223.514 511.717 226.98 513.558 230.501C528.23 257.89 537.267 287.067 540.391 317.474C541.562 327.312 542.12 337.373 542.12 347.378C542.12 396.845 527.895 446.648 502.011 487.564L501.62 488.178L498.719 494.551C497.604 497.01 496.376 499.805 494.926 502.432L494.647 502.991C491.635 499.972 488.566 496.954 485.498 494.047C478.748 487.619 471.719 481.303 464.635 475.323C450.911 463.64 436.017 452.461 420.341 442.009L395.572 432.618L404.833 457.38C416.101 474.931 424.246 494.718 428.932 516.238C431.833 529.541 433.283 543.459 433.283 557.489C433.283 567.214 432.558 577.164 431.163 587.057C427.593 612.713 419.058 638.202 405.725 662.74C391.668 688.675 372.589 712.71 349.104 734.118L336.05 746.024L355.686 753.961C388.209 766.872 423.075 774.754 459.335 777.381C499.445 780.287 540.279 776.766 580.556 766.873C623.009 756.644 664.457 740.043 703.73 717.629C744.341 694.376 782.443 665.199 816.974 630.935L842.356 605.782L807.211 611.987C784.339 616.011 764.87 618.526 745.903 619.924C735.806 620.706 725.653 621.209 715.835 621.489C711.54 621.601 707.189 621.601 702.893 621.601C723.31 575.263 736.141 526.243 741.217 475.658C742.835 459.504 743.672 443.127 743.672 426.973C743.672 388.014 738.93 349.614 729.67 313.114C728.108 306.183 726.155 299.532 724.315 293.495C722.306 286.564 720.41 280.248 717.843 273.876L710.759 255.039L706.965 245.257C706.017 243.077 704.957 240.953 703.953 238.829L702.503 235.811L692.238 214.962C691.178 212.782 690.118 210.658 688.779 208.255L683.591 199.647C682.141 197.355 680.746 195.063 679.352 192.772C673.829 183.772 668.139 174.438 661.5 166.165C630.819 124.188 591.044 87.5766 546.527 60.1878C503.238 33.5258 456.044 15.4158 406.339 6.30485C358.587 -2.41481 309.719 -2.07954 261.075 7.25499C216.112 15.8628 171.093 34.0849 130.816 59.9644Z" fill="white"/>
<path d="M414.201 451.17C428.984 461.008 443.767 472.019 457.434 483.701C464.352 489.57 471.157 495.663 477.852 502.035C484.378 508.295 490.85 514.835 497.153 521.598C497.153 521.598 501.226 514.891 504.684 507.792C506.581 504.327 508.143 500.694 509.37 498.011C510.598 495.328 511.434 493.539 511.434 493.539C542.786 444.016 559.019 379.96 551.488 316.127C548.252 285.161 538.936 254.195 523.372 225.186C507.864 196.176 486.219 169.29 459.721 146.597C433.223 123.903 401.928 105.458 367.62 92.9372C363.325 91.3722 359.029 89.6395 354.678 88.2421L341.401 84.6647C336.938 83.4909 332.475 82.0935 327.957 81.1433L314.234 78.7398C309.659 77.9573 305.029 76.9511 300.399 76.3921L286.397 75.2184C281.711 74.8271 276.969 74.2682 272.228 74.0446L258.058 73.821C220.124 74.1564 181.577 82.0936 144.256 96.4587C106.88 110.712 70.899 130.946 36.4238 153.64C66.5478 122.729 99.1821 93.5521 136.837 69.5171C174.325 45.4821 217.223 27.1484 263.079 18.317C308.711 9.54143 356.854 8.75884 404.215 17.4227C451.521 26.0864 498.046 43.6375 540.554 69.7965C583.062 95.8996 621.554 130.778 652.347 172.812C660.548 183.04 666.963 194.387 673.936 205.622L679.069 214.062C680.686 216.913 682.081 219.931 683.587 222.838L692.346 240.669C693.796 243.687 695.302 246.649 696.641 249.668L700.211 258.946L707.24 277.671C709.751 283.987 711.591 290.248 713.432 296.508C715.329 302.768 717.17 309.085 718.62 315.512C731.618 366.545 735.356 420.596 729.945 474.423C724.589 528.25 709.806 581.965 685.428 632.383C695.47 632.662 705.678 632.718 715.943 632.495C726.096 632.215 736.304 631.656 746.625 630.874C767.432 629.365 787.906 626.57 809.048 622.825C774.629 656.921 737.141 685.372 698.091 707.73C658.986 730.088 618.151 746.074 577.819 755.856C537.542 765.693 497.432 768.767 460 766.029C422.513 763.346 387.591 754.906 356.519 742.217C381.399 719.524 401.203 694.091 415.484 667.876C429.765 641.662 438.523 614.72 442.205 588.393C445.887 562.122 444.827 536.914 439.806 513.661C434.73 490.409 425.86 469.28 414.201 451.17Z" fill="#9747FF"/>
<path opacity="0.3" d="M414.203 451.17C428.986 461.007 443.769 472.019 457.436 483.701C464.354 489.57 471.159 495.662 477.854 502.034C484.38 508.295 490.852 514.834 497.155 521.598C497.155 521.598 501.227 514.89 504.686 507.792C506.583 504.326 508.145 500.693 509.372 498.01C510.6 495.327 511.436 493.538 511.436 493.538C542.788 444.015 559.021 379.959 551.49 316.127C548.254 285.161 538.938 254.195 523.374 225.185C507.866 196.175 486.221 169.29 459.723 146.596C433.225 123.903 401.93 105.457 367.622 92.9366C363.327 91.3715 359.031 89.6388 354.68 88.2414L341.403 84.664C336.94 83.4902 332.477 82.0928 327.959 81.1426L314.236 78.7391C309.661 77.9566 305.031 76.9504 300.401 76.3914L286.399 75.2177C281.713 74.8264 276.971 74.2675 272.229 74.0439L258.06 73.8203C220.126 74.1557 181.579 82.0929 144.258 96.458C106.882 110.711 70.9009 130.945 36.4257 153.639C36.4257 153.639 40.4421 150.341 47.9731 144.248C55.5599 138.212 66.7727 129.324 81.6116 118.928C96.4504 108.475 114.915 96.4021 137.285 84.72C159.655 73.0378 186.041 61.8029 216.221 54.2012C231.283 50.4003 247.238 47.326 263.918 45.8169C272.23 44.6431 280.765 44.8666 289.411 44.4195C293.707 44.2518 298.114 44.1399 302.465 43.9722C306.872 44.1958 311.279 44.4753 315.686 44.6989C351.221 46.3757 388.542 53.6421 424.802 67.6718C461.062 81.5897 496.207 102.215 527.056 128.989C557.905 155.707 584.347 188.573 603.649 225.297C622.951 262.02 635 302.432 639.909 342.956C644.707 383.536 642.922 424.228 635.112 462.349C631.207 481.409 626.075 499.91 619.604 517.461C613.077 535.013 605.434 551.725 597.011 567.432C588.308 583.027 578.936 597.615 568.951 611.086C558.686 624.333 548.366 636.91 537.265 647.753C515.509 670 492.302 686.992 470.657 700.016C448.957 712.983 428.651 721.759 411.637 727.963C394.455 733.832 380.676 737.465 371.192 739.478C361.653 741.434 356.632 742.496 356.632 742.496C381.513 719.803 401.316 694.37 415.597 668.155C429.878 641.94 438.637 614.999 442.318 588.672C446 562.401 444.94 537.193 439.92 513.94C434.732 490.408 425.862 469.28 414.203 451.17Z" fill="#231F20"/>
</svg>
