<svg width="83" height="30" viewBox="0 0 83 30" fill="none" xmlns="http://www.w3.org/2000/svg">
<path d="M17.0183 25.9111L19.1183 15.4111H23.3633C24.6733 15.4111 25.6833 15.7011 26.3933 16.2811C27.1133 16.8511 27.4733 17.6511 27.4733 18.6811C27.4733 19.5611 27.2683 20.3311 26.8583 20.9911C26.4483 21.6411 25.8583 22.1411 25.0883 22.4911C24.3283 22.8411 23.4233 23.0161 22.3733 23.0161H18.9683L20.2583 21.9061L19.4633 25.9111H17.0183ZM20.1983 22.1911L19.3433 21.0361H22.4783C23.2783 21.0361 23.8983 20.8561 24.3383 20.4961C24.7883 20.1261 25.0133 19.5911 25.0133 18.8911C25.0133 18.3811 24.8433 18.0061 24.5033 17.7661C24.1633 17.5161 23.6833 17.3911 23.0633 17.3911H20.1083L21.3983 16.2061L20.1983 22.1911ZM27.6934 25.9111L29.2984 17.8411H31.5184L31.0534 20.1361L30.8434 19.4761C31.2034 18.8261 31.6734 18.3711 32.2534 18.1111C32.8334 17.8511 33.5284 17.7211 34.3384 17.7211L33.9184 19.8811C33.8184 19.8711 33.7234 19.8661 33.6334 19.8661C33.5534 19.8561 33.4684 19.8511 33.3784 19.8511C32.6884 19.8511 32.1234 20.0211 31.6834 20.3611C31.2534 20.7011 30.9634 21.2511 30.8134 22.0111L30.0334 25.9111H27.6934ZM38.2512 26.0311C37.4312 26.0311 36.7162 25.8811 36.1062 25.5811C35.4962 25.2811 35.0212 24.8611 34.6812 24.3211C34.3512 23.7811 34.1862 23.1461 34.1862 22.4161C34.1862 21.5161 34.3962 20.7161 34.8162 20.0161C35.2362 19.3061 35.8112 18.7461 36.5412 18.3361C37.2812 17.9261 38.1212 17.7211 39.0612 17.7211C39.8912 17.7211 40.6062 17.8711 41.2062 18.1711C41.8162 18.4711 42.2862 18.8911 42.6162 19.4311C42.9562 19.9611 43.1262 20.5961 43.1262 21.3361C43.1262 22.2261 42.9162 23.0261 42.4962 23.7361C42.0762 24.4461 41.5012 25.0061 40.7712 25.4161C40.0412 25.8261 39.2012 26.0311 38.2512 26.0311ZM38.4012 24.1111C38.8612 24.1111 39.2662 24.0011 39.6162 23.7811C39.9762 23.5511 40.2562 23.2361 40.4562 22.8361C40.6562 22.4361 40.7562 21.9711 40.7562 21.4411C40.7562 20.9011 40.5962 20.4661 40.2762 20.1361C39.9562 19.8061 39.5062 19.6411 38.9262 19.6411C38.4662 19.6411 38.0562 19.7561 37.6962 19.9861C37.3462 20.2061 37.0662 20.5161 36.8562 20.9161C36.6562 21.3161 36.5562 21.7811 36.5562 22.3111C36.5562 22.8611 36.7162 23.3011 37.0362 23.6311C37.3562 23.9511 37.8112 24.1111 38.4012 24.1111ZM49.0107 26.0311C48.3607 26.0311 47.7907 25.9061 47.3007 25.6561C46.8207 25.4061 46.4607 25.0211 46.2207 24.5011C45.9807 23.9711 45.8957 23.2911 45.9657 22.4611C46.0257 21.5011 46.2207 20.6661 46.5507 19.9561C46.8907 19.2461 47.3507 18.6961 47.9307 18.3061C48.5107 17.9161 49.1957 17.7211 49.9857 17.7211C50.6157 17.7211 51.1957 17.8661 51.7257 18.1561C52.2557 18.4361 52.6807 18.8461 53.0007 19.3861C53.3207 19.9161 53.4807 20.5661 53.4807 21.3361C53.4807 22.0061 53.3657 22.6311 53.1357 23.2111C52.9057 23.7811 52.5857 24.2761 52.1757 24.6961C51.7757 25.1161 51.3057 25.4461 50.7657 25.6861C50.2257 25.9161 49.6407 26.0311 49.0107 26.0311ZM43.2657 28.8211L45.4557 17.8411H47.6757L47.3457 19.4461L46.8357 21.8461L46.5207 24.2461L45.6057 28.8211H43.2657ZM48.7407 24.0961C49.2107 24.0961 49.6207 23.9861 49.9707 23.7661C50.3207 23.5361 50.5957 23.2261 50.7957 22.8361C51.0057 22.4361 51.1107 21.9711 51.1107 21.4411C51.1107 20.8911 50.9507 20.4561 50.6307 20.1361C50.3107 19.8161 49.8557 19.6561 49.2657 19.6561C48.8157 19.6561 48.4107 19.7711 48.0507 20.0011C47.6907 20.2211 47.4107 20.5311 47.2107 20.9311C47.0107 21.3211 46.9107 21.7811 46.9107 22.3111C46.9107 22.8611 47.0707 23.2961 47.3907 23.6161C47.7107 23.9361 48.1607 24.0961 48.7407 24.0961ZM54.2071 25.9111L55.8121 17.8411H58.1371L56.5321 25.9111H54.2071ZM57.3721 16.7161C56.9621 16.7161 56.6321 16.6011 56.3821 16.3711C56.1321 16.1311 56.0071 15.8411 56.0071 15.5011C56.0071 15.1011 56.1471 14.7711 56.4271 14.5111C56.7171 14.2411 57.0921 14.1061 57.5521 14.1061C57.9621 14.1061 58.2921 14.2211 58.5421 14.4511C58.8021 14.6711 58.9321 14.9461 58.9321 15.2761C58.9321 15.7061 58.7871 16.0561 58.4971 16.3261C58.2171 16.5861 57.8421 16.7161 57.3721 16.7161Z" fill="white"/>
<path d="M62.2592 20.1361H67.3142L66.9092 22.0861H61.8692L62.2592 20.1361ZM61.2992 25.9111H58.8542L60.9542 15.4111H68.8892L68.4842 17.3611H62.9942L61.2992 25.9111ZM68.2843 25.9111L69.8893 17.8411H72.2143L70.6093 25.9111H68.2843ZM71.4493 16.7161C71.0393 16.7161 70.7093 16.6011 70.4593 16.3711C70.2093 16.1311 70.0843 15.8411 70.0843 15.5011C70.0843 15.1011 70.2243 14.7711 70.5043 14.5111C70.7943 14.2411 71.1693 14.1061 71.6293 14.1061C72.0393 14.1061 72.3693 14.2211 72.6193 14.4511C72.8793 14.6711 73.0093 14.9461 73.0093 15.2761C73.0093 15.7061 72.8643 16.0561 72.5743 16.3261C72.2943 16.5861 71.9193 16.7161 71.4493 16.7161ZM71.7013 25.9111L76.3513 21.1411L76.0513 22.3261L73.5913 17.8411H76.0213L77.7013 20.9461L76.6213 20.9311L79.5463 17.8411H82.1263L77.6863 22.4611L77.8813 21.2161L80.4913 25.9111H78.0163L76.2913 22.7011H77.3863L74.3713 25.9111H71.7013Z" fill="#CAB2E5"/>
<path d="M21.1196 0H25.2374L13.799 12.6186H9.68111L21.1196 0Z" fill="#CAB2E5"/>
<path d="M25.7054 0.104114L23.2513 2.81107L31.8821 12.6186H36L25.7054 0.104114Z" fill="#CAB2E5"/>
<path d="M11.4385 0H15.5563L4.11785 12.6186H0L11.4385 0Z" fill="#CAB2E5"/>
<path d="M16.3778 0H20.4957L4.4818 17.1996H0.363951L16.3778 0Z" fill="white"/>
</svg>
