<svg width="644" height="18" viewBox="0 0 644 18" fill="none" xmlns="http://www.w3.org/2000/svg">
<path d="M2 9L300 8.99997" stroke="black" stroke-opacity="0.6" stroke-width="3" stroke-linecap="round"/>
<path d="M344 9L642 8.99997" stroke="black" stroke-opacity="0.6" stroke-width="3" stroke-linecap="round"/>
<path d="M316.567 14.12C315.767 14.12 315.022 13.985 314.332 13.715C313.652 13.445 313.062 13.07 312.562 12.59C312.062 12.1 311.672 11.53 311.392 10.88C311.112 10.23 310.972 9.52 310.972 8.75C310.972 7.98 311.112 7.27 311.392 6.62C311.672 5.97 312.062 5.405 312.562 4.925C313.062 4.435 313.652 4.055 314.332 3.785C315.012 3.515 315.757 3.38 316.567 3.38C317.367 3.38 318.102 3.515 318.772 3.785C319.452 4.045 320.042 4.42 320.542 4.91C321.052 5.39 321.442 5.955 321.712 6.605C321.992 7.255 322.132 7.97 322.132 8.75C322.132 9.53 321.992 10.245 321.712 10.895C321.442 11.545 321.052 12.115 320.542 12.605C320.042 13.085 319.452 13.46 318.772 13.73C318.102 13.99 317.367 14.12 316.567 14.12ZM316.567 12.785C317.147 12.785 317.682 12.685 318.172 12.485C318.672 12.285 319.102 12.005 319.462 11.645C319.832 11.275 320.117 10.845 320.317 10.355C320.527 9.865 320.632 9.33 320.632 8.75C320.632 8.17 320.527 7.635 320.317 7.145C320.117 6.655 319.832 6.23 319.462 5.87C319.102 5.5 318.672 5.215 318.172 5.015C317.682 4.815 317.147 4.715 316.567 4.715C315.977 4.715 315.432 4.815 314.932 5.015C314.442 5.215 314.012 5.5 313.642 5.87C313.272 6.23 312.982 6.655 312.772 7.145C312.572 7.635 312.472 8.17 312.472 8.75C312.472 9.33 312.572 9.865 312.772 10.355C312.982 10.845 313.272 11.275 313.642 11.645C314.012 12.005 314.442 12.285 314.932 12.485C315.432 12.685 315.977 12.785 316.567 12.785ZM324.425 14V3.5H328.52C329.44 3.5 330.225 3.645 330.875 3.935C331.525 4.225 332.025 4.645 332.375 5.195C332.725 5.745 332.9 6.4 332.9 7.16C332.9 7.92 332.725 8.575 332.375 9.125C332.025 9.665 331.525 10.08 330.875 10.37C330.225 10.66 329.44 10.805 328.52 10.805H325.25L325.925 10.115V14H324.425ZM331.445 14L328.775 10.19H330.38L333.08 14H331.445ZM325.925 10.265L325.25 9.53H328.475C329.435 9.53 330.16 9.325 330.65 8.915C331.15 8.495 331.4 7.91 331.4 7.16C331.4 6.41 331.15 5.83 330.65 5.42C330.16 5.01 329.435 4.805 328.475 4.805H325.25L325.925 4.055V10.265Z" fill="black" fill-opacity="0.6"/>
</svg>
