<svg width="83" height="30" viewBox="0 0 83 30" fill="none" xmlns="http://www.w3.org/2000/svg">
<path d="M17.018 25.9112L19.118 15.4112H23.363C24.673 15.4112 25.683 15.7012 26.393 16.2812C27.113 16.8512 27.473 17.6512 27.473 18.6812C27.473 19.5612 27.268 20.3312 26.858 20.9912C26.448 21.6412 25.858 22.1412 25.088 22.4912C24.328 22.8412 23.423 23.0162 22.373 23.0162H18.968L20.258 21.9062L19.463 25.9112H17.018ZM20.198 22.1912L19.343 21.0362H22.478C23.278 21.0362 23.898 20.8562 24.338 20.4962C24.788 20.1262 25.013 19.5912 25.013 18.8912C25.013 18.3812 24.843 18.0062 24.503 17.7662C24.163 17.5162 23.683 17.3912 23.063 17.3912H20.108L21.398 16.2062L20.198 22.1912ZM27.6932 25.9112L29.2982 17.8412H31.5182L31.0532 20.1362L30.8432 19.4762C31.2032 18.8262 31.6732 18.3712 32.2532 18.1112C32.8332 17.8512 33.5282 17.7212 34.3382 17.7212L33.9182 19.8812C33.8182 19.8712 33.7232 19.8662 33.6332 19.8662C33.5532 19.8562 33.4682 19.8512 33.3782 19.8512C32.6882 19.8512 32.1232 20.0212 31.6832 20.3612C31.2532 20.7012 30.9632 21.2512 30.8132 22.0112L30.0332 25.9112H27.6932ZM38.251 26.0312C37.431 26.0312 36.716 25.8812 36.106 25.5812C35.496 25.2812 35.021 24.8612 34.681 24.3212C34.351 23.7812 34.186 23.1462 34.186 22.4162C34.186 21.5162 34.396 20.7162 34.816 20.0162C35.236 19.3062 35.811 18.7462 36.541 18.3362C37.281 17.9262 38.121 17.7212 39.061 17.7212C39.891 17.7212 40.606 17.8712 41.206 18.1712C41.816 18.4712 42.286 18.8912 42.616 19.4312C42.956 19.9612 43.126 20.5962 43.126 21.3362C43.126 22.2262 42.916 23.0262 42.496 23.7362C42.076 24.4462 41.501 25.0062 40.771 25.4162C40.041 25.8262 39.201 26.0312 38.251 26.0312ZM38.401 24.1112C38.861 24.1112 39.266 24.0012 39.616 23.7812C39.976 23.5512 40.256 23.2362 40.456 22.8362C40.656 22.4362 40.756 21.9712 40.756 21.4412C40.756 20.9012 40.596 20.4662 40.276 20.1362C39.956 19.8062 39.506 19.6412 38.926 19.6412C38.466 19.6412 38.056 19.7562 37.696 19.9862C37.346 20.2062 37.066 20.5162 36.856 20.9162C36.656 21.3162 36.556 21.7812 36.556 22.3112C36.556 22.8612 36.716 23.3012 37.036 23.6312C37.356 23.9512 37.811 24.1112 38.401 24.1112ZM49.0104 26.0312C48.3604 26.0312 47.7904 25.9062 47.3004 25.6562C46.8204 25.4062 46.4604 25.0212 46.2204 24.5012C45.9804 23.9712 45.8954 23.2912 45.9654 22.4612C46.0254 21.5012 46.2204 20.6662 46.5504 19.9562C46.8904 19.2462 47.3504 18.6962 47.9304 18.3062C48.5104 17.9162 49.1954 17.7212 49.9854 17.7212C50.6154 17.7212 51.1954 17.8662 51.7254 18.1562C52.2554 18.4362 52.6804 18.8462 53.0004 19.3862C53.3204 19.9162 53.4804 20.5662 53.4804 21.3362C53.4804 22.0062 53.3654 22.6312 53.1354 23.2112C52.9054 23.7812 52.5854 24.2762 52.1754 24.6962C51.7754 25.1162 51.3054 25.4462 50.7654 25.6862C50.2254 25.9162 49.6404 26.0312 49.0104 26.0312ZM43.2654 28.8212L45.4554 17.8412H47.6754L47.3454 19.4462L46.8354 21.8462L46.5204 24.2462L45.6054 28.8212H43.2654ZM48.7404 24.0962C49.2104 24.0962 49.6204 23.9862 49.9704 23.7662C50.3204 23.5362 50.5954 23.2262 50.7954 22.8362C51.0054 22.4362 51.1104 21.9712 51.1104 21.4412C51.1104 20.8912 50.9504 20.4562 50.6304 20.1362C50.3104 19.8162 49.8554 19.6562 49.2654 19.6562C48.8154 19.6562 48.4104 19.7712 48.0504 20.0012C47.6904 20.2212 47.4104 20.5312 47.2104 20.9312C47.0104 21.3212 46.9104 21.7812 46.9104 22.3112C46.9104 22.8612 47.0704 23.2962 47.3904 23.6162C47.7104 23.9362 48.1604 24.0962 48.7404 24.0962ZM54.2069 25.9112L55.8119 17.8412H58.1369L56.5319 25.9112H54.2069ZM57.3719 16.7162C56.9619 16.7162 56.6319 16.6012 56.3819 16.3712C56.1319 16.1312 56.0069 15.8412 56.0069 15.5012C56.0069 15.1012 56.1469 14.7712 56.4269 14.5112C56.7169 14.2412 57.0919 14.1062 57.5519 14.1062C57.9619 14.1062 58.2919 14.2212 58.5419 14.4512C58.8019 14.6712 58.9319 14.9462 58.9319 15.2762C58.9319 15.7062 58.7869 16.0562 58.4969 16.3262C58.2169 16.5862 57.8419 16.7162 57.3719 16.7162Z" fill="#5D14AD"/>
<path d="M62.2589 20.1362H67.3139L66.9089 22.0862H61.8689L62.2589 20.1362ZM61.2989 25.9112H58.8539L60.9539 15.4112H68.8889L68.4839 17.3612H62.9939L61.2989 25.9112ZM68.284 25.9112L69.889 17.8412H72.214L70.609 25.9112H68.284ZM71.449 16.7162C71.039 16.7162 70.709 16.6012 70.459 16.3712C70.209 16.1312 70.084 15.8412 70.084 15.5012C70.084 15.1012 70.224 14.7712 70.504 14.5112C70.794 14.2412 71.169 14.1062 71.629 14.1062C72.039 14.1062 72.369 14.2212 72.619 14.4512C72.879 14.6712 73.009 14.9462 73.009 15.2762C73.009 15.7062 72.864 16.0562 72.574 16.3262C72.294 16.5862 71.919 16.7162 71.449 16.7162ZM71.7011 25.9112L76.3511 21.1412L76.0511 22.3262L73.5911 17.8412H76.0211L77.7011 20.9462L76.6211 20.9312L79.5461 17.8412H82.1261L77.6861 22.4612L77.8811 21.2162L80.4911 25.9112H78.0161L76.2911 22.7012H77.3861L74.3711 25.9112H71.7011Z" fill="#9D71C6"/>
<path d="M21.1196 0H25.2374L13.799 12.6186H9.68111L21.1196 0Z" fill="#9D71C6"/>
<path d="M25.7054 0.104114L23.2513 2.81107L31.8821 12.6186H36L25.7054 0.104114Z" fill="#9D71C6"/>
<path d="M11.4385 0H15.5563L4.11785 12.6186H0L11.4385 0Z" fill="#9D71C6"/>
<path d="M16.3778 0H20.4957L4.4818 17.1996H0.363951L16.3778 0Z" fill="#5D14AD"/>
</svg>
