<svg width="455" height="280" viewBox="0 0 455 280" fill="none" xmlns="http://www.w3.org/2000/svg">
<g clip-path="url(#clip0_4086_14030)">
<path d="M0 20C0 8.95431 8.95431 0 20 0H435C446.046 0 455 8.95431 455 20V260C455 271.046 446.046 280 435 280H20C8.9543 280 0 271.046 0 260V20Z" fill="url(#paint0_linear_4086_14030)"/>
<path d="M183.756 87.4399L187.551 68.4641H195.223C197.59 68.4641 199.415 68.9882 200.698 70.0364C202 71.0665 202.65 72.5123 202.65 74.3737C202.65 75.9641 202.28 77.3556 201.539 78.5484C200.798 79.7231 199.732 80.6267 198.34 81.2592C196.967 81.8918 195.331 82.208 193.433 82.208H187.28L189.611 80.202L188.174 87.4399H183.756ZM189.503 80.7171L187.958 78.6297H193.623C195.069 78.6297 196.189 78.3044 196.985 77.6538C197.798 76.9852 198.205 76.0183 198.205 74.7532C198.205 73.8315 197.897 73.1538 197.283 72.7201C196.668 72.2683 195.801 72.0424 194.68 72.0424H189.34L191.671 69.9008L189.503 80.7171ZM203.048 87.4399L205.949 72.8556H209.961L209.12 77.0032L208.741 75.8105C209.392 74.6358 210.241 73.8135 211.289 73.3436C212.337 72.8737 213.593 72.6388 215.057 72.6388L214.298 76.5424C214.117 76.5243 213.946 76.5153 213.783 76.5153C213.639 76.4972 213.485 76.4882 213.322 76.4882C212.075 76.4882 211.054 76.7954 210.259 77.4099C209.482 78.0243 208.958 79.0183 208.687 80.3918L207.277 87.4399H203.048ZM222.128 87.6568C220.647 87.6568 219.354 87.3857 218.252 86.8436C217.15 86.3014 216.291 85.5424 215.677 84.5665C215.08 83.5906 214.782 82.443 214.782 81.1237C214.782 79.4972 215.162 78.0514 215.921 76.7864C216.68 75.5032 217.719 74.4912 219.038 73.7502C220.375 73.0093 221.894 72.6388 223.592 72.6388C225.092 72.6388 226.384 72.9099 227.469 73.452C228.571 73.9942 229.421 74.7532 230.017 75.7291C230.631 76.687 230.939 77.8345 230.939 79.1719C230.939 80.7803 230.559 82.2261 229.8 83.5092C229.041 84.7924 228.002 85.8044 226.683 86.5454C225.363 87.2863 223.845 87.6568 222.128 87.6568ZM222.4 84.1869C223.231 84.1869 223.963 83.9881 224.595 83.5906C225.246 83.1749 225.752 82.6056 226.113 81.8827C226.475 81.1598 226.656 80.3195 226.656 79.3617C226.656 78.3858 226.366 77.5996 225.788 77.0032C225.21 76.4068 224.397 76.1086 223.348 76.1086C222.517 76.1086 221.776 76.3165 221.125 76.7321C220.493 77.1297 219.987 77.69 219.607 78.4129C219.246 79.1357 219.065 79.9761 219.065 80.9339C219.065 81.9279 219.354 82.7231 219.933 83.3195C220.511 83.8978 221.333 84.1869 222.4 84.1869ZM241.573 87.6568C240.399 87.6568 239.368 87.4309 238.483 86.9791C237.615 86.5273 236.965 85.8315 236.531 84.8918C236.097 83.9339 235.944 82.705 236.07 81.205C236.179 79.4701 236.531 77.9611 237.127 76.6779C237.742 75.3948 238.573 74.4008 239.621 73.696C240.67 72.9912 241.908 72.6388 243.335 72.6388C244.474 72.6388 245.522 72.9008 246.48 73.4249C247.438 73.9309 248.206 74.6719 248.784 75.6478C249.362 76.6056 249.652 77.7803 249.652 79.1719C249.652 80.3827 249.444 81.5122 249.028 82.5604C248.612 83.5906 248.034 84.4851 247.293 85.2442C246.57 86.0032 245.721 86.5996 244.745 87.0333C243.769 87.449 242.712 87.6568 241.573 87.6568ZM231.191 92.699L235.149 72.8556H239.161L238.564 75.7562L237.643 80.0936L237.073 84.4309L235.42 92.699H231.191ZM241.085 84.1598C241.935 84.1598 242.676 83.961 243.308 83.5634C243.941 83.1478 244.438 82.5875 244.799 81.8827C245.179 81.1598 245.368 80.3195 245.368 79.3617C245.368 78.3677 245.079 77.5815 244.501 77.0032C243.923 76.4249 243.1 76.1358 242.034 76.1358C241.221 76.1358 240.489 76.3436 239.838 76.7592C239.188 77.1568 238.682 77.7171 238.32 78.44C237.959 79.1448 237.778 79.9761 237.778 80.9339C237.778 81.9279 238.067 82.7141 238.646 83.2924C239.224 83.8707 240.037 84.1598 241.085 84.1598ZM250.964 87.4399L253.865 72.8556H258.067L255.166 87.4399H250.964ZM256.684 70.8225C255.943 70.8225 255.347 70.6147 254.895 70.199C254.443 69.7653 254.217 69.2412 254.217 68.6267C254.217 67.9039 254.47 67.3075 254.976 66.8376C255.5 66.3496 256.178 66.1057 257.01 66.1057C257.75 66.1057 258.347 66.3135 258.799 66.7292C259.269 67.1267 259.503 67.6237 259.503 68.2201C259.503 68.9972 259.241 69.6298 258.717 70.1177C258.211 70.5876 257.534 70.8225 256.684 70.8225Z" fill="#5D14AD"/>
<path d="M265.516 77.0032H274.652L273.92 80.5273H264.811L265.516 77.0032ZM263.781 87.4399H259.363L263.158 68.4641H277.498L276.766 71.9882H266.845L263.781 87.4399ZM276.405 87.4399L279.306 72.8556H283.507L280.607 87.4399H276.405ZM282.125 70.8225C281.384 70.8225 280.787 70.6147 280.336 70.199C279.884 69.7653 279.658 69.2412 279.658 68.6267C279.658 67.9039 279.911 67.3075 280.417 66.8376C280.941 66.3496 281.619 66.1057 282.45 66.1057C283.191 66.1057 283.787 66.3135 284.239 66.7292C284.709 67.1267 284.944 67.6237 284.944 68.2201C284.944 68.9972 284.682 69.6298 284.158 70.1177C283.652 70.5876 282.974 70.8225 282.125 70.8225ZM282.58 87.4399L290.984 78.8195L290.442 80.961L285.996 72.8556H290.388L293.424 78.4671L291.472 78.44L296.758 72.8556H301.421L293.397 81.205L293.749 78.955L298.466 87.4399H293.993L290.875 81.6388H292.854L287.406 87.4399H282.58Z" fill="#9D71C6"/>
<path d="M191.168 40H198.61L177.938 62.7135H170.496L191.168 40Z" fill="#9D71C6"/>
<path d="M199.455 40.1874L195.02 45.0599L210.618 62.7135H218.06L199.455 40.1874Z" fill="#9D71C6"/>
<path d="M173.672 40H181.114L160.442 62.7135H153L173.672 40Z" fill="#9D71C6"/>
<path d="M182.598 40H190.04L161.1 70.9593H153.658L182.598 40Z" fill="#5D14AD"/>
<path d="M363.219 0V8.30978C363.219 8.35745 363.232 8.40425 363.256 8.44565C363.279 8.48706 363.313 8.52168 363.354 8.54614L377.241 16.8559C377.285 16.8817 377.334 16.8957 377.384 16.8966C377.434 16.8961 377.484 16.8821 377.527 16.8559L391.414 8.54614C391.425 8.53919 391.435 8.53115 391.445 8.52214L391.458 8.51106C391.467 8.50336 391.475 8.49469 391.482 8.48521L391.495 8.47043L391.512 8.44273C391.511 8.43658 391.511 8.43042 391.512 8.42427C391.513 8.41505 391.513 8.40579 391.512 8.39657C391.513 8.3886 391.513 8.38053 391.512 8.37256C391.513 8.36458 391.513 8.35653 391.512 8.34855C391.513 8.33811 391.513 8.32761 391.512 8.31717V0.00738242H390.956V8.15097L377.347 16.2946L363.738 8.15097V0.00738242L363.219 0Z" fill="#5D14AD"/>
<path d="M455 96.0437L447.015 91.2617V74.9617L455 70.1797V69.5333L446.738 74.4814L433.403 66.493L446.88 58.4178C446.922 58.3936 446.956 58.3591 446.979 58.3176C447.003 58.2761 447.016 58.2292 447.015 58.1814V42.0476L455 46.8296V46.1831L447.278 41.5655L455 36.948V36.3015L447.015 41.0835V25.0919L455 20.3099V19.6635L446.738 24.6117L433.403 16.6233L446.88 8.54805C446.922 8.52385 446.956 8.48929 446.979 8.44781C447.003 8.40633 447.016 8.35938 447.015 8.31163V0H446.46V8.14539L432.863 16.2908L419.528 8.30239L433.005 0.227181L433.388 0H432.31L419.265 7.81293V0H418.71V7.81293L405.668 0H404.837C404.838 0.0459634 404.851 0.0908371 404.875 0.130523C404.898 0.170209 404.931 0.203439 404.97 0.227181L418.449 8.30239L404.97 16.3758L391.095 24.6874C391.054 24.7122 391.02 24.7471 390.996 24.7888C390.973 24.8306 390.96 24.8777 390.96 24.9257V41.0595L377.505 32.999C377.443 32.9646 377.37 32.9554 377.301 32.9733C377.232 32.9912 377.173 33.0347 377.135 33.0951C377.116 33.1261 377.104 33.1605 377.098 33.1964C377.093 33.2322 377.095 33.2688 377.103 33.304C377.112 33.3391 377.128 33.3723 377.149 33.4014C377.171 33.4305 377.198 33.4551 377.229 33.4737L390.709 41.5489L377.229 49.6223L363.354 57.9339C363.313 57.9587 363.279 57.9936 363.255 58.0354C363.232 58.0771 363.219 58.1242 363.219 58.1722V74.7954C363.219 74.8689 363.248 74.9394 363.301 74.9913C363.353 75.0433 363.423 75.0725 363.497 75.0725C363.57 75.0725 363.641 75.0433 363.693 74.9913C363.745 74.9394 363.774 74.8689 363.774 74.7954V58.3384L377.372 50.193L390.969 58.3384V74.3152L377.514 66.2548C377.452 66.2204 377.379 66.2112 377.31 66.229C377.241 66.2469 377.182 66.2905 377.144 66.3508C377.109 66.4127 377.099 66.4856 377.117 66.5545C377.135 66.6233 377.178 66.6827 377.239 66.7202L390.718 74.7954L377.22 82.8688C377.189 82.8876 377.162 82.9123 377.14 82.9416C377.118 82.9709 377.103 83.0042 377.094 83.0395C377.085 83.0749 377.084 83.1116 377.089 83.1476C377.094 83.1836 377.107 83.2181 377.126 83.2493C377.15 83.2902 377.185 83.3241 377.226 83.3477C377.268 83.3714 377.315 83.3839 377.363 83.3841C377.413 83.3842 377.462 83.3708 377.505 83.3453L391.38 75.0337L405.111 66.8089L418.448 74.7973L404.97 82.8688C404.939 82.8876 404.912 82.9123 404.89 82.9416C404.869 82.9709 404.853 83.0042 404.844 83.0395C404.835 83.0749 404.834 83.1116 404.839 83.1476C404.845 83.1836 404.857 83.2181 404.876 83.2493C404.9 83.2902 404.935 83.3241 404.977 83.3477C405.018 83.3714 405.065 83.3839 405.113 83.3841C405.163 83.3844 405.213 83.3703 405.255 83.3435L418.71 75.2849V91.4187C418.71 91.4664 418.723 91.5133 418.746 91.5547C418.77 91.5962 418.804 91.6308 418.845 91.6551L432.72 99.9668C432.738 99.9762 432.757 99.9842 432.776 99.9908H432.789C432.811 99.9967 432.833 99.9998 432.855 100C432.878 99.9999 432.9 99.9968 432.922 99.9908H432.933C432.95 99.9856 432.967 99.9788 432.983 99.9705H432.996C433.013 99.9598 433.029 99.9474 433.044 99.9335C433.06 99.9179 433.073 99.9006 433.085 99.8818V99.8689C433.091 99.8588 433.095 99.8483 433.1 99.8375C433.101 99.8295 433.101 99.8214 433.1 99.8135C433.1 99.8042 433.1 99.795 433.1 99.7858C433.101 99.7759 433.101 99.766 433.1 99.7562C433.101 99.7507 433.101 99.7451 433.1 99.7396V83.1163C433.1 83.0683 433.088 83.021 433.064 82.9792C433.04 82.9374 433.006 82.9025 432.965 82.878L419.487 74.8047L432.822 66.8163L446.42 74.9617V91.4187C446.42 91.4187 446.42 91.4409 446.42 91.4501C446.42 91.4593 446.42 91.4667 446.42 91.4741C446.422 91.4836 446.425 91.4929 446.429 91.5018C446.429 91.5018 446.429 91.5166 446.429 91.5258L446.444 91.5498C446.447 91.5576 446.452 91.565 446.457 91.572C446.462 91.5792 446.467 91.586 446.473 91.5923L446.492 91.6126L446.51 91.6274L446.534 91.6459L454.939 96.6809L455 96.0437ZM391.515 25.0919L404.835 17.1127V33.0895L391.515 41.0687V25.0919ZM391.238 57.8582L377.903 49.8698L391.238 41.8814L404.574 49.8698L391.238 57.8582ZM404.835 66.336L391.515 74.3152V58.3384L404.835 50.3592V66.336ZM391.778 41.5489L405.113 33.5605L418.449 41.5489L405.113 49.5373L391.778 41.5489ZM418.71 74.306L405.39 66.3268V50.35L418.71 58.3292V74.306ZM418.71 57.6827L405.653 49.8605L418.71 42.0384V57.6827ZM418.71 41.0595L405.39 33.0803V17.1035L418.71 25.0827V41.0595ZM405.653 16.614L418.988 8.62562L432.325 16.614L418.988 24.6024L405.653 16.614ZM432.585 17.1035V33.0803L419.265 41.0595V25.0919L432.585 17.1035ZM432.585 83.2641V99.2409L419.265 91.2617V75.2849L432.585 83.2641ZM419.265 74.306V58.6616L432.325 66.4838L419.265 74.306ZM432.585 65.9943L419.265 58.0152V42.0384L432.585 50.0175V65.9943ZM419.528 41.5489L433.005 33.4737C433.047 33.4495 433.081 33.4149 433.104 33.3735C433.128 33.332 433.14 33.285 433.14 33.2373V17.1035L446.46 25.0827V41.3919L432.863 49.5373L419.528 41.5489ZM433.14 50.0268L446.46 42.0476V58.0244L433.14 66.0036V50.0268Z" fill="#5D14AD"/>
<path d="M60.5843 188L57.0407 190.122L53.4972 188H52.8984L56.7408 190.301L41.634 199.349L26.5262 190.301L30.3687 188H29.7709L26.3814 190.03V188H26.0733V190.03L22.6838 188H22.085L25.9274 190.301L10.7405 199.396C10.7179 199.41 10.6992 199.429 10.6862 199.452C10.6733 199.475 10.6665 199.501 10.6666 199.527V217.71L0 211.322V211.681L10.5207 217.98L0 224.281V224.64L10.8206 218.16L25.9274 227.207L10.7405 236.303L0 242.735V243.093L10.6666 236.705V254.615L0 248.229V248.587L10.6666 254.974V273.069L0 266.682V267.04L10.5207 273.34L0 279.641V280L10.9038 273.473L26.3105 264.246L26.3229 264.236C26.3286 264.232 26.3341 264.228 26.3393 264.223C26.3447 264.218 26.3495 264.212 26.3537 264.205C26.3571 264.201 26.3602 264.198 26.3629 264.194V264.186C26.367 264.177 26.3704 264.169 26.3732 264.16C26.3737 264.156 26.3737 264.153 26.3732 264.15C26.3732 264.14 26.3732 264.131 26.3732 264.123C26.3732 264.115 26.3732 264.123 26.3732 264.116V245.932L41.5457 255.019H41.5519C41.5603 255.024 41.5692 255.029 41.5786 255.032H41.5889C41.6012 255.033 41.6135 255.033 41.6258 255.032C41.6381 255.033 41.6505 255.033 41.6628 255.032H41.6721C41.6814 255.029 41.6904 255.024 41.6988 255.019H41.7049L57.1116 245.793C57.1345 245.779 57.1534 245.76 57.1665 245.736C57.1796 245.713 57.1865 245.687 57.1866 245.66V227.295L72.4392 218.161L87.6919 227.295V245.661C87.6919 245.702 87.7081 245.741 87.737 245.77C87.7659 245.799 87.8051 245.815 87.8459 245.815C87.8868 245.815 87.926 245.799 87.9549 245.77C87.9838 245.741 88 245.702 88 245.661V227.208C87.9999 227.182 87.993 227.155 87.9799 227.132C87.9668 227.109 87.9479 227.09 87.925 227.076L72.5183 217.849C72.4942 217.835 72.4667 217.828 72.4387 217.828C72.4108 217.828 72.3833 217.835 72.3591 217.849L56.9524 227.076C56.9452 227.08 56.9383 227.086 56.9319 227.091C56.9319 227.097 56.9216 227.103 56.9165 227.11L56.9052 227.129C56.905 227.132 56.905 227.134 56.9052 227.136C56.9052 227.136 56.9052 227.149 56.899 227.155V227.165V227.18C56.899 227.18 56.899 227.191 56.899 227.196V245.573L41.8004 254.615V236.434C41.8003 236.407 41.7933 236.381 41.7802 236.358C41.7671 236.335 41.7482 236.316 41.7255 236.303L26.5262 227.207L41.7172 218.113L57.1239 208.886C57.1468 208.872 57.1657 208.853 57.1788 208.83C57.1919 208.807 57.1989 208.78 57.1989 208.754V190.572L72.3714 199.659C72.3888 199.67 72.408 199.677 72.428 199.68C72.448 199.683 72.4684 199.682 72.4881 199.677C72.5077 199.672 72.5262 199.664 72.5425 199.652C72.5588 199.64 72.5726 199.624 72.583 199.607C72.5935 199.59 72.6004 199.571 72.6035 199.551C72.6065 199.531 72.6055 199.51 72.6007 199.491C72.5958 199.471 72.5871 199.453 72.5751 199.436C72.5631 199.42 72.548 199.406 72.5306 199.396L57.3396 190.301L61.1831 188H60.5843ZM10.9747 199.614L26.0733 190.572V208.668L10.9747 217.71V199.614ZM10.9747 236.705L25.9274 245.66L10.9747 254.615V236.705ZM10.9747 273.069V255.159L25.9274 264.114L10.9747 273.069ZM26.0733 263.842L11.1195 254.887L26.0733 245.932V263.842ZM26.0733 245.389L11.1195 236.434L26.0733 227.479V245.389ZM41.48 236.521V254.615L26.3814 245.573V227.479L41.48 236.521ZM26.2273 227.029L11.1195 217.98L26.2273 208.933L41.3341 217.98L26.2273 227.029ZM41.48 217.71L26.3814 208.668V190.572L41.48 199.614V217.71ZM56.8867 208.668L41.7881 217.71V199.614L56.8867 190.572V208.668Z" fill="#5D14AD"/>
<path d="M75.2233 133.16C74.5166 133.16 73.8233 133.087 73.1433 132.94C72.4766 132.78 71.8633 132.573 71.3033 132.32C70.7566 132.067 70.3166 131.78 69.9833 131.46L70.8633 129.86C71.2233 130.18 71.6433 130.46 72.1233 130.7C72.6166 130.94 73.1366 131.127 73.6833 131.26C74.2433 131.393 74.8166 131.46 75.4033 131.46C76.1499 131.46 76.8099 131.367 77.3833 131.18C77.9566 130.993 78.3966 130.727 78.7033 130.38C79.0233 130.02 79.1833 129.587 79.1833 129.08C79.1833 128.667 79.0499 128.327 78.7833 128.06C78.5166 127.793 78.1699 127.58 77.7433 127.42C77.3299 127.247 76.8633 127.093 76.3433 126.96C75.8366 126.813 75.3233 126.653 74.8033 126.48C74.2966 126.293 73.8299 126.067 73.4033 125.8C72.9899 125.533 72.6499 125.193 72.3833 124.78C72.1299 124.353 72.0033 123.82 72.0033 123.18C72.0033 122.287 72.2499 121.52 72.7433 120.88C73.2366 120.227 73.9166 119.727 74.7833 119.38C75.6633 119.02 76.6766 118.84 77.8233 118.84C78.6899 118.84 79.5166 118.94 80.3033 119.14C81.0899 119.34 81.7633 119.633 82.3233 120.02L81.5233 121.66C81.0033 121.287 80.4166 121.007 79.7633 120.82C79.1099 120.633 78.4299 120.54 77.7233 120.54C76.9633 120.54 76.3033 120.64 75.7433 120.84C75.1833 121.04 74.7499 121.327 74.4433 121.7C74.1366 122.06 73.9766 122.487 73.9633 122.98C73.9633 123.407 74.0899 123.753 74.3433 124.02C74.5966 124.287 74.9366 124.507 75.3633 124.68C75.7899 124.853 76.2566 125.02 76.7633 125.18C77.2833 125.327 77.7966 125.487 78.3033 125.66C78.8099 125.82 79.2766 126.033 79.7033 126.3C80.1433 126.553 80.4899 126.88 80.7433 127.28C81.0099 127.68 81.1433 128.187 81.1433 128.8C81.1433 129.693 80.8899 130.473 80.3833 131.14C79.8899 131.793 79.1966 132.293 78.3033 132.64C77.4233 132.987 76.3966 133.16 75.2233 133.16ZM88.1252 133.12C87.0852 133.12 86.1852 132.933 85.4252 132.56C84.6652 132.173 84.0785 131.64 83.6652 130.96C83.2518 130.267 83.0452 129.453 83.0452 128.52C83.0452 127.32 83.3052 126.253 83.8252 125.32C84.3452 124.387 85.0518 123.653 85.9452 123.12C86.8518 122.573 87.8785 122.3 89.0252 122.3C89.9852 122.3 90.8185 122.487 91.5252 122.86C92.2318 123.22 92.7785 123.74 93.1652 124.42C93.5652 125.1 93.7652 125.92 93.7652 126.88C93.7652 127.12 93.7518 127.367 93.7252 127.62C93.6985 127.86 93.6652 128.087 93.6252 128.3H84.4452L84.6852 126.9H92.7052L91.9252 127.38C92.0452 126.633 91.9918 126.007 91.7652 125.5C91.5385 124.98 91.1785 124.587 90.6852 124.32C90.2052 124.04 89.6252 123.9 88.9452 123.9C88.1452 123.9 87.4385 124.093 86.8252 124.48C86.2252 124.853 85.7585 125.38 85.4252 126.06C85.0918 126.727 84.9252 127.513 84.9252 128.42C84.9252 129.38 85.1985 130.127 85.7452 130.66C86.3052 131.18 87.1518 131.44 88.2852 131.44C88.9518 131.44 89.5718 131.333 90.1452 131.12C90.7185 130.893 91.1918 130.593 91.5652 130.22L92.3852 131.6C91.8785 132.093 91.2452 132.473 90.4852 132.74C89.7252 132.993 88.9385 133.12 88.1252 133.12ZM99.9517 133.12C99.0584 133.12 98.2584 132.94 97.5517 132.58C96.8451 132.207 96.2851 131.68 95.8717 131C95.4717 130.32 95.2717 129.5 95.2717 128.54C95.2717 127.633 95.4184 126.8 95.7117 126.04C96.0184 125.28 96.4384 124.62 96.9717 124.06C97.5184 123.5 98.1584 123.067 98.8917 122.76C99.6251 122.453 100.418 122.3 101.272 122.3C102.192 122.3 102.972 122.46 103.612 122.78C104.252 123.1 104.745 123.573 105.092 124.2C105.438 124.813 105.612 125.567 105.612 126.46C105.612 127.767 105.385 128.927 104.932 129.94C104.478 130.94 103.825 131.72 102.972 132.28C102.132 132.84 101.125 133.12 99.9517 133.12ZM100.372 131.44C101.172 131.44 101.885 131.247 102.512 130.86C103.138 130.473 103.625 129.947 103.972 129.28C104.332 128.6 104.512 127.827 104.512 126.96C104.512 126.027 104.238 125.3 103.692 124.78C103.145 124.247 102.365 123.98 101.352 123.98C100.565 123.98 99.8584 124.173 99.2317 124.56C98.6051 124.933 98.1117 125.46 97.7517 126.14C97.3917 126.807 97.2117 127.58 97.2117 128.46C97.2117 129.38 97.4851 130.107 98.0317 130.64C98.5784 131.173 99.3584 131.44 100.372 131.44ZM103.432 133L103.992 130.26L104.632 127.8L104.892 125.28L105.452 122.4H107.372L105.272 133H103.432ZM124.005 122.3C124.951 122.3 125.731 122.487 126.345 122.86C126.958 123.233 127.385 123.78 127.625 124.5C127.878 125.207 127.898 126.06 127.685 127.06L126.505 133H124.585L125.765 127.06C125.965 126.1 125.878 125.353 125.505 124.82C125.145 124.287 124.485 124.02 123.525 124.02C122.551 124.02 121.745 124.293 121.105 124.84C120.465 125.387 120.031 126.22 119.805 127.34L118.665 133H116.745L117.945 127.06C118.131 126.1 118.038 125.353 117.665 124.82C117.305 124.287 116.645 124.02 115.685 124.02C114.711 124.02 113.905 124.3 113.265 124.86C112.625 125.407 112.191 126.253 111.965 127.4L110.845 133H108.925L111.025 122.4H112.865L112.265 125.44L111.905 124.62C112.398 123.82 113.018 123.233 113.765 122.86C114.525 122.487 115.365 122.3 116.285 122.3C117.005 122.3 117.631 122.42 118.165 122.66C118.698 122.9 119.118 123.26 119.425 123.74C119.745 124.207 119.931 124.773 119.985 125.44L118.945 125.24C119.491 124.253 120.191 123.52 121.045 123.04C121.911 122.547 122.898 122.3 124.005 122.3ZM130.057 133L133.017 118.16H134.937L131.977 133H130.057ZM140.703 133.12C139.663 133.12 138.763 132.933 138.003 132.56C137.243 132.173 136.657 131.64 136.243 130.96C135.83 130.267 135.623 129.453 135.623 128.52C135.623 127.32 135.883 126.253 136.403 125.32C136.923 124.387 137.63 123.653 138.523 123.12C139.43 122.573 140.457 122.3 141.603 122.3C142.563 122.3 143.397 122.487 144.103 122.86C144.81 123.22 145.357 123.74 145.743 124.42C146.143 125.1 146.343 125.92 146.343 126.88C146.343 127.12 146.33 127.367 146.303 127.62C146.277 127.86 146.243 128.087 146.203 128.3H137.023L137.263 126.9H145.283L144.503 127.38C144.623 126.633 144.57 126.007 144.343 125.5C144.117 124.98 143.757 124.587 143.263 124.32C142.783 124.04 142.203 123.9 141.523 123.9C140.723 123.9 140.017 124.093 139.403 124.48C138.803 124.853 138.337 125.38 138.003 126.06C137.67 126.727 137.503 127.513 137.503 128.42C137.503 129.38 137.777 130.127 138.323 130.66C138.883 131.18 139.73 131.44 140.863 131.44C141.53 131.44 142.15 131.333 142.723 131.12C143.297 130.893 143.77 130.593 144.143 130.22L144.963 131.6C144.457 132.093 143.823 132.473 143.063 132.74C142.303 132.993 141.517 133.12 140.703 133.12ZM151.21 133.12C150.317 133.12 149.47 133.007 148.67 132.78C147.883 132.54 147.277 132.247 146.85 131.9L147.71 130.38C148.123 130.7 148.657 130.96 149.31 131.16C149.977 131.36 150.67 131.46 151.39 131.46C152.31 131.46 153.003 131.32 153.47 131.04C153.937 130.76 154.17 130.38 154.17 129.9C154.17 129.553 154.03 129.293 153.75 129.12C153.47 128.933 153.103 128.793 152.65 128.7C152.21 128.593 151.737 128.493 151.23 128.4C150.723 128.293 150.25 128.147 149.81 127.96C149.37 127.773 149.003 127.507 148.71 127.16C148.43 126.8 148.29 126.327 148.29 125.74C148.29 125.033 148.49 124.427 148.89 123.92C149.29 123.4 149.85 123 150.57 122.72C151.29 122.44 152.13 122.3 153.09 122.3C153.783 122.3 154.463 122.387 155.13 122.56C155.81 122.72 156.363 122.953 156.79 123.26L156.03 124.78C155.59 124.473 155.097 124.26 154.55 124.14C154.003 124.007 153.457 123.94 152.91 123.94C152.017 123.94 151.343 124.093 150.89 124.4C150.437 124.693 150.21 125.067 150.21 125.52C150.21 125.867 150.35 126.14 150.63 126.34C150.91 126.527 151.27 126.673 151.71 126.78C152.163 126.887 152.637 126.993 153.13 127.1C153.637 127.193 154.11 127.333 154.55 127.52C155.003 127.693 155.37 127.953 155.65 128.3C155.93 128.633 156.07 129.093 156.07 129.68C156.07 130.413 155.863 131.04 155.45 131.56C155.05 132.067 154.483 132.453 153.75 132.72C153.017 132.987 152.17 133.12 151.21 133.12ZM161.229 133.12C160.336 133.12 159.489 133.007 158.689 132.78C157.903 132.54 157.296 132.247 156.869 131.9L157.729 130.38C158.143 130.7 158.676 130.96 159.329 131.16C159.996 131.36 160.689 131.46 161.409 131.46C162.329 131.46 163.023 131.32 163.489 131.04C163.956 130.76 164.189 130.38 164.189 129.9C164.189 129.553 164.049 129.293 163.769 129.12C163.489 128.933 163.123 128.793 162.669 128.7C162.229 128.593 161.756 128.493 161.249 128.4C160.743 128.293 160.269 128.147 159.829 127.96C159.389 127.773 159.023 127.507 158.729 127.16C158.449 126.8 158.309 126.327 158.309 125.74C158.309 125.033 158.509 124.427 158.909 123.92C159.309 123.4 159.869 123 160.589 122.72C161.309 122.44 162.149 122.3 163.109 122.3C163.803 122.3 164.483 122.387 165.149 122.56C165.829 122.72 166.383 122.953 166.809 123.26L166.049 124.78C165.609 124.473 165.116 124.26 164.569 124.14C164.023 124.007 163.476 123.94 162.929 123.94C162.036 123.94 161.363 124.093 160.909 124.4C160.456 124.693 160.229 125.067 160.229 125.52C160.229 125.867 160.369 126.14 160.649 126.34C160.929 126.527 161.289 126.673 161.729 126.78C162.183 126.887 162.656 126.993 163.149 127.1C163.656 127.193 164.129 127.333 164.569 127.52C165.023 127.693 165.389 127.953 165.669 128.3C165.949 128.633 166.089 129.093 166.089 129.68C166.089 130.413 165.883 131.04 165.469 131.56C165.069 132.067 164.503 132.453 163.769 132.72C163.036 132.987 162.189 133.12 161.229 133.12ZM176.92 133.12C176.28 133.12 175.727 132.98 175.26 132.7C174.807 132.42 174.48 132.02 174.28 131.5C174.093 130.98 174.067 130.367 174.2 129.66L176.12 120.08H178.04L176.12 129.62C176.027 130.193 176.08 130.653 176.28 131C176.493 131.333 176.887 131.5 177.46 131.5C177.727 131.5 177.993 131.46 178.26 131.38C178.527 131.287 178.767 131.16 178.98 131L179.38 132.46C179.02 132.713 178.62 132.887 178.18 132.98C177.753 133.073 177.333 133.12 176.92 133.12ZM173.54 123.98L173.84 122.4H180.62L180.3 123.98H173.54ZM181.561 133L183.661 122.4H185.501L184.901 125.48L184.701 124.72C185.195 123.827 185.821 123.2 186.581 122.84C187.341 122.48 188.281 122.3 189.401 122.3L189.041 124.16C188.961 124.147 188.881 124.14 188.801 124.14C188.721 124.14 188.635 124.14 188.541 124.14C187.488 124.14 186.615 124.427 185.921 125C185.241 125.573 184.781 126.473 184.541 127.7L183.481 133H181.561ZM194.19 133.12C193.297 133.12 192.497 132.94 191.79 132.58C191.083 132.207 190.523 131.68 190.11 131C189.71 130.32 189.51 129.5 189.51 128.54C189.51 127.633 189.657 126.8 189.95 126.04C190.257 125.28 190.677 124.62 191.21 124.06C191.757 123.5 192.397 123.067 193.13 122.76C193.863 122.453 194.657 122.3 195.51 122.3C196.43 122.3 197.21 122.46 197.85 122.78C198.49 123.1 198.983 123.573 199.33 124.2C199.677 124.813 199.85 125.567 199.85 126.46C199.85 127.767 199.623 128.927 199.17 129.94C198.717 130.94 198.063 131.72 197.21 132.28C196.37 132.84 195.363 133.12 194.19 133.12ZM194.61 131.44C195.41 131.44 196.123 131.247 196.75 130.86C197.377 130.473 197.863 129.947 198.21 129.28C198.57 128.6 198.75 127.827 198.75 126.96C198.75 126.027 198.477 125.3 197.93 124.78C197.383 124.247 196.603 123.98 195.59 123.98C194.803 123.98 194.097 124.173 193.47 124.56C192.843 124.933 192.35 125.46 191.99 126.14C191.63 126.807 191.45 127.58 191.45 128.46C191.45 129.38 191.723 130.107 192.27 130.64C192.817 131.173 193.597 131.44 194.61 131.44ZM197.67 133L198.23 130.26L198.87 127.8L199.13 125.28L199.69 122.4H201.61L199.51 133H197.67ZM210.683 122.3C211.616 122.3 212.396 122.487 213.023 122.86C213.649 123.233 214.083 123.78 214.323 124.5C214.576 125.207 214.603 126.06 214.403 127.06L213.223 133H211.303L212.483 127.06C212.683 126.1 212.589 125.353 212.203 124.82C211.816 124.287 211.123 124.02 210.123 124.02C209.096 124.02 208.243 124.3 207.563 124.86C206.883 125.407 206.429 126.253 206.203 127.4L205.083 133H203.163L205.263 122.4H207.103L206.503 125.44L206.143 124.62C206.649 123.82 207.289 123.233 208.063 122.86C208.849 122.487 209.723 122.3 210.683 122.3ZM220.116 133.12C219.223 133.12 218.376 133.007 217.576 132.78C216.789 132.54 216.183 132.247 215.756 131.9L216.616 130.38C217.029 130.7 217.563 130.96 218.216 131.16C218.883 131.36 219.576 131.46 220.296 131.46C221.216 131.46 221.909 131.32 222.376 131.04C222.843 130.76 223.076 130.38 223.076 129.9C223.076 129.553 222.936 129.293 222.656 129.12C222.376 128.933 222.009 128.793 221.556 128.7C221.116 128.593 220.643 128.493 220.136 128.4C219.629 128.293 219.156 128.147 218.716 127.96C218.276 127.773 217.909 127.507 217.616 127.16C217.336 126.8 217.196 126.327 217.196 125.74C217.196 125.033 217.396 124.427 217.796 123.92C218.196 123.4 218.756 123 219.476 122.72C220.196 122.44 221.036 122.3 221.996 122.3C222.689 122.3 223.369 122.387 224.036 122.56C224.716 122.72 225.269 122.953 225.696 123.26L224.936 124.78C224.496 124.473 224.003 124.26 223.456 124.14C222.909 124.007 222.363 123.94 221.816 123.94C220.923 123.94 220.249 124.093 219.796 124.4C219.343 124.693 219.116 125.067 219.116 125.52C219.116 125.867 219.256 126.14 219.536 126.34C219.816 126.527 220.176 126.673 220.616 126.78C221.069 126.887 221.543 126.993 222.036 127.1C222.543 127.193 223.016 127.333 223.456 127.52C223.909 127.693 224.276 127.953 224.556 128.3C224.836 128.633 224.976 129.093 224.976 129.68C224.976 130.413 224.769 131.04 224.356 131.56C223.956 132.067 223.389 132.453 222.656 132.72C221.923 132.987 221.076 133.12 220.116 133.12ZM231.456 133.12C230.562 133.12 229.762 132.94 229.056 132.58C228.349 132.207 227.789 131.68 227.376 131C226.976 130.32 226.776 129.5 226.776 128.54C226.776 127.633 226.922 126.8 227.216 126.04C227.522 125.28 227.942 124.62 228.476 124.06C229.022 123.5 229.662 123.067 230.396 122.76C231.129 122.453 231.922 122.3 232.776 122.3C233.696 122.3 234.476 122.46 235.116 122.78C235.756 123.1 236.249 123.573 236.596 124.2C236.942 124.813 237.116 125.567 237.116 126.46C237.116 127.767 236.889 128.927 236.436 129.94C235.982 130.94 235.329 131.72 234.476 132.28C233.636 132.84 232.629 133.12 231.456 133.12ZM231.876 131.44C232.676 131.44 233.389 131.247 234.016 130.86C234.642 130.473 235.129 129.947 235.476 129.28C235.836 128.6 236.016 127.827 236.016 126.96C236.016 126.027 235.742 125.3 235.196 124.78C234.649 124.247 233.869 123.98 232.856 123.98C232.069 123.98 231.362 124.173 230.736 124.56C230.109 124.933 229.616 125.46 229.256 126.14C228.896 126.807 228.716 127.58 228.716 128.46C228.716 129.38 228.989 130.107 229.536 130.64C230.082 131.173 230.862 131.44 231.876 131.44ZM234.936 133L235.496 130.26L236.136 127.8L236.396 125.28L236.956 122.4H238.876L236.776 133H234.936ZM245.448 133.12C244.422 133.12 243.528 132.933 242.768 132.56C242.022 132.173 241.442 131.64 241.028 130.96C240.615 130.267 240.408 129.46 240.408 128.54C240.408 127.34 240.675 126.273 241.208 125.34C241.742 124.393 242.482 123.653 243.428 123.12C244.375 122.573 245.448 122.3 246.648 122.3C247.675 122.3 248.555 122.493 249.288 122.88C250.022 123.253 250.595 123.827 251.008 124.6L249.388 125.5C249.122 124.98 248.742 124.6 248.248 124.36C247.768 124.107 247.188 123.98 246.508 123.98C245.708 123.98 244.995 124.173 244.368 124.56C243.742 124.933 243.248 125.46 242.888 126.14C242.528 126.807 242.348 127.58 242.348 128.46C242.348 129.38 242.622 130.107 243.168 130.64C243.728 131.173 244.515 131.44 245.528 131.44C246.155 131.44 246.742 131.313 247.288 131.06C247.848 130.807 248.315 130.433 248.688 129.94L250.088 130.94C249.608 131.62 248.955 132.153 248.128 132.54C247.302 132.927 246.408 133.12 245.448 133.12ZM255.631 133.12C254.991 133.12 254.438 132.98 253.971 132.7C253.518 132.42 253.191 132.02 252.991 131.5C252.804 130.98 252.778 130.367 252.911 129.66L254.831 120.08H256.751L254.831 129.62C254.738 130.193 254.791 130.653 254.991 131C255.204 131.333 255.598 131.5 256.171 131.5C256.438 131.5 256.704 131.46 256.971 131.38C257.238 131.287 257.478 131.16 257.691 131L258.091 132.46C257.731 132.713 257.331 132.887 256.891 132.98C256.464 133.073 256.044 133.12 255.631 133.12ZM252.251 123.98L252.551 122.4H259.331L259.011 123.98H252.251ZM260.272 133L262.372 122.4H264.292L262.192 133H260.272ZM263.892 120.36C263.532 120.36 263.239 120.247 263.012 120.02C262.799 119.793 262.692 119.52 262.692 119.2C262.692 118.827 262.819 118.513 263.072 118.26C263.326 117.993 263.659 117.86 264.072 117.86C264.419 117.86 264.706 117.973 264.932 118.2C265.172 118.413 265.292 118.673 265.292 118.98C265.292 119.393 265.166 119.727 264.912 119.98C264.659 120.233 264.319 120.36 263.892 120.36ZM270.818 133.12C269.805 133.12 268.925 132.933 268.178 132.56C267.445 132.173 266.871 131.64 266.458 130.96C266.045 130.267 265.838 129.46 265.838 128.54C265.838 127.34 266.105 126.273 266.638 125.34C267.171 124.393 267.905 123.653 268.838 123.12C269.785 122.573 270.858 122.3 272.058 122.3C273.058 122.3 273.931 122.487 274.678 122.86C275.425 123.233 275.998 123.76 276.398 124.44C276.811 125.12 277.018 125.927 277.018 126.86C277.018 128.06 276.751 129.133 276.218 130.08C275.685 131.013 274.951 131.753 274.018 132.3C273.098 132.847 272.031 133.12 270.818 133.12ZM270.938 131.44C271.738 131.44 272.451 131.247 273.078 130.86C273.705 130.473 274.191 129.947 274.538 129.28C274.898 128.6 275.078 127.827 275.078 126.96C275.078 126.027 274.805 125.3 274.258 124.78C273.711 124.247 272.931 123.98 271.918 123.98C271.131 123.98 270.425 124.173 269.798 124.56C269.171 124.933 268.678 125.46 268.318 126.14C267.958 126.807 267.778 127.58 267.778 128.46C267.778 129.38 268.051 130.107 268.598 130.64C269.145 131.173 269.925 131.44 270.938 131.44ZM286.073 122.3C287.007 122.3 287.787 122.487 288.413 122.86C289.04 123.233 289.473 123.78 289.713 124.5C289.967 125.207 289.993 126.06 289.793 127.06L288.613 133H286.693L287.873 127.06C288.073 126.1 287.98 125.353 287.593 124.82C287.207 124.287 286.513 124.02 285.513 124.02C284.487 124.02 283.633 124.3 282.953 124.86C282.273 125.407 281.82 126.253 281.593 127.4L280.473 133H278.553L280.653 122.4H282.493L281.893 125.44L281.533 124.62C282.04 123.82 282.68 123.233 283.453 122.86C284.24 122.487 285.113 122.3 286.073 122.3ZM295.507 133.12C294.613 133.12 293.767 133.007 292.967 132.78C292.18 132.54 291.573 132.247 291.147 131.9L292.007 130.38C292.42 130.7 292.953 130.96 293.607 131.16C294.273 131.36 294.967 131.46 295.687 131.46C296.607 131.46 297.3 131.32 297.767 131.04C298.233 130.76 298.467 130.38 298.467 129.9C298.467 129.553 298.327 129.293 298.047 129.12C297.767 128.933 297.4 128.793 296.947 128.7C296.507 128.593 296.033 128.493 295.527 128.4C295.02 128.293 294.547 128.147 294.107 127.96C293.667 127.773 293.3 127.507 293.007 127.16C292.727 126.8 292.587 126.327 292.587 125.74C292.587 125.033 292.787 124.427 293.187 123.92C293.587 123.4 294.147 123 294.867 122.72C295.587 122.44 296.427 122.3 297.387 122.3C298.08 122.3 298.76 122.387 299.427 122.56C300.107 122.72 300.66 122.953 301.087 123.26L300.327 124.78C299.887 124.473 299.393 124.26 298.847 124.14C298.3 124.007 297.753 123.94 297.207 123.94C296.313 123.94 295.64 124.093 295.187 124.4C294.733 124.693 294.507 125.067 294.507 125.52C294.507 125.867 294.647 126.14 294.927 126.34C295.207 126.527 295.567 126.673 296.007 126.78C296.46 126.887 296.933 126.993 297.427 127.1C297.933 127.193 298.407 127.333 298.847 127.52C299.3 127.693 299.667 127.953 299.947 128.3C300.227 128.633 300.367 129.093 300.367 129.68C300.367 130.413 300.16 131.04 299.747 131.56C299.347 132.067 298.78 132.453 298.047 132.72C297.313 132.987 296.467 133.12 295.507 133.12ZM300.806 135.96L302.626 131.92L302.806 133.12C302.446 133.12 302.14 133 301.886 132.76C301.646 132.507 301.526 132.2 301.526 131.84C301.526 131.4 301.666 131.047 301.946 130.78C302.226 130.513 302.56 130.38 302.946 130.38C303.306 130.38 303.606 130.5 303.846 130.74C304.086 130.98 304.206 131.293 304.206 131.68C304.206 131.893 304.166 132.093 304.086 132.28C304.02 132.467 303.906 132.693 303.746 132.96L302.066 135.96H300.806ZM315.729 133.12C315.089 133.12 314.535 132.98 314.069 132.7C313.615 132.42 313.289 132.02 313.089 131.5C312.902 130.98 312.875 130.367 313.009 129.66L314.929 120.08H316.849L314.929 129.62C314.835 130.193 314.889 130.653 315.089 131C315.302 131.333 315.695 131.5 316.269 131.5C316.535 131.5 316.802 131.46 317.069 131.38C317.335 131.287 317.575 131.16 317.789 131L318.189 132.46C317.829 132.713 317.429 132.887 316.989 132.98C316.562 133.073 316.142 133.12 315.729 133.12ZM312.349 123.98L312.649 122.4H319.429L319.109 123.98H312.349ZM320.37 133L322.47 122.4H324.31L323.71 125.48L323.51 124.72C324.003 123.827 324.63 123.2 325.39 122.84C326.15 122.48 327.09 122.3 328.21 122.3L327.85 124.16C327.77 124.147 327.69 124.14 327.61 124.14C327.53 124.14 327.443 124.14 327.35 124.14C326.297 124.14 325.423 124.427 324.73 125C324.05 125.573 323.59 126.473 323.35 127.7L322.29 133H320.37ZM333.073 133.12C332.166 133.12 331.4 132.933 330.773 132.56C330.16 132.187 329.726 131.647 329.473 130.94C329.22 130.22 329.193 129.353 329.393 128.34L330.573 122.4H332.493L331.313 128.36C331.126 129.307 331.22 130.053 331.593 130.6C331.98 131.133 332.66 131.4 333.633 131.4C334.633 131.4 335.473 131.12 336.153 130.56C336.833 130 337.286 129.153 337.513 128.02L338.633 122.4H340.553L338.453 133H336.613L337.213 129.96L337.553 130.78C337.06 131.58 336.42 132.173 335.633 132.56C334.86 132.933 334.006 133.12 333.073 133.12ZM345.448 133.12C344.555 133.12 343.708 133.007 342.908 132.78C342.121 132.54 341.515 132.247 341.088 131.9L341.948 130.38C342.361 130.7 342.895 130.96 343.548 131.16C344.215 131.36 344.908 131.46 345.628 131.46C346.548 131.46 347.241 131.32 347.708 131.04C348.175 130.76 348.408 130.38 348.408 129.9C348.408 129.553 348.268 129.293 347.988 129.12C347.708 128.933 347.341 128.793 346.888 128.7C346.448 128.593 345.975 128.493 345.468 128.4C344.961 128.293 344.488 128.147 344.048 127.96C343.608 127.773 343.241 127.507 342.948 127.16C342.668 126.8 342.528 126.327 342.528 125.74C342.528 125.033 342.728 124.427 343.128 123.92C343.528 123.4 344.088 123 344.808 122.72C345.528 122.44 346.368 122.3 347.328 122.3C348.021 122.3 348.701 122.387 349.368 122.56C350.048 122.72 350.601 122.953 351.028 123.26L350.268 124.78C349.828 124.473 349.335 124.26 348.788 124.14C348.241 124.007 347.695 123.94 347.148 123.94C346.255 123.94 345.581 124.093 345.128 124.4C344.675 124.693 344.448 125.067 344.448 125.52C344.448 125.867 344.588 126.14 344.868 126.34C345.148 126.527 345.508 126.673 345.948 126.78C346.401 126.887 346.875 126.993 347.368 127.1C347.875 127.193 348.348 127.333 348.788 127.52C349.241 127.693 349.608 127.953 349.888 128.3C350.168 128.633 350.308 129.093 350.308 129.68C350.308 130.413 350.101 131.04 349.688 131.56C349.288 132.067 348.721 132.453 347.988 132.72C347.255 132.987 346.408 133.12 345.448 133.12ZM355.768 133.12C355.128 133.12 354.574 132.98 354.108 132.7C353.654 132.42 353.328 132.02 353.128 131.5C352.941 130.98 352.914 130.367 353.048 129.66L354.968 120.08H356.888L354.968 129.62C354.874 130.193 354.928 130.653 355.128 131C355.341 131.333 355.734 131.5 356.308 131.5C356.574 131.5 356.841 131.46 357.108 131.38C357.374 131.287 357.614 131.16 357.828 131L358.228 132.46C357.868 132.713 357.468 132.887 357.028 132.98C356.601 133.073 356.181 133.12 355.768 133.12ZM352.388 123.98L352.688 122.4H359.468L359.148 123.98H352.388ZM365.117 133.12C364.077 133.12 363.177 132.933 362.417 132.56C361.657 132.173 361.071 131.64 360.657 130.96C360.244 130.267 360.037 129.453 360.037 128.52C360.037 127.32 360.297 126.253 360.817 125.32C361.337 124.387 362.044 123.653 362.937 123.12C363.844 122.573 364.871 122.3 366.017 122.3C366.977 122.3 367.811 122.487 368.517 122.86C369.224 123.22 369.771 123.74 370.157 124.42C370.557 125.1 370.757 125.92 370.757 126.88C370.757 127.12 370.744 127.367 370.717 127.62C370.691 127.86 370.657 128.087 370.617 128.3H361.437L361.677 126.9H369.697L368.917 127.38C369.037 126.633 368.984 126.007 368.757 125.5C368.531 124.98 368.171 124.587 367.677 124.32C367.197 124.04 366.617 123.9 365.937 123.9C365.137 123.9 364.431 124.093 363.817 124.48C363.217 124.853 362.751 125.38 362.417 126.06C362.084 126.727 361.917 127.513 361.917 128.42C361.917 129.38 362.191 130.127 362.737 130.66C363.297 131.18 364.144 131.44 365.277 131.44C365.944 131.44 366.564 131.333 367.137 131.12C367.711 130.893 368.184 130.593 368.557 130.22L369.377 131.6C368.871 132.093 368.237 132.473 367.477 132.74C366.717 132.993 365.931 133.12 365.117 133.12ZM376.944 133.12C376.051 133.12 375.251 132.94 374.544 132.58C373.837 132.207 373.277 131.68 372.864 131C372.464 130.32 372.264 129.5 372.264 128.54C372.264 127.633 372.411 126.8 372.704 126.04C373.011 125.28 373.431 124.62 373.964 124.06C374.511 123.5 375.151 123.067 375.884 122.76C376.617 122.453 377.411 122.3 378.264 122.3C379.184 122.3 379.964 122.46 380.604 122.78C381.244 123.1 381.737 123.573 382.084 124.2C382.431 124.813 382.604 125.567 382.604 126.46C382.604 127.447 382.477 128.347 382.224 129.16C381.971 129.973 381.591 130.68 381.084 131.28C380.591 131.867 379.997 132.32 379.304 132.64C378.611 132.96 377.824 133.12 376.944 133.12ZM377.364 131.44C378.164 131.44 378.877 131.247 379.504 130.86C380.131 130.473 380.617 129.947 380.964 129.28C381.324 128.6 381.504 127.827 381.504 126.96C381.504 126.027 381.231 125.3 380.684 124.78C380.137 124.247 379.357 123.98 378.344 123.98C377.557 123.98 376.851 124.173 376.224 124.56C375.597 124.933 375.104 125.46 374.744 126.14C374.384 126.807 374.204 127.58 374.204 128.46C374.204 129.38 374.477 130.107 375.024 130.64C375.571 131.173 376.351 131.44 377.364 131.44ZM380.424 133L380.984 130.26L381.604 127.8L381.884 125.28L383.304 118.16H385.224L382.264 133H380.424ZM65.2101 157.12C64.3034 157.12 63.5234 156.96 62.8701 156.64C62.2301 156.307 61.7367 155.833 61.3901 155.22C61.0434 154.593 60.8701 153.84 60.8701 152.96C60.8701 151.627 61.0967 150.467 61.5501 149.48C62.0034 148.48 62.6501 147.7 63.4901 147.14C64.3434 146.58 65.3567 146.3 66.5301 146.3C67.4367 146.3 68.2367 146.48 68.9301 146.84C69.6367 147.2 70.1901 147.727 70.5901 148.42C71.0034 149.1 71.2101 149.913 71.2101 150.86C71.2101 151.767 71.0567 152.6 70.7501 153.36C70.4567 154.12 70.0367 154.78 69.4901 155.34C68.9567 155.9 68.3234 156.34 67.5901 156.66C66.8567 156.967 66.0634 157.12 65.2101 157.12ZM58.3301 160.88L61.2101 146.4H63.0501L62.4901 149.14L61.8701 151.6L61.5901 154.12L60.2501 160.88H58.3301ZM65.1301 155.44C65.9301 155.44 66.6367 155.247 67.2501 154.86C67.8767 154.473 68.3701 153.947 68.7301 153.28C69.0901 152.6 69.2701 151.827 69.2701 150.96C69.2701 150.027 68.9967 149.3 68.4501 148.78C67.9034 148.247 67.1234 147.98 66.1101 147.98C65.3234 147.98 64.6101 148.173 63.9701 148.56C63.3434 148.933 62.8501 149.46 62.4901 150.14C62.1434 150.807 61.9701 151.58 61.9701 152.46C61.9701 153.38 62.2434 154.107 62.7901 154.64C63.3367 155.173 64.1167 155.44 65.1301 155.44ZM72.7429 157L74.8429 146.4H76.6829L76.0829 149.48L75.8829 148.72C76.3762 147.827 77.0029 147.2 77.7629 146.84C78.5229 146.48 79.4629 146.3 80.5829 146.3L80.2229 148.16C80.1429 148.147 80.0629 148.14 79.9829 148.14C79.9029 148.14 79.8162 148.14 79.7229 148.14C78.6696 148.14 77.7962 148.427 77.1029 149C76.4229 149.573 75.9629 150.473 75.7229 151.7L74.6629 157H72.7429ZM85.6716 157.12C84.6583 157.12 83.7783 156.933 83.0316 156.56C82.2983 156.173 81.725 155.64 81.3116 154.96C80.8983 154.267 80.6916 153.46 80.6916 152.54C80.6916 151.34 80.9583 150.273 81.4916 149.34C82.025 148.393 82.7583 147.653 83.6916 147.12C84.6383 146.573 85.7116 146.3 86.9116 146.3C87.9116 146.3 88.785 146.487 89.5316 146.86C90.2783 147.233 90.8516 147.76 91.2516 148.44C91.665 149.12 91.8716 149.927 91.8716 150.86C91.8716 152.06 91.605 153.133 91.0716 154.08C90.5383 155.013 89.805 155.753 88.8716 156.3C87.9516 156.847 86.885 157.12 85.6716 157.12ZM85.7916 155.44C86.5916 155.44 87.305 155.247 87.9316 154.86C88.5583 154.473 89.045 153.947 89.3916 153.28C89.7516 152.6 89.9316 151.827 89.9316 150.96C89.9316 150.027 89.6583 149.3 89.1116 148.78C88.565 148.247 87.785 147.98 86.7716 147.98C85.985 147.98 85.2783 148.173 84.6516 148.56C84.025 148.933 83.5316 149.46 83.1716 150.14C82.8116 150.807 82.6316 151.58 82.6316 152.46C82.6316 153.38 82.905 154.107 83.4516 154.64C83.9983 155.173 84.7783 155.44 85.7916 155.44ZM93.667 157L96.007 145.4C96.2203 144.333 96.6536 143.507 97.307 142.92C97.9736 142.333 98.847 142.04 99.927 142.04C100.367 142.04 100.78 142.1 101.167 142.22C101.567 142.327 101.894 142.487 102.147 142.7L101.347 144.12C100.974 143.787 100.5 143.62 99.927 143.62C99.3536 143.62 98.8936 143.78 98.547 144.1C98.2136 144.42 97.9803 144.907 97.847 145.56L97.547 146.94L97.447 147.74L95.587 157H93.667ZM93.667 147.98L93.967 146.4H100.747L100.427 147.98H93.667ZM105.361 157.12C104.321 157.12 103.421 156.933 102.661 156.56C101.901 156.173 101.315 155.64 100.901 154.96C100.488 154.267 100.281 153.453 100.281 152.52C100.281 151.32 100.541 150.253 101.061 149.32C101.581 148.387 102.288 147.653 103.181 147.12C104.088 146.573 105.115 146.3 106.261 146.3C107.221 146.3 108.055 146.487 108.761 146.86C109.468 147.22 110.015 147.74 110.401 148.42C110.801 149.1 111.001 149.92 111.001 150.88C111.001 151.12 110.988 151.367 110.961 151.62C110.935 151.86 110.901 152.087 110.861 152.3H101.681L101.921 150.9H109.941L109.161 151.38C109.281 150.633 109.228 150.007 109.001 149.5C108.775 148.98 108.415 148.587 107.921 148.32C107.441 148.04 106.861 147.9 106.181 147.9C105.381 147.9 104.675 148.093 104.061 148.48C103.461 148.853 102.995 149.38 102.661 150.06C102.328 150.727 102.161 151.513 102.161 152.42C102.161 153.38 102.435 154.127 102.981 154.66C103.541 155.18 104.388 155.44 105.521 155.44C106.188 155.44 106.808 155.333 107.381 155.12C107.955 154.893 108.428 154.593 108.801 154.22L109.621 155.6C109.115 156.093 108.481 156.473 107.721 156.74C106.961 156.993 106.175 157.12 105.361 157.12ZM115.868 157.12C114.975 157.12 114.128 157.007 113.328 156.78C112.541 156.54 111.935 156.247 111.508 155.9L112.368 154.38C112.781 154.7 113.315 154.96 113.968 155.16C114.635 155.36 115.328 155.46 116.048 155.46C116.968 155.46 117.661 155.32 118.128 155.04C118.595 154.76 118.828 154.38 118.828 153.9C118.828 153.553 118.688 153.293 118.408 153.12C118.128 152.933 117.761 152.793 117.308 152.7C116.868 152.593 116.395 152.493 115.888 152.4C115.381 152.293 114.908 152.147 114.468 151.96C114.028 151.773 113.661 151.507 113.368 151.16C113.088 150.8 112.948 150.327 112.948 149.74C112.948 149.033 113.148 148.427 113.548 147.92C113.948 147.4 114.508 147 115.228 146.72C115.948 146.44 116.788 146.3 117.748 146.3C118.441 146.3 119.121 146.387 119.788 146.56C120.468 146.72 121.021 146.953 121.448 147.26L120.688 148.78C120.248 148.473 119.755 148.26 119.208 148.14C118.661 148.007 118.115 147.94 117.568 147.94C116.675 147.94 116.001 148.093 115.548 148.4C115.095 148.693 114.868 149.067 114.868 149.52C114.868 149.867 115.008 150.14 115.288 150.34C115.568 150.527 115.928 150.673 116.368 150.78C116.821 150.887 117.295 150.993 117.788 151.1C118.295 151.193 118.768 151.333 119.208 151.52C119.661 151.693 120.028 151.953 120.308 152.3C120.588 152.633 120.728 153.093 120.728 153.68C120.728 154.413 120.521 155.04 120.108 155.56C119.708 156.067 119.141 156.453 118.408 156.72C117.675 156.987 116.828 157.12 115.868 157.12ZM125.888 157.12C124.994 157.12 124.148 157.007 123.348 156.78C122.561 156.54 121.954 156.247 121.528 155.9L122.388 154.38C122.801 154.7 123.334 154.96 123.988 155.16C124.654 155.36 125.348 155.46 126.068 155.46C126.988 155.46 127.681 155.32 128.148 155.04C128.614 154.76 128.848 154.38 128.848 153.9C128.848 153.553 128.708 153.293 128.428 153.12C128.148 152.933 127.781 152.793 127.328 152.7C126.888 152.593 126.414 152.493 125.908 152.4C125.401 152.293 124.928 152.147 124.488 151.96C124.048 151.773 123.681 151.507 123.388 151.16C123.108 150.8 122.968 150.327 122.968 149.74C122.968 149.033 123.168 148.427 123.568 147.92C123.968 147.4 124.528 147 125.248 146.72C125.968 146.44 126.808 146.3 127.768 146.3C128.461 146.3 129.141 146.387 129.808 146.56C130.488 146.72 131.041 146.953 131.468 147.26L130.708 148.78C130.268 148.473 129.774 148.26 129.228 148.14C128.681 148.007 128.134 147.94 127.588 147.94C126.694 147.94 126.021 148.093 125.568 148.4C125.114 148.693 124.888 149.067 124.888 149.52C124.888 149.867 125.028 150.14 125.308 150.34C125.588 150.527 125.948 150.673 126.388 150.78C126.841 150.887 127.314 150.993 127.808 151.1C128.314 151.193 128.788 151.333 129.228 151.52C129.681 151.693 130.048 151.953 130.328 152.3C130.608 152.633 130.748 153.093 130.748 153.68C130.748 154.413 130.541 155.04 130.128 155.56C129.728 156.067 129.161 156.453 128.428 156.72C127.694 156.987 126.848 157.12 125.888 157.12ZM132.567 157L134.667 146.4H136.587L134.487 157H132.567ZM136.187 144.36C135.827 144.36 135.534 144.247 135.307 144.02C135.094 143.793 134.987 143.52 134.987 143.2C134.987 142.827 135.114 142.513 135.367 142.26C135.62 141.993 135.954 141.86 136.367 141.86C136.714 141.86 137 141.973 137.227 142.2C137.467 142.413 137.587 142.673 137.587 142.98C137.587 143.393 137.46 143.727 137.207 143.98C136.954 144.233 136.614 144.36 136.187 144.36ZM143.113 157.12C142.1 157.12 141.22 156.933 140.473 156.56C139.74 156.173 139.166 155.64 138.753 154.96C138.34 154.267 138.133 153.46 138.133 152.54C138.133 151.34 138.4 150.273 138.933 149.34C139.466 148.393 140.2 147.653 141.133 147.12C142.08 146.573 143.153 146.3 144.353 146.3C145.353 146.3 146.226 146.487 146.973 146.86C147.72 147.233 148.293 147.76 148.693 148.44C149.106 149.12 149.313 149.927 149.313 150.86C149.313 152.06 149.046 153.133 148.513 154.08C147.98 155.013 147.246 155.753 146.313 156.3C145.393 156.847 144.326 157.12 143.113 157.12ZM143.233 155.44C144.033 155.44 144.746 155.247 145.373 154.86C146 154.473 146.486 153.947 146.833 153.28C147.193 152.6 147.373 151.827 147.373 150.96C147.373 150.027 147.1 149.3 146.553 148.78C146.006 148.247 145.226 147.98 144.213 147.98C143.426 147.98 142.72 148.173 142.093 148.56C141.466 148.933 140.973 149.46 140.613 150.14C140.253 150.807 140.073 151.58 140.073 152.46C140.073 153.38 140.346 154.107 140.893 154.64C141.44 155.173 142.22 155.44 143.233 155.44ZM158.368 146.3C159.302 146.3 160.082 146.487 160.708 146.86C161.335 147.233 161.768 147.78 162.008 148.5C162.262 149.207 162.288 150.06 162.088 151.06L160.908 157H158.988L160.168 151.06C160.368 150.1 160.275 149.353 159.888 148.82C159.502 148.287 158.808 148.02 157.808 148.02C156.782 148.02 155.928 148.3 155.248 148.86C154.568 149.407 154.115 150.253 153.888 151.4L152.768 157H150.848L152.948 146.4H154.788L154.188 149.44L153.828 148.62C154.335 147.82 154.975 147.233 155.748 146.86C156.535 146.487 157.408 146.3 158.368 146.3ZM169.122 157.12C168.228 157.12 167.428 156.94 166.722 156.58C166.015 156.207 165.455 155.68 165.042 155C164.642 154.32 164.442 153.5 164.442 152.54C164.442 151.633 164.588 150.8 164.882 150.04C165.188 149.28 165.608 148.62 166.142 148.06C166.688 147.5 167.328 147.067 168.062 146.76C168.795 146.453 169.588 146.3 170.442 146.3C171.362 146.3 172.142 146.46 172.782 146.78C173.422 147.1 173.915 147.573 174.262 148.2C174.608 148.813 174.782 149.567 174.782 150.46C174.782 151.767 174.555 152.927 174.102 153.94C173.648 154.94 172.995 155.72 172.142 156.28C171.302 156.84 170.295 157.12 169.122 157.12ZM169.542 155.44C170.342 155.44 171.055 155.247 171.682 154.86C172.308 154.473 172.795 153.947 173.142 153.28C173.502 152.6 173.682 151.827 173.682 150.96C173.682 150.027 173.408 149.3 172.862 148.78C172.315 148.247 171.535 147.98 170.522 147.98C169.735 147.98 169.028 148.173 168.402 148.56C167.775 148.933 167.282 149.46 166.922 150.14C166.562 150.807 166.382 151.58 166.382 152.46C166.382 153.38 166.655 154.107 167.202 154.64C167.748 155.173 168.528 155.44 169.542 155.44ZM172.602 157L173.162 154.26L173.802 151.8L174.062 149.28L174.622 146.4H176.542L174.442 157H172.602ZM178.094 157L181.054 142.16H182.974L180.014 157H178.094ZM187.02 157.12C186.127 157.12 185.28 157.007 184.48 156.78C183.694 156.54 183.087 156.247 182.66 155.9L183.52 154.38C183.934 154.7 184.467 154.96 185.12 155.16C185.787 155.36 186.48 155.46 187.2 155.46C188.12 155.46 188.814 155.32 189.28 155.04C189.747 154.76 189.98 154.38 189.98 153.9C189.98 153.553 189.84 153.293 189.56 153.12C189.28 152.933 188.914 152.793 188.46 152.7C188.02 152.593 187.547 152.493 187.04 152.4C186.534 152.293 186.06 152.147 185.62 151.96C185.18 151.773 184.814 151.507 184.52 151.16C184.24 150.8 184.1 150.327 184.1 149.74C184.1 149.033 184.3 148.427 184.7 147.92C185.1 147.4 185.66 147 186.38 146.72C187.1 146.44 187.94 146.3 188.9 146.3C189.594 146.3 190.274 146.387 190.94 146.56C191.62 146.72 192.174 146.953 192.6 147.26L191.84 148.78C191.4 148.473 190.907 148.26 190.36 148.14C189.814 148.007 189.267 147.94 188.72 147.94C187.827 147.94 187.154 148.093 186.7 148.4C186.247 148.693 186.02 149.067 186.02 149.52C186.02 149.867 186.16 150.14 186.44 150.34C186.72 150.527 187.08 150.673 187.52 150.78C187.974 150.887 188.447 150.993 188.94 151.1C189.447 151.193 189.92 151.333 190.36 151.52C190.814 151.693 191.18 151.953 191.46 152.3C191.74 152.633 191.88 153.093 191.88 153.68C191.88 154.413 191.674 155.04 191.26 155.56C190.86 156.067 190.294 156.453 189.56 156.72C188.827 156.987 187.98 157.12 187.02 157.12ZM192.32 159.96L194.14 155.92L194.32 157.12C193.96 157.12 193.653 157 193.4 156.76C193.16 156.507 193.04 156.2 193.04 155.84C193.04 155.4 193.18 155.047 193.46 154.78C193.74 154.513 194.073 154.38 194.46 154.38C194.82 154.38 195.12 154.5 195.36 154.74C195.6 154.98 195.72 155.293 195.72 155.68C195.72 155.893 195.68 156.093 195.6 156.28C195.533 156.467 195.42 156.693 195.26 156.96L193.58 159.96H192.32ZM208.262 157.12C207.369 157.12 206.569 156.94 205.862 156.58C205.156 156.207 204.596 155.68 204.182 155C203.782 154.32 203.582 153.5 203.582 152.54C203.582 151.633 203.729 150.8 204.022 150.04C204.329 149.28 204.749 148.62 205.282 148.06C205.829 147.5 206.469 147.067 207.202 146.76C207.936 146.453 208.729 146.3 209.582 146.3C210.502 146.3 211.282 146.46 211.922 146.78C212.562 147.1 213.056 147.573 213.402 148.2C213.749 148.813 213.922 149.567 213.922 150.46C213.922 151.767 213.696 152.927 213.242 153.94C212.789 154.94 212.136 155.72 211.282 156.28C210.442 156.84 209.436 157.12 208.262 157.12ZM208.682 155.44C209.482 155.44 210.196 155.247 210.822 154.86C211.449 154.473 211.936 153.947 212.282 153.28C212.642 152.6 212.822 151.827 212.822 150.96C212.822 150.027 212.549 149.3 212.002 148.78C211.456 148.247 210.676 147.98 209.662 147.98C208.876 147.98 208.169 148.173 207.542 148.56C206.916 148.933 206.422 149.46 206.062 150.14C205.702 150.807 205.522 151.58 205.522 152.46C205.522 153.38 205.796 154.107 206.342 154.64C206.889 155.173 207.669 155.44 208.682 155.44ZM211.742 157L212.302 154.26L212.942 151.8L213.202 149.28L213.762 146.4H215.682L213.582 157H211.742ZM224.755 146.3C225.688 146.3 226.468 146.487 227.095 146.86C227.722 147.233 228.155 147.78 228.395 148.5C228.648 149.207 228.675 150.06 228.475 151.06L227.295 157H225.375L226.555 151.06C226.755 150.1 226.662 149.353 226.275 148.82C225.888 148.287 225.195 148.02 224.195 148.02C223.168 148.02 222.315 148.3 221.635 148.86C220.955 149.407 220.502 150.253 220.275 151.4L219.155 157H217.235L219.335 146.4H221.175L220.575 149.44L220.215 148.62C220.722 147.82 221.362 147.233 222.135 146.86C222.922 146.487 223.795 146.3 224.755 146.3ZM235.508 157.12C234.615 157.12 233.815 156.94 233.108 156.58C232.402 156.207 231.842 155.68 231.428 155C231.028 154.32 230.828 153.5 230.828 152.54C230.828 151.633 230.975 150.8 231.268 150.04C231.575 149.28 231.995 148.62 232.528 148.06C233.075 147.5 233.715 147.067 234.448 146.76C235.182 146.453 235.975 146.3 236.828 146.3C237.748 146.3 238.528 146.46 239.168 146.78C239.808 147.1 240.302 147.573 240.648 148.2C240.995 148.813 241.168 149.567 241.168 150.46C241.168 151.447 241.042 152.347 240.788 153.16C240.535 153.973 240.155 154.68 239.648 155.28C239.155 155.867 238.562 156.32 237.868 156.64C237.175 156.96 236.388 157.12 235.508 157.12ZM235.928 155.44C236.728 155.44 237.442 155.247 238.068 154.86C238.695 154.473 239.182 153.947 239.528 153.28C239.888 152.6 240.068 151.827 240.068 150.96C240.068 150.027 239.795 149.3 239.248 148.78C238.702 148.247 237.922 147.98 236.908 147.98C236.122 147.98 235.415 148.173 234.788 148.56C234.162 148.933 233.668 149.46 233.308 150.14C232.948 150.807 232.768 151.58 232.768 152.46C232.768 153.38 233.042 154.107 233.588 154.64C234.135 155.173 234.915 155.44 235.928 155.44ZM238.988 157L239.548 154.26L240.168 151.8L240.448 149.28L241.868 142.16H243.788L240.828 157H238.988ZM254.512 157.12C253.619 157.12 252.819 156.94 252.112 156.58C251.406 156.207 250.846 155.68 250.432 155C250.032 154.32 249.832 153.5 249.832 152.54C249.832 151.633 249.979 150.8 250.272 150.04C250.579 149.28 250.999 148.62 251.532 148.06C252.079 147.5 252.719 147.067 253.452 146.76C254.186 146.453 254.979 146.3 255.832 146.3C256.752 146.3 257.532 146.46 258.172 146.78C258.812 147.1 259.306 147.573 259.652 148.2C259.999 148.813 260.172 149.567 260.172 150.46C260.172 151.767 259.946 152.927 259.492 153.94C259.039 154.94 258.386 155.72 257.532 156.28C256.692 156.84 255.686 157.12 254.512 157.12ZM254.932 155.44C255.732 155.44 256.446 155.247 257.072 154.86C257.699 154.473 258.186 153.947 258.532 153.28C258.892 152.6 259.072 151.827 259.072 150.96C259.072 150.027 258.799 149.3 258.252 148.78C257.706 148.247 256.926 147.98 255.912 147.98C255.126 147.98 254.419 148.173 253.792 148.56C253.166 148.933 252.672 149.46 252.312 150.14C251.952 150.807 251.772 151.58 251.772 152.46C251.772 153.38 252.046 154.107 252.592 154.64C253.139 155.173 253.919 155.44 254.932 155.44ZM257.132 160.88L258.452 154.22L259.172 151.8L259.472 149.54L260.112 146.4H261.932L259.052 160.88H257.132ZM267.985 157.12C267.078 157.12 266.312 156.933 265.685 156.56C265.072 156.187 264.638 155.647 264.385 154.94C264.132 154.22 264.105 153.353 264.305 152.34L265.485 146.4H267.405L266.225 152.36C266.038 153.307 266.132 154.053 266.505 154.6C266.892 155.133 267.572 155.4 268.545 155.4C269.545 155.4 270.385 155.12 271.065 154.56C271.745 154 272.198 153.153 272.425 152.02L273.545 146.4H275.465L273.365 157H271.525L272.125 153.96L272.465 154.78C271.972 155.58 271.332 156.173 270.545 156.56C269.772 156.933 268.918 157.12 267.985 157.12ZM281.68 157.12C280.787 157.12 279.987 156.94 279.28 156.58C278.574 156.207 278.014 155.68 277.6 155C277.2 154.32 277 153.5 277 152.54C277 151.633 277.147 150.8 277.44 150.04C277.747 149.28 278.167 148.62 278.7 148.06C279.247 147.5 279.887 147.067 280.62 146.76C281.354 146.453 282.147 146.3 283 146.3C283.92 146.3 284.7 146.46 285.34 146.78C285.98 147.1 286.474 147.573 286.82 148.2C287.167 148.813 287.34 149.567 287.34 150.46C287.34 151.767 287.114 152.927 286.66 153.94C286.207 154.94 285.554 155.72 284.7 156.28C283.86 156.84 282.854 157.12 281.68 157.12ZM282.1 155.44C282.9 155.44 283.614 155.247 284.24 154.86C284.867 154.473 285.354 153.947 285.7 153.28C286.06 152.6 286.24 151.827 286.24 150.96C286.24 150.027 285.967 149.3 285.42 148.78C284.874 148.247 284.094 147.98 283.08 147.98C282.294 147.98 281.587 148.173 280.96 148.56C280.334 148.933 279.84 149.46 279.48 150.14C279.12 150.807 278.94 151.58 278.94 152.46C278.94 153.38 279.214 154.107 279.76 154.64C280.307 155.173 281.087 155.44 282.1 155.44ZM285.16 157L285.72 154.26L286.36 151.8L286.62 149.28L287.18 146.4H289.1L287 157H285.16ZM290.653 157L293.613 142.16H295.533L292.573 157H290.653ZM296.239 157L298.339 146.4H300.259L298.159 157H296.239ZM299.859 144.36C299.499 144.36 299.206 144.247 298.979 144.02C298.766 143.793 298.659 143.52 298.659 143.2C298.659 142.827 298.786 142.513 299.039 142.26C299.292 141.993 299.626 141.86 300.039 141.86C300.386 141.86 300.672 141.973 300.899 142.2C301.139 142.413 301.259 142.673 301.259 142.98C301.259 143.393 301.132 143.727 300.879 143.98C300.626 144.233 300.286 144.36 299.859 144.36ZM305.465 157.12C304.825 157.12 304.272 156.98 303.805 156.7C303.352 156.42 303.025 156.02 302.825 155.5C302.638 154.98 302.612 154.367 302.745 153.66L304.665 144.08H306.585L304.665 153.62C304.572 154.193 304.625 154.653 304.825 155C305.038 155.333 305.432 155.5 306.005 155.5C306.272 155.5 306.538 155.46 306.805 155.38C307.072 155.287 307.312 155.16 307.525 155L307.925 156.46C307.565 156.713 307.165 156.887 306.725 156.98C306.298 157.073 305.878 157.12 305.465 157.12ZM302.085 147.98L302.385 146.4H309.165L308.845 147.98H302.085ZM309.751 161C309.244 161 308.744 160.913 308.251 160.74C307.758 160.58 307.371 160.353 307.091 160.06L308.091 158.64C308.318 158.867 308.584 159.04 308.891 159.16C309.184 159.293 309.518 159.36 309.891 159.36C310.331 159.36 310.724 159.24 311.071 159C311.431 158.773 311.798 158.367 312.171 157.78L313.171 156.24L313.391 156.02L319.451 146.4H321.391L313.871 158.16C313.404 158.88 312.964 159.447 312.551 159.86C312.138 160.273 311.704 160.567 311.251 160.74C310.811 160.913 310.311 161 309.751 161ZM312.811 157.34L310.151 146.4H312.071L314.331 155.84L312.811 157.34ZM329.794 157.12C328.9 157.12 328.054 157.007 327.254 156.78C326.467 156.54 325.86 156.247 325.434 155.9L326.294 154.38C326.707 154.7 327.24 154.96 327.894 155.16C328.56 155.36 329.254 155.46 329.974 155.46C330.894 155.46 331.587 155.32 332.054 155.04C332.52 154.76 332.754 154.38 332.754 153.9C332.754 153.553 332.614 153.293 332.334 153.12C332.054 152.933 331.687 152.793 331.234 152.7C330.794 152.593 330.32 152.493 329.814 152.4C329.307 152.293 328.834 152.147 328.394 151.96C327.954 151.773 327.587 151.507 327.294 151.16C327.014 150.8 326.874 150.327 326.874 149.74C326.874 149.033 327.074 148.427 327.474 147.92C327.874 147.4 328.434 147 329.154 146.72C329.874 146.44 330.714 146.3 331.674 146.3C332.367 146.3 333.047 146.387 333.714 146.56C334.394 146.72 334.947 146.953 335.374 147.26L334.614 148.78C334.174 148.473 333.68 148.26 333.134 148.14C332.587 148.007 332.04 147.94 331.494 147.94C330.6 147.94 329.927 148.093 329.474 148.4C329.02 148.693 328.794 149.067 328.794 149.52C328.794 149.867 328.934 150.14 329.214 150.34C329.494 150.527 329.854 150.673 330.294 150.78C330.747 150.887 331.22 150.993 331.714 151.1C332.22 151.193 332.694 151.333 333.134 151.52C333.587 151.693 333.954 151.953 334.234 152.3C334.514 152.633 334.654 153.093 334.654 153.68C334.654 154.413 334.447 155.04 334.034 155.56C333.634 156.067 333.067 156.453 332.334 156.72C331.6 156.987 330.754 157.12 329.794 157.12ZM341.533 157.12C340.493 157.12 339.593 156.933 338.833 156.56C338.073 156.173 337.487 155.64 337.073 154.96C336.66 154.267 336.453 153.453 336.453 152.52C336.453 151.32 336.713 150.253 337.233 149.32C337.753 148.387 338.46 147.653 339.353 147.12C340.26 146.573 341.287 146.3 342.433 146.3C343.393 146.3 344.227 146.487 344.933 146.86C345.64 147.22 346.187 147.74 346.573 148.42C346.973 149.1 347.173 149.92 347.173 150.88C347.173 151.12 347.16 151.367 347.133 151.62C347.107 151.86 347.073 152.087 347.033 152.3H337.853L338.093 150.9H346.113L345.333 151.38C345.453 150.633 345.4 150.007 345.173 149.5C344.947 148.98 344.587 148.587 344.093 148.32C343.613 148.04 343.033 147.9 342.353 147.9C341.553 147.9 340.847 148.093 340.233 148.48C339.633 148.853 339.167 149.38 338.833 150.06C338.5 150.727 338.333 151.513 338.333 152.42C338.333 153.38 338.607 154.127 339.153 154.66C339.713 155.18 340.56 155.44 341.693 155.44C342.36 155.44 342.98 155.333 343.553 155.12C344.127 154.893 344.6 154.593 344.973 154.22L345.793 155.6C345.287 156.093 344.653 156.473 343.893 156.74C343.133 156.993 342.347 157.12 341.533 157.12ZM348.7 157L350.8 146.4H352.64L352.04 149.48L351.84 148.72C352.333 147.827 352.96 147.2 353.72 146.84C354.48 146.48 355.42 146.3 356.54 146.3L356.18 148.16C356.1 148.147 356.02 148.14 355.94 148.14C355.86 148.14 355.773 148.14 355.68 148.14C354.627 148.14 353.753 148.427 353.06 149C352.38 149.573 351.92 150.473 351.68 151.7L350.62 157H348.7ZM359.976 157L357.436 146.4H359.356L361.596 156H360.636L366.736 146.4H368.676L361.936 157H359.976ZM368.368 157L370.468 146.4H372.388L370.288 157H368.368ZM371.988 144.36C371.628 144.36 371.335 144.247 371.108 144.02C370.895 143.793 370.788 143.52 370.788 143.2C370.788 142.827 370.915 142.513 371.168 142.26C371.421 141.993 371.755 141.86 372.168 141.86C372.515 141.86 372.801 141.973 373.028 142.2C373.268 142.413 373.388 142.673 373.388 142.98C373.388 143.393 373.261 143.727 373.008 143.98C372.755 144.233 372.415 144.36 371.988 144.36ZM378.974 157.12C377.947 157.12 377.054 156.933 376.294 156.56C375.547 156.173 374.967 155.64 374.554 154.96C374.14 154.267 373.934 153.46 373.934 152.54C373.934 151.34 374.2 150.273 374.734 149.34C375.267 148.393 376.007 147.653 376.954 147.12C377.9 146.573 378.974 146.3 380.174 146.3C381.2 146.3 382.08 146.493 382.814 146.88C383.547 147.253 384.12 147.827 384.534 148.6L382.914 149.5C382.647 148.98 382.267 148.6 381.774 148.36C381.294 148.107 380.714 147.98 380.034 147.98C379.234 147.98 378.52 148.173 377.894 148.56C377.267 148.933 376.774 149.46 376.414 150.14C376.054 150.807 375.874 151.58 375.874 152.46C375.874 153.38 376.147 154.107 376.694 154.64C377.254 155.173 378.04 155.44 379.054 155.44C379.68 155.44 380.267 155.313 380.814 155.06C381.374 154.807 381.84 154.433 382.214 153.94L383.614 154.94C383.134 155.62 382.48 156.153 381.654 156.54C380.827 156.927 379.934 157.12 378.974 157.12ZM390.283 157.12C389.243 157.12 388.343 156.933 387.583 156.56C386.823 156.173 386.237 155.64 385.823 154.96C385.41 154.267 385.203 153.453 385.203 152.52C385.203 151.32 385.463 150.253 385.983 149.32C386.503 148.387 387.21 147.653 388.103 147.12C389.01 146.573 390.037 146.3 391.183 146.3C392.143 146.3 392.977 146.487 393.683 146.86C394.39 147.22 394.937 147.74 395.323 148.42C395.723 149.1 395.923 149.92 395.923 150.88C395.923 151.12 395.91 151.367 395.883 151.62C395.857 151.86 395.823 152.087 395.783 152.3H386.603L386.843 150.9H394.863L394.083 151.38C394.203 150.633 394.15 150.007 393.923 149.5C393.697 148.98 393.337 148.587 392.843 148.32C392.363 148.04 391.783 147.9 391.103 147.9C390.303 147.9 389.597 148.093 388.983 148.48C388.383 148.853 387.917 149.38 387.583 150.06C387.25 150.727 387.083 151.513 387.083 152.42C387.083 153.38 387.357 154.127 387.903 154.66C388.463 155.18 389.31 155.44 390.443 155.44C391.11 155.44 391.73 155.333 392.303 155.12C392.877 154.893 393.35 154.593 393.723 154.22L394.543 155.6C394.037 156.093 393.403 156.473 392.643 156.74C391.883 156.993 391.097 157.12 390.283 157.12ZM177.373 181.12C176.333 181.12 175.433 180.933 174.673 180.56C173.913 180.173 173.327 179.64 172.913 178.96C172.5 178.267 172.293 177.453 172.293 176.52C172.293 175.32 172.553 174.253 173.073 173.32C173.593 172.387 174.3 171.653 175.193 171.12C176.1 170.573 177.127 170.3 178.273 170.3C179.233 170.3 180.067 170.487 180.773 170.86C181.48 171.22 182.027 171.74 182.413 172.42C182.813 173.1 183.013 173.92 183.013 174.88C183.013 175.12 183 175.367 182.973 175.62C182.947 175.86 182.913 176.087 182.873 176.3H173.693L173.933 174.9H181.953L181.173 175.38C181.293 174.633 181.24 174.007 181.013 173.5C180.787 172.98 180.427 172.587 179.933 172.32C179.453 172.04 178.873 171.9 178.193 171.9C177.393 171.9 176.687 172.093 176.073 172.48C175.473 172.853 175.007 173.38 174.673 174.06C174.34 174.727 174.173 175.513 174.173 176.42C174.173 177.38 174.447 178.127 174.993 178.66C175.553 179.18 176.4 179.44 177.533 179.44C178.2 179.44 178.82 179.333 179.393 179.12C179.967 178.893 180.44 178.593 180.813 178.22L181.633 179.6C181.127 180.093 180.493 180.473 179.733 180.74C178.973 180.993 178.187 181.12 177.373 181.12ZM187.124 181L184.584 170.4H186.504L188.744 180H187.784L193.884 170.4H195.824L189.084 181H187.124ZM200.283 181.12C199.243 181.12 198.343 180.933 197.583 180.56C196.823 180.173 196.237 179.64 195.823 178.96C195.41 178.267 195.203 177.453 195.203 176.52C195.203 175.32 195.463 174.253 195.983 173.32C196.503 172.387 197.21 171.653 198.103 171.12C199.01 170.573 200.037 170.3 201.183 170.3C202.143 170.3 202.977 170.487 203.683 170.86C204.39 171.22 204.937 171.74 205.323 172.42C205.723 173.1 205.923 173.92 205.923 174.88C205.923 175.12 205.91 175.367 205.883 175.62C205.857 175.86 205.823 176.087 205.783 176.3H196.603L196.843 174.9H204.863L204.083 175.38C204.203 174.633 204.15 174.007 203.923 173.5C203.697 172.98 203.337 172.587 202.843 172.32C202.363 172.04 201.783 171.9 201.103 171.9C200.303 171.9 199.597 172.093 198.983 172.48C198.383 172.853 197.917 173.38 197.583 174.06C197.25 174.727 197.083 175.513 197.083 176.42C197.083 177.38 197.357 178.127 197.903 178.66C198.463 179.18 199.31 179.44 200.443 179.44C201.11 179.44 201.73 179.333 202.303 179.12C202.877 178.893 203.35 178.593 203.723 178.22L204.543 179.6C204.037 180.093 203.403 180.473 202.643 180.74C201.883 180.993 201.097 181.12 200.283 181.12ZM207.45 181L209.55 170.4H211.39L210.79 173.48L210.59 172.72C211.083 171.827 211.71 171.2 212.47 170.84C213.23 170.48 214.17 170.3 215.29 170.3L214.93 172.16C214.85 172.147 214.77 172.14 214.69 172.14C214.61 172.14 214.523 172.14 214.43 172.14C213.377 172.14 212.503 172.427 211.81 173C211.13 173.573 210.67 174.473 210.43 175.7L209.37 181H207.45ZM215.786 185C215.279 185 214.779 184.913 214.286 184.74C213.793 184.58 213.406 184.353 213.126 184.06L214.126 182.64C214.353 182.867 214.619 183.04 214.926 183.16C215.219 183.293 215.553 183.36 215.926 183.36C216.366 183.36 216.759 183.24 217.106 183C217.466 182.773 217.833 182.367 218.206 181.78L219.206 180.24L219.426 180.02L225.486 170.4H227.426L219.906 182.16C219.439 182.88 218.999 183.447 218.586 183.86C218.173 184.273 217.739 184.567 217.286 184.74C216.846 184.913 216.346 185 215.786 185ZM218.846 181.34L216.186 170.4H218.106L220.366 179.84L218.846 181.34ZM236.129 181.12C235.489 181.12 234.936 180.98 234.469 180.7C234.016 180.42 233.689 180.02 233.489 179.5C233.302 178.98 233.276 178.367 233.409 177.66L235.329 168.08H237.249L235.329 177.62C235.236 178.193 235.289 178.653 235.489 179C235.702 179.333 236.096 179.5 236.669 179.5C236.936 179.5 237.202 179.46 237.469 179.38C237.736 179.287 237.976 179.16 238.189 179L238.589 180.46C238.229 180.713 237.829 180.887 237.389 180.98C236.962 181.073 236.542 181.12 236.129 181.12ZM232.749 171.98L233.049 170.4H239.829L239.509 171.98H232.749ZM240.77 181L242.87 170.4H244.79L242.69 181H240.77ZM244.39 168.36C244.03 168.36 243.737 168.247 243.51 168.02C243.297 167.793 243.19 167.52 243.19 167.2C243.19 166.827 243.317 166.513 243.57 166.26C243.824 165.993 244.157 165.86 244.57 165.86C244.917 165.86 245.204 165.973 245.43 166.2C245.67 166.413 245.79 166.673 245.79 166.98C245.79 167.393 245.664 167.727 245.41 167.98C245.157 168.233 244.817 168.36 244.39 168.36ZM261.436 170.3C262.383 170.3 263.163 170.487 263.776 170.86C264.39 171.233 264.816 171.78 265.056 172.5C265.31 173.207 265.33 174.06 265.116 175.06L263.936 181H262.016L263.196 175.06C263.396 174.1 263.31 173.353 262.936 172.82C262.576 172.287 261.916 172.02 260.956 172.02C259.983 172.02 259.176 172.293 258.536 172.84C257.896 173.387 257.463 174.22 257.236 175.34L256.096 181H254.176L255.376 175.06C255.563 174.1 255.47 173.353 255.096 172.82C254.736 172.287 254.076 172.02 253.116 172.02C252.143 172.02 251.336 172.3 250.696 172.86C250.056 173.407 249.623 174.253 249.396 175.4L248.276 181H246.356L248.456 170.4H250.296L249.696 173.44L249.336 172.62C249.83 171.82 250.45 171.233 251.196 170.86C251.956 170.487 252.796 170.3 253.716 170.3C254.436 170.3 255.063 170.42 255.596 170.66C256.13 170.9 256.55 171.26 256.856 171.74C257.176 172.207 257.363 172.773 257.416 173.44L256.376 173.24C256.923 172.253 257.623 171.52 258.476 171.04C259.343 170.547 260.33 170.3 261.436 170.3ZM272.549 181.12C271.509 181.12 270.609 180.933 269.849 180.56C269.089 180.173 268.502 179.64 268.089 178.96C267.676 178.267 267.469 177.453 267.469 176.52C267.469 175.32 267.729 174.253 268.249 173.32C268.769 172.387 269.476 171.653 270.369 171.12C271.276 170.573 272.302 170.3 273.449 170.3C274.409 170.3 275.242 170.487 275.949 170.86C276.656 171.22 277.202 171.74 277.589 172.42C277.989 173.1 278.189 173.92 278.189 174.88C278.189 175.12 278.176 175.367 278.149 175.62C278.122 175.86 278.089 176.087 278.049 176.3H268.869L269.109 174.9H277.129L276.349 175.38C276.469 174.633 276.416 174.007 276.189 173.5C275.962 172.98 275.602 172.587 275.109 172.32C274.629 172.04 274.049 171.9 273.369 171.9C272.569 171.9 271.862 172.093 271.249 172.48C270.649 172.853 270.182 173.38 269.849 174.06C269.516 174.727 269.349 175.513 269.349 176.42C269.349 177.38 269.622 178.127 270.169 178.66C270.729 179.18 271.576 179.44 272.709 179.44C273.376 179.44 273.996 179.333 274.569 179.12C275.142 178.893 275.616 178.593 275.989 178.22L276.809 179.6C276.302 180.093 275.669 180.473 274.909 180.74C274.149 180.993 273.362 181.12 272.549 181.12ZM280.336 181.12C279.976 181.12 279.669 181 279.416 180.76C279.176 180.507 279.056 180.2 279.056 179.84C279.056 179.4 279.196 179.047 279.476 178.78C279.756 178.513 280.089 178.38 280.476 178.38C280.836 178.38 281.136 178.5 281.376 178.74C281.616 178.98 281.736 179.293 281.736 179.68C281.736 179.96 281.669 180.213 281.536 180.44C281.402 180.653 281.229 180.82 281.016 180.94C280.816 181.06 280.589 181.12 280.336 181.12Z" fill="black"/>
</g>
<defs>
<linearGradient id="paint0_linear_4086_14030" x1="227.5" y1="0" x2="227.5" y2="280" gradientUnits="userSpaceOnUse">
<stop offset="0.652979" stop-color="white"/>
<stop offset="1" stop-color="white" stop-opacity="0.1"/>
</linearGradient>
<clipPath id="clip0_4086_14030">
<path d="M0 20C0 8.95431 8.95431 0 20 0H435C446.046 0 455 8.95431 455 20V260C455 271.046 446.046 280 435 280H20C8.9543 280 0 271.046 0 260V20Z" fill="white"/>
</clipPath>
</defs>
</svg>
