<svg width="45" height="45" viewBox="0 0 45 45" fill="none" xmlns="http://www.w3.org/2000/svg">
<g clip-path="url(#clip0_3978_18403)">
<rect width="45" height="45" rx="22.5" fill="white"/>
<path d="M-33.8618 26.8825L-40.2196 31.1653C-47.5844 36.1266 -52 44.4252 -52 53.3052C-52 68.0483 -40.0483 80 -25.3052 80H404.288C418.488 80 430 68.4885 430 54.2883C430 44.9196 424.904 36.2925 416.699 31.7703L406.394 26.0904C393.736 19.114 378.522 18.5462 365.38 24.5597L358.206 27.8421C342.532 35.0143 324.562 35.2557 308.7 28.5073L298.592 24.2068C284.916 18.3879 269.335 19.1054 256.251 26.1566L253.985 27.3775C240.464 34.6644 224.132 34.4247 210.83 26.7442C198.11 19.3992 182.575 18.8394 169.359 25.2496L163.956 27.8701C149.267 34.9945 132.19 35.3045 117.252 28.7181L107.705 24.5084C94.2111 18.5587 78.6497 19.6578 66.1264 27.4451C54.3126 34.7912 39.7491 36.2091 26.7402 31.2797L3.6655 22.5361C-8.8078 17.8097 -22.7991 19.4301 -33.8618 26.8825Z" fill="url(#paint0_linear_3978_18403)"/>
<path d="M4.13818 26.8825L-2.21956 31.1653C-9.58435 36.1266 -14 44.4252 -14 53.3052C-14 68.0483 -2.04834 80 12.6948 80H442.288C456.488 80 468 68.4885 468 54.2883C468 44.9196 462.904 36.2925 454.699 31.7703L444.394 26.0904C431.736 19.114 416.522 18.5462 403.38 24.5597L396.206 27.8421C380.532 35.0143 362.562 35.2557 346.7 28.5073L336.592 24.2068C322.916 18.3879 307.335 19.1054 294.251 26.1566L291.985 27.3775C278.464 34.6644 262.132 34.4247 248.83 26.7442C236.11 19.3992 220.575 18.8394 207.359 25.2496L201.956 27.8701C187.267 34.9945 170.19 35.3045 155.252 28.7181L145.705 24.5084C132.211 18.5587 116.65 19.6578 104.126 27.4451C92.3126 34.7912 77.7491 36.2091 64.7402 31.2797L41.6655 22.5361C29.1922 17.8097 15.2009 19.4301 4.13818 26.8825Z" fill="url(#paint1_linear_3978_18403)"/>
</g>
<rect x="0.5" y="0.5" width="44" height="44" rx="22" stroke="white"/>
<defs>
<linearGradient id="paint0_linear_3978_18403" x1="188.503" y1="80" x2="188.503" y2="15.7303" gradientUnits="userSpaceOnUse">
<stop stop-color="#9747FF"/>
<stop offset="1" stop-color="#5D14AD" stop-opacity="0.7"/>
</linearGradient>
<linearGradient id="paint1_linear_3978_18403" x1="226.503" y1="80" x2="226.503" y2="15.7303" gradientUnits="userSpaceOnUse">
<stop stop-color="#280E44"/>
<stop offset="1" stop-color="#5D14AD" stop-opacity="0.2"/>
</linearGradient>
<clipPath id="clip0_3978_18403">
<rect width="45" height="45" rx="22.5" fill="white"/>
</clipPath>
</defs>
</svg>
